G75*
%MOIN*%
%OFA0B0*%
%FSLAX25Y25*%
%IPPOS*%
%LPD*%
%AMOC8*
5,1,8,0,0,1.08239X$1,22.5*
%
%ADD10C,0.01600*%
%ADD11C,0.01200*%
%ADD12C,0.01000*%
%ADD13R,0.00770X0.00070*%
%ADD14R,0.00420X0.00070*%
%ADD15R,0.01190X0.00070*%
%ADD16R,0.00560X0.00070*%
%ADD17R,0.01470X0.00070*%
%ADD18R,0.01540X0.00070*%
%ADD19R,0.00560X0.00070*%
%ADD20R,0.01680X0.00070*%
%ADD21R,0.01680X0.00070*%
%ADD22R,0.00630X0.00070*%
%ADD23R,0.00490X0.00070*%
%ADD24R,0.00490X0.00070*%
%ADD25R,0.00630X0.00070*%
%ADD26R,0.00070X0.00070*%
%ADD27R,0.00070X0.00070*%
%ADD28R,0.00280X0.00070*%
%ADD29R,0.01750X0.00070*%
%ADD30R,0.00280X0.00070*%
%ADD31R,0.00070X0.00070*%
%ADD32R,0.00350X0.00070*%
%ADD33R,0.00490X0.00070*%
%ADD34R,0.00840X0.00070*%
%ADD35R,0.01050X0.00070*%
%ADD36R,0.00700X0.00070*%
%ADD37R,0.01610X0.00070*%
%ADD38R,0.01120X0.00070*%
%ADD39R,0.01260X0.00070*%
%ADD40R,0.00770X0.00070*%
%ADD41R,0.00840X0.00070*%
%ADD42R,0.00420X0.00070*%
%ADD43R,0.01540X0.00070*%
%ADD44R,0.00770X0.00070*%
%ADD45R,0.01260X0.00070*%
%ADD46R,0.01470X0.00070*%
%ADD47R,0.01470X0.00070*%
%ADD48R,0.00490X0.00070*%
%ADD49R,0.01610X0.00070*%
%ADD50R,0.01330X0.00070*%
%ADD51R,0.01470X0.00070*%
%ADD52R,0.01400X0.00070*%
%ADD53R,0.00840X0.00070*%
%ADD54R,0.00840X0.00070*%
%ADD55R,0.01540X0.00070*%
%ADD56R,0.01540X0.00070*%
%ADD57R,0.01400X0.00070*%
%ADD58R,0.01820X0.00070*%
%ADD59R,0.00910X0.00070*%
%ADD60R,0.00210X0.00070*%
%ADD61R,0.00140X0.00070*%
%ADD62R,0.00140X0.00070*%
%ADD63R,0.00910X0.00070*%
%ADD64R,0.00210X0.00070*%
%ADD65R,0.01890X0.00070*%
%ADD66R,0.00980X0.00070*%
%ADD67R,0.00070X0.00070*%
%ADD68R,0.01890X0.00070*%
%ADD69R,0.00980X0.00070*%
%ADD70R,0.01120X0.00070*%
%ADD71R,0.01190X0.00070*%
%ADD72R,0.01750X0.00070*%
%ADD73R,0.01120X0.00070*%
%ADD74R,0.00700X0.00070*%
%ADD75R,0.00770X0.00070*%
%ADD76R,0.01820X0.00070*%
%ADD77R,0.01890X0.00070*%
%ADD78R,0.02590X0.00070*%
%ADD79R,0.02590X0.00070*%
%ADD80R,0.02450X0.00070*%
%ADD81R,0.02590X0.00070*%
%ADD82R,0.02520X0.00070*%
%ADD83R,0.02520X0.00070*%
%ADD84R,0.01190X0.00070*%
%ADD85R,0.00420X0.00070*%
%ADD86R,0.00420X0.00070*%
%ADD87R,0.01330X0.00070*%
%ADD88R,0.00350X0.00070*%
%ADD89R,0.01050X0.00070*%
%ADD90R,0.02170X0.00070*%
%ADD91R,0.02800X0.00070*%
%ADD92R,0.02940X0.00070*%
%ADD93R,0.03150X0.00070*%
%ADD94R,0.03360X0.00070*%
%ADD95R,0.03500X0.00070*%
%ADD96R,0.03500X0.00070*%
%ADD97R,0.01820X0.00070*%
%ADD98R,0.03640X0.00070*%
%ADD99R,0.02030X0.00070*%
%ADD100R,0.03710X0.00070*%
%ADD101R,0.02100X0.00070*%
%ADD102R,0.03780X0.00070*%
%ADD103R,0.02380X0.00070*%
%ADD104R,0.01960X0.00070*%
%ADD105R,0.02520X0.00070*%
%ADD106R,0.02660X0.00070*%
%ADD107R,0.01190X0.00070*%
%ADD108R,0.02870X0.00070*%
%ADD109R,0.01120X0.00070*%
%ADD110R,0.03010X0.00070*%
%ADD111R,0.03220X0.00070*%
%ADD112R,0.03290X0.00070*%
%ADD113R,0.03290X0.00070*%
%ADD114R,0.03360X0.00070*%
%ADD115R,0.03430X0.00070*%
%ADD116R,0.03570X0.00070*%
%ADD117R,0.03640X0.00070*%
%ADD118R,0.03920X0.00070*%
%ADD119R,0.05810X0.00070*%
%ADD120R,0.03640X0.00070*%
%ADD121R,0.02240X0.00070*%
%ADD122R,0.05670X0.00070*%
%ADD123R,0.02030X0.00070*%
%ADD124R,0.02380X0.00070*%
%ADD125R,0.05460X0.00070*%
%ADD126R,0.03430X0.00070*%
%ADD127R,0.02100X0.00070*%
%ADD128R,0.05320X0.00070*%
%ADD129R,0.05180X0.00070*%
%ADD130R,0.03220X0.00070*%
%ADD131R,0.02730X0.00070*%
%ADD132R,0.05040X0.00070*%
%ADD133R,0.03290X0.00070*%
%ADD134R,0.04900X0.00070*%
%ADD135R,0.03080X0.00070*%
%ADD136R,0.02800X0.00070*%
%ADD137R,0.03080X0.00070*%
%ADD138R,0.04760X0.00070*%
%ADD139R,0.03220X0.00070*%
%ADD140R,0.02870X0.00070*%
%ADD141R,0.04690X0.00070*%
%ADD142R,0.04550X0.00070*%
%ADD143R,0.03780X0.00070*%
%ADD144R,0.03010X0.00070*%
%ADD145R,0.04410X0.00070*%
%ADD146R,0.03850X0.00070*%
%ADD147R,0.03150X0.00070*%
%ADD148R,0.04340X0.00070*%
%ADD149R,0.03570X0.00070*%
%ADD150R,0.03920X0.00070*%
%ADD151R,0.04200X0.00070*%
%ADD152R,0.03990X0.00070*%
%ADD153R,0.04130X0.00070*%
%ADD154R,0.03710X0.00070*%
%ADD155R,0.04060X0.00070*%
%ADD156R,0.03990X0.00070*%
%ADD157R,0.02170X0.00070*%
%ADD158R,0.04200X0.00070*%
%ADD159R,0.03920X0.00070*%
%ADD160R,0.01960X0.00070*%
%ADD161R,0.04410X0.00070*%
%ADD162R,0.04620X0.00070*%
%ADD163R,0.02310X0.00070*%
%ADD164R,0.02310X0.00070*%
%ADD165R,0.05110X0.00070*%
%ADD166R,0.05250X0.00070*%
%ADD167R,0.05530X0.00070*%
%ADD168R,0.03220X0.00070*%
%ADD169R,0.05740X0.00070*%
%ADD170R,0.05880X0.00070*%
%ADD171R,0.03570X0.00070*%
%ADD172R,0.06020X0.00070*%
%ADD173R,0.06160X0.00070*%
%ADD174R,0.06370X0.00070*%
%ADD175R,0.06510X0.00070*%
%ADD176R,0.02870X0.00070*%
%ADD177R,0.06790X0.00070*%
%ADD178R,0.03570X0.00070*%
%ADD179R,0.06860X0.00070*%
%ADD180R,0.02590X0.00070*%
%ADD181R,0.07140X0.00070*%
%ADD182R,0.07350X0.00070*%
%ADD183R,0.05320X0.00070*%
%ADD184R,0.06440X0.00070*%
%ADD185R,0.06230X0.00070*%
%ADD186R,0.05950X0.00070*%
%ADD187R,0.05600X0.00070*%
%ADD188R,0.05460X0.00070*%
%ADD189R,0.05110X0.00070*%
%ADD190R,0.01890X0.00070*%
%ADD191R,0.04970X0.00070*%
%ADD192R,0.04830X0.00070*%
%ADD193R,0.02940X0.00070*%
%ADD194R,0.04690X0.00070*%
%ADD195R,0.02870X0.00070*%
%ADD196R,0.02730X0.00070*%
%ADD197R,0.04480X0.00070*%
%ADD198R,0.04270X0.00070*%
%ADD199R,0.00140X0.00070*%
%ADD200R,0.02660X0.00070*%
%ADD201R,0.04130X0.00070*%
%ADD202R,0.02240X0.00070*%
%ADD203R,0.03640X0.00070*%
%ADD204R,0.02170X0.00070*%
%ADD205R,0.01820X0.00070*%
%ADD206R,0.02240X0.00070*%
%ADD207R,0.02240X0.00070*%
%ADD208R,0.02450X0.00070*%
%ADD209R,0.03290X0.00070*%
%ADD210R,0.03850X0.00070*%
%ADD211R,0.04270X0.00070*%
%ADD212R,0.00140X0.00070*%
%ADD213R,0.04480X0.00070*%
%ADD214R,0.04550X0.00070*%
%ADD215R,0.03920X0.00070*%
%ADD216R,0.04620X0.00070*%
%ADD217R,0.04690X0.00070*%
%ADD218R,0.04830X0.00070*%
%ADD219R,0.04900X0.00070*%
%ADD220R,0.05040X0.00070*%
%ADD221R,0.02940X0.00070*%
%ADD222R,0.02170X0.00070*%
%ADD223R,0.05180X0.00070*%
%ADD224R,0.05320X0.00070*%
%ADD225R,0.05320X0.00070*%
%ADD226R,0.05390X0.00070*%
%ADD227R,0.05390X0.00070*%
%ADD228R,0.05600X0.00070*%
%ADD229R,0.05670X0.00070*%
%ADD230R,0.05880X0.00070*%
%ADD231R,0.05950X0.00070*%
%ADD232R,0.02520X0.00070*%
%ADD233R,0.06230X0.00070*%
%ADD234R,0.02940X0.00070*%
%ADD235R,0.04620X0.00070*%
%ADD236R,0.04620X0.00070*%
%ADD237R,0.04760X0.00070*%
%ADD238R,0.07910X0.00070*%
%ADD239R,0.07840X0.00070*%
%ADD240R,0.07770X0.00070*%
%ADD241R,0.07700X0.00070*%
%ADD242R,0.07630X0.00070*%
%ADD243R,0.07630X0.00070*%
%ADD244R,0.07490X0.00070*%
%ADD245R,0.07490X0.00070*%
%ADD246R,0.07350X0.00070*%
%ADD247R,0.07280X0.00070*%
%ADD248R,0.07210X0.00070*%
%ADD249R,0.07210X0.00070*%
%ADD250R,0.07140X0.00070*%
%ADD251R,0.07070X0.00070*%
%ADD252R,0.07000X0.00070*%
%ADD253R,0.07000X0.00070*%
%ADD254R,0.06930X0.00070*%
%ADD255R,0.06930X0.00070*%
%ADD256R,0.06860X0.00070*%
%ADD257C,0.00500*%
%ADD258C,0.00800*%
D10*
X0023106Y0041189D02*
X0076256Y0041189D01*
X0076261Y0041570D01*
X0076274Y0041950D01*
X0076297Y0042330D01*
X0076330Y0042709D01*
X0076371Y0043087D01*
X0076421Y0043464D01*
X0076481Y0043840D01*
X0076549Y0044215D01*
X0076627Y0044587D01*
X0076714Y0044958D01*
X0076809Y0045326D01*
X0076914Y0045692D01*
X0077027Y0046055D01*
X0077149Y0046416D01*
X0077279Y0046773D01*
X0077419Y0047127D01*
X0077566Y0047478D01*
X0077723Y0047825D01*
X0077887Y0048168D01*
X0078060Y0048507D01*
X0078241Y0048842D01*
X0078430Y0049173D01*
X0078627Y0049498D01*
X0078831Y0049819D01*
X0079044Y0050135D01*
X0079264Y0050445D01*
X0079491Y0050751D01*
X0079726Y0051050D01*
X0079968Y0051344D01*
X0080216Y0051632D01*
X0080472Y0051914D01*
X0080735Y0052189D01*
X0081004Y0052458D01*
X0081279Y0052721D01*
X0081561Y0052977D01*
X0081849Y0053225D01*
X0082143Y0053467D01*
X0082442Y0053702D01*
X0082748Y0053929D01*
X0083058Y0054149D01*
X0083374Y0054362D01*
X0083695Y0054566D01*
X0084020Y0054763D01*
X0084351Y0054952D01*
X0084686Y0055133D01*
X0085025Y0055306D01*
X0085368Y0055470D01*
X0085715Y0055627D01*
X0086066Y0055774D01*
X0086420Y0055914D01*
X0086777Y0056044D01*
X0087138Y0056166D01*
X0087501Y0056279D01*
X0087867Y0056384D01*
X0088235Y0056479D01*
X0088606Y0056566D01*
X0088978Y0056644D01*
X0089353Y0056712D01*
X0089729Y0056772D01*
X0090106Y0056822D01*
X0090484Y0056863D01*
X0090863Y0056896D01*
X0091243Y0056919D01*
X0091623Y0056932D01*
X0092004Y0056937D01*
X0272122Y0056937D01*
X0283933Y0045126D02*
X0283933Y0031347D01*
X0283933Y0045126D02*
X0283728Y0045603D01*
X0283513Y0046076D01*
X0283286Y0046543D01*
X0283048Y0047004D01*
X0282799Y0047460D01*
X0282539Y0047910D01*
X0282269Y0048354D01*
X0281988Y0048791D01*
X0281697Y0049221D01*
X0281395Y0049644D01*
X0281084Y0050060D01*
X0280763Y0050468D01*
X0280432Y0050868D01*
X0280092Y0051261D01*
X0279743Y0051645D01*
X0279384Y0052021D01*
X0279017Y0052388D01*
X0278641Y0052747D01*
X0278257Y0053096D01*
X0277864Y0053436D01*
X0277464Y0053767D01*
X0277056Y0054088D01*
X0276640Y0054399D01*
X0276217Y0054701D01*
X0275787Y0054992D01*
X0275350Y0055273D01*
X0274906Y0055543D01*
X0274456Y0055803D01*
X0274000Y0056052D01*
X0273539Y0056290D01*
X0273072Y0056517D01*
X0272599Y0056732D01*
X0272122Y0056937D01*
X0272122Y0080559D02*
X0092004Y0080559D01*
X0091623Y0080564D01*
X0091243Y0080577D01*
X0090863Y0080600D01*
X0090484Y0080633D01*
X0090106Y0080674D01*
X0089729Y0080724D01*
X0089353Y0080784D01*
X0088978Y0080852D01*
X0088606Y0080930D01*
X0088235Y0081017D01*
X0087867Y0081112D01*
X0087501Y0081217D01*
X0087138Y0081330D01*
X0086777Y0081452D01*
X0086420Y0081582D01*
X0086066Y0081722D01*
X0085715Y0081869D01*
X0085368Y0082026D01*
X0085025Y0082190D01*
X0084686Y0082363D01*
X0084351Y0082544D01*
X0084020Y0082733D01*
X0083695Y0082930D01*
X0083374Y0083134D01*
X0083058Y0083347D01*
X0082748Y0083567D01*
X0082442Y0083794D01*
X0082143Y0084029D01*
X0081849Y0084271D01*
X0081561Y0084519D01*
X0081279Y0084775D01*
X0081004Y0085038D01*
X0080735Y0085307D01*
X0080472Y0085582D01*
X0080216Y0085864D01*
X0079968Y0086152D01*
X0079726Y0086446D01*
X0079491Y0086745D01*
X0079264Y0087051D01*
X0079044Y0087361D01*
X0078831Y0087677D01*
X0078627Y0087998D01*
X0078430Y0088323D01*
X0078241Y0088654D01*
X0078060Y0088989D01*
X0077887Y0089328D01*
X0077723Y0089671D01*
X0077566Y0090018D01*
X0077419Y0090369D01*
X0077279Y0090723D01*
X0077149Y0091080D01*
X0077027Y0091441D01*
X0076914Y0091804D01*
X0076809Y0092170D01*
X0076714Y0092538D01*
X0076627Y0092909D01*
X0076549Y0093281D01*
X0076481Y0093656D01*
X0076421Y0094032D01*
X0076371Y0094409D01*
X0076330Y0094787D01*
X0076297Y0095166D01*
X0076274Y0095546D01*
X0076261Y0095926D01*
X0076256Y0096307D01*
X0023106Y0096307D01*
X0022916Y0096305D01*
X0022726Y0096298D01*
X0022536Y0096286D01*
X0022346Y0096270D01*
X0022157Y0096250D01*
X0021968Y0096224D01*
X0021780Y0096195D01*
X0021593Y0096160D01*
X0021407Y0096121D01*
X0021222Y0096078D01*
X0021037Y0096030D01*
X0020854Y0095978D01*
X0020673Y0095922D01*
X0020493Y0095861D01*
X0020314Y0095795D01*
X0020137Y0095726D01*
X0019961Y0095652D01*
X0019788Y0095574D01*
X0019616Y0095491D01*
X0019447Y0095405D01*
X0019279Y0095315D01*
X0019114Y0095220D01*
X0018951Y0095122D01*
X0018791Y0095019D01*
X0018633Y0094913D01*
X0018478Y0094803D01*
X0018325Y0094690D01*
X0018175Y0094572D01*
X0018029Y0094451D01*
X0017885Y0094327D01*
X0017744Y0094199D01*
X0017606Y0094068D01*
X0017471Y0093933D01*
X0017340Y0093795D01*
X0017212Y0093654D01*
X0017088Y0093510D01*
X0016967Y0093364D01*
X0016849Y0093214D01*
X0016736Y0093061D01*
X0016626Y0092906D01*
X0016520Y0092748D01*
X0016417Y0092588D01*
X0016319Y0092425D01*
X0016224Y0092260D01*
X0016134Y0092092D01*
X0016048Y0091923D01*
X0015965Y0091751D01*
X0015887Y0091578D01*
X0015813Y0091402D01*
X0015744Y0091225D01*
X0015678Y0091046D01*
X0015617Y0090866D01*
X0015561Y0090685D01*
X0015509Y0090502D01*
X0015461Y0090317D01*
X0015418Y0090132D01*
X0015379Y0089946D01*
X0015344Y0089759D01*
X0015315Y0089571D01*
X0015289Y0089382D01*
X0015269Y0089193D01*
X0015253Y0089003D01*
X0015241Y0088813D01*
X0015234Y0088623D01*
X0015232Y0088433D01*
X0015232Y0049063D01*
X0015234Y0048873D01*
X0015241Y0048683D01*
X0015253Y0048493D01*
X0015269Y0048303D01*
X0015289Y0048114D01*
X0015315Y0047925D01*
X0015344Y0047737D01*
X0015379Y0047550D01*
X0015418Y0047364D01*
X0015461Y0047179D01*
X0015509Y0046994D01*
X0015561Y0046811D01*
X0015617Y0046630D01*
X0015678Y0046450D01*
X0015744Y0046271D01*
X0015813Y0046094D01*
X0015887Y0045918D01*
X0015965Y0045745D01*
X0016048Y0045573D01*
X0016134Y0045404D01*
X0016224Y0045236D01*
X0016319Y0045071D01*
X0016417Y0044908D01*
X0016520Y0044748D01*
X0016626Y0044590D01*
X0016736Y0044435D01*
X0016849Y0044282D01*
X0016967Y0044132D01*
X0017088Y0043986D01*
X0017212Y0043842D01*
X0017340Y0043701D01*
X0017471Y0043563D01*
X0017606Y0043428D01*
X0017744Y0043297D01*
X0017885Y0043169D01*
X0018029Y0043045D01*
X0018175Y0042924D01*
X0018325Y0042806D01*
X0018478Y0042693D01*
X0018633Y0042583D01*
X0018791Y0042477D01*
X0018951Y0042374D01*
X0019114Y0042276D01*
X0019279Y0042181D01*
X0019447Y0042091D01*
X0019616Y0042005D01*
X0019788Y0041922D01*
X0019961Y0041844D01*
X0020137Y0041770D01*
X0020314Y0041701D01*
X0020493Y0041635D01*
X0020673Y0041574D01*
X0020854Y0041518D01*
X0021037Y0041466D01*
X0021222Y0041418D01*
X0021407Y0041375D01*
X0021593Y0041336D01*
X0021780Y0041301D01*
X0021968Y0041272D01*
X0022157Y0041246D01*
X0022346Y0041226D01*
X0022536Y0041210D01*
X0022726Y0041198D01*
X0022916Y0041191D01*
X0023106Y0041189D01*
X0272122Y0080559D02*
X0272614Y0080770D01*
X0273101Y0080993D01*
X0273582Y0081228D01*
X0274058Y0081475D01*
X0274527Y0081733D01*
X0274990Y0082003D01*
X0275446Y0082284D01*
X0275895Y0082576D01*
X0276336Y0082879D01*
X0276771Y0083193D01*
X0277197Y0083517D01*
X0277615Y0083852D01*
X0278025Y0084197D01*
X0278426Y0084551D01*
X0278819Y0084916D01*
X0279202Y0085290D01*
X0279576Y0085673D01*
X0279941Y0086066D01*
X0280295Y0086467D01*
X0280640Y0086877D01*
X0280975Y0087295D01*
X0281299Y0087721D01*
X0281613Y0088156D01*
X0281916Y0088597D01*
X0282208Y0089046D01*
X0282489Y0089502D01*
X0282759Y0089965D01*
X0283017Y0090434D01*
X0283264Y0090910D01*
X0283499Y0091391D01*
X0283722Y0091878D01*
X0283933Y0092370D01*
X0283933Y0106150D01*
X0365862Y0102291D02*
X0371098Y0107528D01*
X0366728Y0121228D02*
X0371965Y0126465D01*
X0373579Y0084890D02*
X0371177Y0082488D01*
X0343973Y0001819D02*
X0342234Y0001800D01*
X0340496Y0001823D01*
X0338758Y0001887D01*
X0337023Y0001993D01*
X0335291Y0002141D01*
X0333562Y0002331D01*
X0331839Y0002561D01*
X0330122Y0002833D01*
X0328412Y0003146D01*
X0326709Y0003500D01*
X0325016Y0003895D01*
X0323333Y0004331D01*
X0321661Y0004806D01*
X0320000Y0005322D01*
X0318353Y0005877D01*
X0316719Y0006472D01*
X0315100Y0007105D01*
X0313496Y0007778D01*
X0311910Y0008488D01*
X0310340Y0009237D01*
X0308790Y0010023D01*
X0307258Y0010846D01*
X0305747Y0011705D01*
X0304256Y0012601D01*
X0302788Y0013532D01*
X0301342Y0014498D01*
X0299920Y0015498D01*
X0298523Y0016532D01*
X0297150Y0017600D01*
X0295804Y0018700D01*
X0294484Y0019832D01*
X0293192Y0020995D01*
X0291929Y0022189D01*
X0290694Y0023413D01*
X0289489Y0024667D01*
X0288314Y0025949D01*
X0287171Y0027258D01*
X0286059Y0028595D01*
X0284980Y0029958D01*
X0283933Y0031347D01*
X0364209Y0059614D02*
X0371177Y0052646D01*
X0343973Y0135677D02*
X0342234Y0135696D01*
X0340496Y0135673D01*
X0338758Y0135609D01*
X0337023Y0135503D01*
X0335291Y0135355D01*
X0333562Y0135165D01*
X0331839Y0134935D01*
X0330122Y0134663D01*
X0328412Y0134350D01*
X0326709Y0133996D01*
X0325016Y0133601D01*
X0323333Y0133165D01*
X0321661Y0132690D01*
X0320000Y0132174D01*
X0318353Y0131619D01*
X0316719Y0131024D01*
X0315100Y0130391D01*
X0313496Y0129718D01*
X0311910Y0129008D01*
X0310340Y0128259D01*
X0308790Y0127473D01*
X0307258Y0126650D01*
X0305747Y0125791D01*
X0304256Y0124895D01*
X0302788Y0123964D01*
X0301342Y0122998D01*
X0299920Y0121998D01*
X0298523Y0120964D01*
X0297150Y0119896D01*
X0295804Y0118796D01*
X0294484Y0117664D01*
X0293192Y0116501D01*
X0291929Y0115307D01*
X0290694Y0114083D01*
X0289489Y0112829D01*
X0288314Y0111547D01*
X0287171Y0110238D01*
X0286059Y0108901D01*
X0284980Y0107538D01*
X0283933Y0106149D01*
X0343972Y0135677D02*
X0345565Y0135634D01*
X0347157Y0135552D01*
X0348746Y0135432D01*
X0350332Y0135274D01*
X0351914Y0135077D01*
X0353490Y0134842D01*
X0355060Y0134570D01*
X0356624Y0134259D01*
X0358179Y0133911D01*
X0359725Y0133525D01*
X0361262Y0133102D01*
X0362788Y0132642D01*
X0364302Y0132145D01*
X0365804Y0131612D01*
X0367293Y0131042D01*
X0368767Y0130437D01*
X0370226Y0129796D01*
X0371670Y0129121D01*
X0373096Y0128410D01*
X0374506Y0127666D01*
X0375896Y0126887D01*
X0377268Y0126075D01*
X0378619Y0125231D01*
X0379950Y0124353D01*
X0381259Y0123444D01*
X0382546Y0122504D01*
X0383809Y0121533D01*
X0385049Y0120531D01*
X0386264Y0119500D01*
X0387454Y0118440D01*
X0388618Y0117351D01*
X0389755Y0116234D01*
X0390865Y0115091D01*
X0391947Y0113921D01*
X0393001Y0112725D01*
X0394025Y0111504D01*
X0395020Y0110258D01*
X0395984Y0108989D01*
X0396917Y0107697D01*
X0397819Y0106383D01*
X0398688Y0105047D01*
X0399525Y0103691D01*
X0400329Y0102315D01*
X0401100Y0100920D01*
X0401836Y0099507D01*
X0402539Y0098076D01*
X0403206Y0096629D01*
X0403839Y0095166D01*
X0404435Y0093688D01*
X0404996Y0092196D01*
X0405521Y0090691D01*
X0406009Y0089174D01*
X0406461Y0087645D01*
X0406875Y0086106D01*
X0407252Y0084558D01*
X0407591Y0083001D01*
X0407893Y0081436D01*
X0408157Y0079864D01*
X0408383Y0078286D01*
X0408570Y0076704D01*
X0408720Y0075117D01*
X0408831Y0073527D01*
X0408903Y0071935D01*
X0408937Y0070342D01*
X0408933Y0068748D01*
X0408937Y0067154D01*
X0408903Y0065561D01*
X0408831Y0063969D01*
X0408720Y0062379D01*
X0408570Y0060792D01*
X0408383Y0059210D01*
X0408157Y0057632D01*
X0407893Y0056060D01*
X0407591Y0054495D01*
X0407252Y0052938D01*
X0406875Y0051390D01*
X0406461Y0049851D01*
X0406009Y0048322D01*
X0405521Y0046805D01*
X0404996Y0045300D01*
X0404435Y0043808D01*
X0403839Y0042330D01*
X0403206Y0040867D01*
X0402539Y0039420D01*
X0401836Y0037989D01*
X0401100Y0036576D01*
X0400329Y0035181D01*
X0399525Y0033805D01*
X0398688Y0032449D01*
X0397819Y0031113D01*
X0396917Y0029799D01*
X0395984Y0028507D01*
X0395020Y0027238D01*
X0394025Y0025992D01*
X0393001Y0024771D01*
X0391947Y0023575D01*
X0390865Y0022405D01*
X0389755Y0021262D01*
X0388618Y0020145D01*
X0387454Y0019056D01*
X0386264Y0017996D01*
X0385049Y0016965D01*
X0383809Y0015963D01*
X0382546Y0014992D01*
X0381259Y0014052D01*
X0379950Y0013143D01*
X0378619Y0012265D01*
X0377268Y0011421D01*
X0375896Y0010609D01*
X0374506Y0009830D01*
X0373096Y0009086D01*
X0371670Y0008375D01*
X0370226Y0007700D01*
X0368767Y0007059D01*
X0367293Y0006454D01*
X0365804Y0005884D01*
X0364302Y0005351D01*
X0362788Y0004854D01*
X0361262Y0004394D01*
X0359725Y0003971D01*
X0358179Y0003585D01*
X0356624Y0003237D01*
X0355060Y0002926D01*
X0353490Y0002654D01*
X0351914Y0002419D01*
X0350332Y0002222D01*
X0348746Y0002064D01*
X0347157Y0001944D01*
X0345565Y0001862D01*
X0343972Y0001819D01*
D11*
X0299681Y0039221D02*
X0299681Y0051032D01*
X0299679Y0051222D01*
X0299672Y0051412D01*
X0299660Y0051602D01*
X0299644Y0051792D01*
X0299624Y0051981D01*
X0299598Y0052170D01*
X0299569Y0052358D01*
X0299534Y0052545D01*
X0299495Y0052731D01*
X0299452Y0052916D01*
X0299404Y0053101D01*
X0299352Y0053284D01*
X0299296Y0053465D01*
X0299235Y0053645D01*
X0299169Y0053824D01*
X0299100Y0054001D01*
X0299026Y0054177D01*
X0298948Y0054350D01*
X0298865Y0054522D01*
X0298779Y0054691D01*
X0298689Y0054859D01*
X0298594Y0055024D01*
X0298496Y0055187D01*
X0298393Y0055347D01*
X0298287Y0055505D01*
X0298177Y0055660D01*
X0298064Y0055813D01*
X0297946Y0055963D01*
X0297825Y0056109D01*
X0297701Y0056253D01*
X0297573Y0056394D01*
X0297442Y0056532D01*
X0297307Y0056667D01*
X0297169Y0056798D01*
X0297028Y0056926D01*
X0296884Y0057050D01*
X0296738Y0057171D01*
X0296588Y0057289D01*
X0296435Y0057402D01*
X0296280Y0057512D01*
X0296122Y0057618D01*
X0295962Y0057721D01*
X0295799Y0057819D01*
X0295634Y0057914D01*
X0295466Y0058004D01*
X0295297Y0058090D01*
X0295125Y0058173D01*
X0294952Y0058251D01*
X0294776Y0058325D01*
X0294599Y0058394D01*
X0294420Y0058460D01*
X0294240Y0058521D01*
X0294059Y0058577D01*
X0293876Y0058629D01*
X0293691Y0058677D01*
X0293506Y0058720D01*
X0293320Y0058759D01*
X0293133Y0058794D01*
X0292945Y0058823D01*
X0292756Y0058849D01*
X0292567Y0058869D01*
X0292377Y0058885D01*
X0292187Y0058897D01*
X0291997Y0058904D01*
X0291807Y0058906D01*
X0283933Y0058906D01*
X0306965Y0058906D02*
X0314839Y0058906D01*
X0315029Y0058904D01*
X0315219Y0058897D01*
X0315409Y0058885D01*
X0315599Y0058869D01*
X0315788Y0058849D01*
X0315977Y0058823D01*
X0316165Y0058794D01*
X0316352Y0058759D01*
X0316538Y0058720D01*
X0316723Y0058677D01*
X0316908Y0058629D01*
X0317091Y0058577D01*
X0317272Y0058521D01*
X0317452Y0058460D01*
X0317631Y0058394D01*
X0317808Y0058325D01*
X0317984Y0058251D01*
X0318157Y0058173D01*
X0318329Y0058090D01*
X0318498Y0058004D01*
X0318666Y0057914D01*
X0318831Y0057819D01*
X0318994Y0057721D01*
X0319154Y0057618D01*
X0319312Y0057512D01*
X0319467Y0057402D01*
X0319620Y0057289D01*
X0319770Y0057171D01*
X0319916Y0057050D01*
X0320060Y0056926D01*
X0320201Y0056798D01*
X0320339Y0056667D01*
X0320474Y0056532D01*
X0320605Y0056394D01*
X0320733Y0056253D01*
X0320857Y0056109D01*
X0320978Y0055963D01*
X0321096Y0055813D01*
X0321209Y0055660D01*
X0321319Y0055505D01*
X0321425Y0055347D01*
X0321528Y0055187D01*
X0321626Y0055024D01*
X0321721Y0054859D01*
X0321811Y0054691D01*
X0321897Y0054522D01*
X0321980Y0054350D01*
X0322058Y0054177D01*
X0322132Y0054001D01*
X0322201Y0053824D01*
X0322267Y0053645D01*
X0322328Y0053465D01*
X0322384Y0053284D01*
X0322436Y0053101D01*
X0322484Y0052916D01*
X0322527Y0052731D01*
X0322566Y0052545D01*
X0322601Y0052358D01*
X0322630Y0052170D01*
X0322656Y0051981D01*
X0322676Y0051792D01*
X0322692Y0051602D01*
X0322704Y0051412D01*
X0322711Y0051222D01*
X0322713Y0051032D01*
X0299681Y0098276D02*
X0300583Y0099364D01*
X0301512Y0100431D01*
X0302465Y0101475D01*
X0303444Y0102495D01*
X0304447Y0103491D01*
X0305474Y0104463D01*
X0306525Y0105410D01*
X0307597Y0106331D01*
X0308692Y0107225D01*
X0309809Y0108093D01*
X0310946Y0108933D01*
X0312103Y0109746D01*
X0313279Y0110530D01*
X0314474Y0111286D01*
X0315687Y0112012D01*
X0316917Y0112709D01*
X0318164Y0113376D01*
X0319427Y0114012D01*
X0320704Y0114618D01*
X0321996Y0115192D01*
X0323302Y0115735D01*
X0324620Y0116246D01*
X0325950Y0116725D01*
X0327292Y0117172D01*
X0328644Y0117586D01*
X0330005Y0117967D01*
X0331376Y0118315D01*
X0332754Y0118629D01*
X0334140Y0118910D01*
X0335532Y0119158D01*
X0336929Y0119372D01*
X0338332Y0119551D01*
X0339738Y0119697D01*
X0341148Y0119809D01*
X0342559Y0119886D01*
X0343973Y0119929D01*
X0299681Y0098276D02*
X0299681Y0086465D01*
X0299679Y0086275D01*
X0299672Y0086085D01*
X0299660Y0085895D01*
X0299644Y0085705D01*
X0299624Y0085516D01*
X0299598Y0085327D01*
X0299569Y0085139D01*
X0299534Y0084952D01*
X0299495Y0084766D01*
X0299452Y0084581D01*
X0299404Y0084396D01*
X0299352Y0084213D01*
X0299296Y0084032D01*
X0299235Y0083852D01*
X0299169Y0083673D01*
X0299100Y0083496D01*
X0299026Y0083320D01*
X0298948Y0083147D01*
X0298865Y0082975D01*
X0298779Y0082806D01*
X0298689Y0082638D01*
X0298594Y0082473D01*
X0298496Y0082310D01*
X0298393Y0082150D01*
X0298287Y0081992D01*
X0298177Y0081837D01*
X0298064Y0081684D01*
X0297946Y0081534D01*
X0297825Y0081388D01*
X0297701Y0081244D01*
X0297573Y0081103D01*
X0297442Y0080965D01*
X0297307Y0080830D01*
X0297169Y0080699D01*
X0297028Y0080571D01*
X0296884Y0080447D01*
X0296738Y0080326D01*
X0296588Y0080208D01*
X0296435Y0080095D01*
X0296280Y0079985D01*
X0296122Y0079879D01*
X0295962Y0079776D01*
X0295799Y0079678D01*
X0295634Y0079583D01*
X0295466Y0079493D01*
X0295297Y0079407D01*
X0295125Y0079324D01*
X0294952Y0079246D01*
X0294776Y0079172D01*
X0294599Y0079103D01*
X0294420Y0079037D01*
X0294240Y0078976D01*
X0294059Y0078920D01*
X0293876Y0078868D01*
X0293691Y0078820D01*
X0293506Y0078777D01*
X0293320Y0078738D01*
X0293133Y0078703D01*
X0292945Y0078674D01*
X0292756Y0078648D01*
X0292567Y0078628D01*
X0292377Y0078612D01*
X0292187Y0078600D01*
X0291997Y0078593D01*
X0291807Y0078591D01*
X0283933Y0078591D01*
X0306965Y0078591D02*
X0314839Y0078591D01*
X0315029Y0078593D01*
X0315219Y0078600D01*
X0315409Y0078612D01*
X0315599Y0078628D01*
X0315788Y0078648D01*
X0315977Y0078674D01*
X0316165Y0078703D01*
X0316352Y0078738D01*
X0316538Y0078777D01*
X0316723Y0078820D01*
X0316908Y0078868D01*
X0317091Y0078920D01*
X0317272Y0078976D01*
X0317452Y0079037D01*
X0317631Y0079103D01*
X0317808Y0079172D01*
X0317984Y0079246D01*
X0318157Y0079324D01*
X0318329Y0079407D01*
X0318498Y0079493D01*
X0318666Y0079583D01*
X0318831Y0079678D01*
X0318994Y0079776D01*
X0319154Y0079879D01*
X0319312Y0079985D01*
X0319467Y0080095D01*
X0319620Y0080208D01*
X0319770Y0080326D01*
X0319916Y0080447D01*
X0320060Y0080571D01*
X0320201Y0080699D01*
X0320339Y0080830D01*
X0320474Y0080965D01*
X0320605Y0081103D01*
X0320733Y0081244D01*
X0320857Y0081388D01*
X0320978Y0081534D01*
X0321096Y0081684D01*
X0321209Y0081837D01*
X0321319Y0081992D01*
X0321425Y0082150D01*
X0321528Y0082310D01*
X0321626Y0082473D01*
X0321721Y0082638D01*
X0321811Y0082806D01*
X0321897Y0082975D01*
X0321980Y0083147D01*
X0322058Y0083320D01*
X0322132Y0083496D01*
X0322201Y0083673D01*
X0322267Y0083852D01*
X0322328Y0084032D01*
X0322384Y0084213D01*
X0322436Y0084396D01*
X0322484Y0084581D01*
X0322527Y0084766D01*
X0322566Y0084952D01*
X0322601Y0085139D01*
X0322630Y0085327D01*
X0322656Y0085516D01*
X0322676Y0085705D01*
X0322692Y0085895D01*
X0322704Y0086085D01*
X0322711Y0086275D01*
X0322713Y0086465D01*
X0299681Y0039220D02*
X0300583Y0038132D01*
X0301512Y0037065D01*
X0302465Y0036021D01*
X0303444Y0035001D01*
X0304447Y0034005D01*
X0305474Y0033033D01*
X0306525Y0032086D01*
X0307597Y0031165D01*
X0308692Y0030271D01*
X0309809Y0029403D01*
X0310946Y0028563D01*
X0312103Y0027750D01*
X0313279Y0026966D01*
X0314474Y0026210D01*
X0315687Y0025484D01*
X0316917Y0024787D01*
X0318164Y0024120D01*
X0319427Y0023484D01*
X0320704Y0022878D01*
X0321996Y0022304D01*
X0323302Y0021761D01*
X0324620Y0021250D01*
X0325950Y0020771D01*
X0327292Y0020324D01*
X0328644Y0019910D01*
X0330005Y0019529D01*
X0331376Y0019181D01*
X0332754Y0018867D01*
X0334140Y0018586D01*
X0335532Y0018338D01*
X0336929Y0018124D01*
X0338332Y0017945D01*
X0339738Y0017799D01*
X0341148Y0017687D01*
X0342559Y0017610D01*
X0343973Y0017567D01*
X0343972Y0017568D02*
X0345185Y0017606D01*
X0346396Y0017674D01*
X0347606Y0017771D01*
X0348812Y0017897D01*
X0350016Y0018052D01*
X0351215Y0018237D01*
X0352409Y0018450D01*
X0353598Y0018692D01*
X0354781Y0018963D01*
X0355956Y0019262D01*
X0357125Y0019589D01*
X0358285Y0019945D01*
X0359436Y0020329D01*
X0360577Y0020740D01*
X0361708Y0021179D01*
X0362828Y0021645D01*
X0363937Y0022137D01*
X0365033Y0022657D01*
X0366117Y0023203D01*
X0367187Y0023775D01*
X0368243Y0024372D01*
X0369284Y0024995D01*
X0370310Y0025643D01*
X0371320Y0026316D01*
X0372313Y0027012D01*
X0373289Y0027733D01*
X0374247Y0028477D01*
X0375188Y0029244D01*
X0376109Y0030033D01*
X0377011Y0030844D01*
X0377893Y0031677D01*
X0378755Y0032531D01*
X0379596Y0033406D01*
X0380415Y0034300D01*
X0381213Y0035214D01*
X0381989Y0036148D01*
X0382741Y0037099D01*
X0383470Y0038069D01*
X0384176Y0039056D01*
X0384858Y0040059D01*
X0385515Y0041079D01*
X0386148Y0042114D01*
X0386755Y0043165D01*
X0387336Y0044230D01*
X0387892Y0045308D01*
X0388422Y0046400D01*
X0388925Y0047504D01*
X0389401Y0048620D01*
X0389850Y0049747D01*
X0390271Y0050884D01*
X0390665Y0052032D01*
X0391032Y0053189D01*
X0391370Y0054354D01*
X0391680Y0055527D01*
X0391961Y0056707D01*
X0392214Y0057893D01*
X0392438Y0059086D01*
X0392634Y0060283D01*
X0392800Y0061485D01*
X0392937Y0062691D01*
X0393045Y0063899D01*
X0393124Y0065110D01*
X0393173Y0066322D01*
X0393193Y0067535D01*
X0393184Y0068748D01*
X0343972Y0040599D02*
X0343293Y0040620D01*
X0342615Y0040658D01*
X0341938Y0040713D01*
X0341263Y0040784D01*
X0340589Y0040871D01*
X0339918Y0040975D01*
X0339250Y0041095D01*
X0338584Y0041231D01*
X0337922Y0041383D01*
X0337264Y0041551D01*
X0336610Y0041735D01*
X0335961Y0041935D01*
X0335317Y0042151D01*
X0334679Y0042382D01*
X0334046Y0042628D01*
X0333419Y0042890D01*
X0332799Y0043167D01*
X0332186Y0043458D01*
X0331580Y0043765D01*
X0330981Y0044086D01*
X0330391Y0044422D01*
X0329809Y0044772D01*
X0329235Y0045135D01*
X0328671Y0045513D01*
X0328115Y0045904D01*
X0327570Y0046309D01*
X0327034Y0046726D01*
X0326509Y0047157D01*
X0325994Y0047600D01*
X0325490Y0048055D01*
X0324998Y0048523D01*
X0324517Y0049002D01*
X0324047Y0049493D01*
X0323590Y0049995D01*
X0323145Y0050508D01*
X0322712Y0051032D01*
X0343972Y0119928D02*
X0345185Y0119890D01*
X0346396Y0119822D01*
X0347606Y0119725D01*
X0348812Y0119599D01*
X0350016Y0119444D01*
X0351215Y0119259D01*
X0352409Y0119046D01*
X0353598Y0118804D01*
X0354781Y0118533D01*
X0355956Y0118234D01*
X0357125Y0117907D01*
X0358285Y0117551D01*
X0359436Y0117167D01*
X0360577Y0116756D01*
X0361708Y0116317D01*
X0362828Y0115851D01*
X0363937Y0115359D01*
X0365033Y0114839D01*
X0366117Y0114293D01*
X0367187Y0113721D01*
X0368243Y0113124D01*
X0369284Y0112501D01*
X0370310Y0111853D01*
X0371320Y0111180D01*
X0372313Y0110484D01*
X0373289Y0109763D01*
X0374247Y0109019D01*
X0375188Y0108252D01*
X0376109Y0107463D01*
X0377011Y0106652D01*
X0377893Y0105819D01*
X0378755Y0104965D01*
X0379596Y0104090D01*
X0380415Y0103196D01*
X0381213Y0102282D01*
X0381989Y0101348D01*
X0382741Y0100397D01*
X0383470Y0099427D01*
X0384176Y0098440D01*
X0384858Y0097437D01*
X0385515Y0096417D01*
X0386148Y0095382D01*
X0386755Y0094331D01*
X0387336Y0093266D01*
X0387892Y0092188D01*
X0388422Y0091096D01*
X0388925Y0089992D01*
X0389401Y0088876D01*
X0389850Y0087749D01*
X0390271Y0086612D01*
X0390665Y0085464D01*
X0391032Y0084307D01*
X0391370Y0083142D01*
X0391680Y0081969D01*
X0391961Y0080789D01*
X0392214Y0079603D01*
X0392438Y0078410D01*
X0392634Y0077213D01*
X0392800Y0076011D01*
X0392937Y0074805D01*
X0393045Y0073597D01*
X0393124Y0072386D01*
X0393173Y0071174D01*
X0393193Y0069961D01*
X0393184Y0068748D01*
X0343972Y0096897D02*
X0343293Y0096876D01*
X0342615Y0096838D01*
X0341938Y0096783D01*
X0341263Y0096712D01*
X0340589Y0096625D01*
X0339918Y0096521D01*
X0339250Y0096401D01*
X0338584Y0096265D01*
X0337922Y0096113D01*
X0337264Y0095945D01*
X0336610Y0095761D01*
X0335961Y0095561D01*
X0335317Y0095345D01*
X0334679Y0095114D01*
X0334046Y0094868D01*
X0333419Y0094606D01*
X0332799Y0094329D01*
X0332186Y0094038D01*
X0331580Y0093731D01*
X0330981Y0093410D01*
X0330391Y0093074D01*
X0329809Y0092724D01*
X0329235Y0092361D01*
X0328671Y0091983D01*
X0328115Y0091592D01*
X0327570Y0091187D01*
X0327034Y0090770D01*
X0326509Y0090339D01*
X0325994Y0089896D01*
X0325490Y0089441D01*
X0324998Y0088973D01*
X0324517Y0088494D01*
X0324047Y0088003D01*
X0323590Y0087501D01*
X0323145Y0086988D01*
X0322712Y0086464D01*
X0343972Y0040598D02*
X0344652Y0040606D01*
X0345332Y0040631D01*
X0346011Y0040672D01*
X0346689Y0040729D01*
X0347365Y0040803D01*
X0348039Y0040893D01*
X0348711Y0041000D01*
X0349380Y0041122D01*
X0350046Y0041261D01*
X0350709Y0041416D01*
X0351367Y0041587D01*
X0352021Y0041773D01*
X0352671Y0041976D01*
X0353315Y0042194D01*
X0353954Y0042427D01*
X0354587Y0042676D01*
X0355214Y0042940D01*
X0355834Y0043219D01*
X0356448Y0043514D01*
X0357054Y0043822D01*
X0357652Y0044146D01*
X0358243Y0044484D01*
X0358825Y0044835D01*
X0359399Y0045201D01*
X0359963Y0045581D01*
X0360518Y0045974D01*
X0361064Y0046381D01*
X0361599Y0046800D01*
X0362124Y0047233D01*
X0362639Y0047677D01*
X0363143Y0048135D01*
X0363635Y0048604D01*
X0364116Y0049085D01*
X0364585Y0049577D01*
X0365043Y0050081D01*
X0365487Y0050596D01*
X0365920Y0051121D01*
X0366339Y0051656D01*
X0366746Y0052202D01*
X0367139Y0052757D01*
X0367519Y0053321D01*
X0367885Y0053895D01*
X0368236Y0054477D01*
X0368574Y0055068D01*
X0368898Y0055666D01*
X0369206Y0056272D01*
X0369501Y0056886D01*
X0369780Y0057506D01*
X0370044Y0058133D01*
X0370293Y0058766D01*
X0370526Y0059405D01*
X0370744Y0060049D01*
X0370947Y0060699D01*
X0371133Y0061353D01*
X0371304Y0062011D01*
X0371459Y0062674D01*
X0371598Y0063340D01*
X0371720Y0064009D01*
X0371827Y0064681D01*
X0371917Y0065355D01*
X0371991Y0066031D01*
X0372048Y0066709D01*
X0372089Y0067388D01*
X0372114Y0068068D01*
X0372122Y0068748D01*
X0372114Y0069428D01*
X0372089Y0070108D01*
X0372048Y0070787D01*
X0371991Y0071465D01*
X0371917Y0072141D01*
X0371827Y0072815D01*
X0371720Y0073487D01*
X0371598Y0074156D01*
X0371459Y0074822D01*
X0371304Y0075485D01*
X0371133Y0076143D01*
X0370947Y0076797D01*
X0370744Y0077447D01*
X0370526Y0078091D01*
X0370293Y0078730D01*
X0370044Y0079363D01*
X0369780Y0079990D01*
X0369501Y0080610D01*
X0369206Y0081224D01*
X0368898Y0081830D01*
X0368574Y0082428D01*
X0368236Y0083019D01*
X0367885Y0083601D01*
X0367519Y0084175D01*
X0367139Y0084739D01*
X0366746Y0085294D01*
X0366339Y0085840D01*
X0365920Y0086375D01*
X0365487Y0086900D01*
X0365043Y0087415D01*
X0364585Y0087919D01*
X0364116Y0088411D01*
X0363635Y0088892D01*
X0363143Y0089361D01*
X0362639Y0089819D01*
X0362124Y0090263D01*
X0361599Y0090696D01*
X0361064Y0091115D01*
X0360518Y0091522D01*
X0359963Y0091915D01*
X0359399Y0092295D01*
X0358825Y0092661D01*
X0358243Y0093012D01*
X0357652Y0093350D01*
X0357054Y0093674D01*
X0356448Y0093982D01*
X0355834Y0094277D01*
X0355214Y0094556D01*
X0354587Y0094820D01*
X0353954Y0095069D01*
X0353315Y0095302D01*
X0352671Y0095520D01*
X0352021Y0095723D01*
X0351367Y0095909D01*
X0350709Y0096080D01*
X0350046Y0096235D01*
X0349380Y0096374D01*
X0348711Y0096496D01*
X0348039Y0096603D01*
X0347365Y0096693D01*
X0346689Y0096767D01*
X0346011Y0096824D01*
X0345332Y0096865D01*
X0344652Y0096890D01*
X0343972Y0096898D01*
D12*
X0343338Y0101168D02*
X0339602Y0101168D01*
X0337261Y0101168D02*
X0333525Y0101168D01*
X0331184Y0101168D02*
X0327447Y0101168D01*
X0331184Y0101168D02*
X0331184Y0106773D01*
X0337261Y0106773D02*
X0337261Y0101168D01*
X0343338Y0101168D02*
X0343338Y0106773D01*
X0339602Y0106773D01*
X0341470Y0103971D02*
X0343338Y0103971D01*
X0345679Y0105839D02*
X0346613Y0106773D01*
X0348481Y0106773D01*
X0349415Y0105839D01*
X0349415Y0102102D01*
X0348481Y0101168D01*
X0346613Y0101168D01*
X0345679Y0102102D01*
X0351756Y0103971D02*
X0355493Y0103971D01*
X0357833Y0105839D02*
X0358767Y0106773D01*
X0360636Y0106773D01*
X0361570Y0105839D01*
X0361570Y0102102D01*
X0360636Y0101168D01*
X0358767Y0101168D01*
X0357833Y0102102D01*
X0375299Y0085259D02*
X0377168Y0087127D01*
X0379036Y0085259D01*
X0379036Y0081523D01*
X0381377Y0081523D02*
X0381377Y0085259D01*
X0383245Y0087127D01*
X0385113Y0085259D01*
X0385113Y0081523D01*
X0385113Y0084325D02*
X0381377Y0084325D01*
X0379036Y0084325D02*
X0375299Y0084325D01*
X0375299Y0085259D02*
X0375299Y0081523D01*
X0343972Y0048473D02*
X0343439Y0048508D01*
X0342907Y0048555D01*
X0342376Y0048615D01*
X0341847Y0048687D01*
X0341319Y0048772D01*
X0340794Y0048870D01*
X0340272Y0048981D01*
X0339752Y0049104D01*
X0339235Y0049239D01*
X0338721Y0049387D01*
X0338212Y0049547D01*
X0337706Y0049719D01*
X0337204Y0049903D01*
X0336708Y0050100D01*
X0336215Y0050308D01*
X0335729Y0050528D01*
X0335247Y0050759D01*
X0334771Y0051002D01*
X0334301Y0051257D01*
X0333838Y0051522D01*
X0333381Y0051799D01*
X0332931Y0052086D01*
X0332487Y0052385D01*
X0332051Y0052693D01*
X0331623Y0053012D01*
X0331202Y0053342D01*
X0330789Y0053681D01*
X0330385Y0054030D01*
X0329989Y0054389D01*
X0329602Y0054757D01*
X0329224Y0055134D01*
X0328855Y0055521D01*
X0328495Y0055916D01*
X0328145Y0056319D01*
X0327804Y0056731D01*
X0327474Y0057151D01*
X0327154Y0057579D01*
X0326844Y0058014D01*
X0326545Y0058457D01*
X0326256Y0058906D01*
X0324287Y0058906D01*
X0326256Y0078591D02*
X0326545Y0079040D01*
X0326844Y0079483D01*
X0327154Y0079918D01*
X0327474Y0080346D01*
X0327804Y0080766D01*
X0328145Y0081178D01*
X0328495Y0081581D01*
X0328855Y0081976D01*
X0329224Y0082363D01*
X0329602Y0082740D01*
X0329989Y0083108D01*
X0330385Y0083467D01*
X0330789Y0083816D01*
X0331202Y0084155D01*
X0331623Y0084485D01*
X0332051Y0084804D01*
X0332487Y0085112D01*
X0332931Y0085411D01*
X0333381Y0085698D01*
X0333838Y0085975D01*
X0334301Y0086240D01*
X0334771Y0086495D01*
X0335247Y0086738D01*
X0335729Y0086969D01*
X0336215Y0087189D01*
X0336708Y0087397D01*
X0337204Y0087594D01*
X0337706Y0087778D01*
X0338212Y0087950D01*
X0338721Y0088110D01*
X0339235Y0088258D01*
X0339752Y0088393D01*
X0340272Y0088516D01*
X0340794Y0088627D01*
X0341319Y0088725D01*
X0341847Y0088810D01*
X0342376Y0088882D01*
X0342907Y0088942D01*
X0343439Y0088989D01*
X0343972Y0089024D01*
X0326256Y0078591D02*
X0324287Y0078591D01*
X0343972Y0048472D02*
X0344462Y0048478D01*
X0344952Y0048496D01*
X0345441Y0048525D01*
X0345929Y0048567D01*
X0346416Y0048620D01*
X0346902Y0048685D01*
X0347386Y0048761D01*
X0347868Y0048850D01*
X0348347Y0048950D01*
X0348824Y0049061D01*
X0349299Y0049184D01*
X0349770Y0049319D01*
X0350238Y0049464D01*
X0350702Y0049621D01*
X0351162Y0049790D01*
X0351618Y0049969D01*
X0352070Y0050159D01*
X0352516Y0050360D01*
X0352958Y0050572D01*
X0353395Y0050794D01*
X0353826Y0051027D01*
X0354251Y0051271D01*
X0354670Y0051524D01*
X0355084Y0051788D01*
X0355490Y0052061D01*
X0355890Y0052344D01*
X0356283Y0052637D01*
X0356669Y0052939D01*
X0357047Y0053251D01*
X0357417Y0053571D01*
X0357780Y0053901D01*
X0358135Y0054239D01*
X0358481Y0054585D01*
X0358819Y0054940D01*
X0359149Y0055303D01*
X0359469Y0055673D01*
X0359781Y0056051D01*
X0360083Y0056437D01*
X0360376Y0056830D01*
X0360659Y0057230D01*
X0360932Y0057636D01*
X0361196Y0058050D01*
X0361449Y0058469D01*
X0361693Y0058894D01*
X0361926Y0059325D01*
X0362148Y0059762D01*
X0362360Y0060204D01*
X0362561Y0060650D01*
X0362751Y0061102D01*
X0362930Y0061558D01*
X0363099Y0062018D01*
X0363256Y0062482D01*
X0363401Y0062950D01*
X0363536Y0063421D01*
X0363659Y0063896D01*
X0363770Y0064373D01*
X0363870Y0064852D01*
X0363959Y0065334D01*
X0364035Y0065818D01*
X0364100Y0066304D01*
X0364153Y0066791D01*
X0364195Y0067279D01*
X0364224Y0067768D01*
X0364242Y0068258D01*
X0364248Y0068748D01*
X0364242Y0069238D01*
X0364224Y0069728D01*
X0364195Y0070217D01*
X0364153Y0070705D01*
X0364100Y0071192D01*
X0364035Y0071678D01*
X0363959Y0072162D01*
X0363870Y0072644D01*
X0363770Y0073123D01*
X0363659Y0073600D01*
X0363536Y0074075D01*
X0363401Y0074546D01*
X0363256Y0075014D01*
X0363099Y0075478D01*
X0362930Y0075938D01*
X0362751Y0076394D01*
X0362561Y0076846D01*
X0362360Y0077292D01*
X0362148Y0077734D01*
X0361926Y0078171D01*
X0361693Y0078602D01*
X0361449Y0079027D01*
X0361196Y0079446D01*
X0360932Y0079860D01*
X0360659Y0080266D01*
X0360376Y0080666D01*
X0360083Y0081059D01*
X0359781Y0081445D01*
X0359469Y0081823D01*
X0359149Y0082193D01*
X0358819Y0082556D01*
X0358481Y0082911D01*
X0358135Y0083257D01*
X0357780Y0083595D01*
X0357417Y0083925D01*
X0357047Y0084245D01*
X0356669Y0084557D01*
X0356283Y0084859D01*
X0355890Y0085152D01*
X0355490Y0085435D01*
X0355084Y0085708D01*
X0354670Y0085972D01*
X0354251Y0086225D01*
X0353826Y0086469D01*
X0353395Y0086702D01*
X0352958Y0086924D01*
X0352516Y0087136D01*
X0352070Y0087337D01*
X0351618Y0087527D01*
X0351162Y0087706D01*
X0350702Y0087875D01*
X0350238Y0088032D01*
X0349770Y0088177D01*
X0349299Y0088312D01*
X0348824Y0088435D01*
X0348347Y0088546D01*
X0347868Y0088646D01*
X0347386Y0088735D01*
X0346902Y0088811D01*
X0346416Y0088876D01*
X0345929Y0088929D01*
X0345441Y0088971D01*
X0344952Y0089000D01*
X0344462Y0089018D01*
X0343972Y0089024D01*
X0344126Y0122979D02*
X0340389Y0122979D01*
X0338048Y0122979D02*
X0334312Y0122979D01*
X0331971Y0122979D02*
X0328235Y0122979D01*
X0331971Y0122979D02*
X0331971Y0128584D01*
X0338048Y0128584D02*
X0338048Y0122979D01*
X0344126Y0122979D02*
X0344126Y0128584D01*
X0340389Y0128584D01*
X0342257Y0125782D02*
X0344126Y0125782D01*
X0346466Y0127650D02*
X0347400Y0128584D01*
X0349269Y0128584D01*
X0350203Y0127650D01*
X0350203Y0123913D01*
X0349269Y0122979D01*
X0347400Y0122979D01*
X0346466Y0123913D01*
X0352544Y0125782D02*
X0356280Y0125782D01*
X0358621Y0127650D02*
X0358621Y0123913D01*
X0359555Y0122979D01*
X0362357Y0122979D01*
X0362357Y0128584D01*
X0359555Y0128584D01*
X0358621Y0127650D01*
X0369791Y0049568D02*
X0367923Y0047700D01*
X0367923Y0043964D01*
X0371660Y0043964D02*
X0371660Y0047700D01*
X0369791Y0049568D01*
X0374000Y0047700D02*
X0375868Y0049568D01*
X0377737Y0047700D01*
X0377737Y0043964D01*
X0380077Y0043964D02*
X0380077Y0047700D01*
X0381946Y0049568D01*
X0383814Y0047700D01*
X0383814Y0043964D01*
X0374000Y0043964D02*
X0374000Y0047700D01*
X0374000Y0046766D02*
X0377737Y0046766D01*
X0380077Y0046766D02*
X0383814Y0046766D01*
X0371660Y0046766D02*
X0367923Y0046766D01*
X0083972Y0068748D02*
X0083975Y0068993D01*
X0083984Y0069239D01*
X0083999Y0069484D01*
X0084020Y0069728D01*
X0084047Y0069972D01*
X0084080Y0070215D01*
X0084119Y0070458D01*
X0084164Y0070699D01*
X0084215Y0070939D01*
X0084272Y0071178D01*
X0084334Y0071415D01*
X0084403Y0071651D01*
X0084477Y0071885D01*
X0084557Y0072117D01*
X0084642Y0072347D01*
X0084733Y0072575D01*
X0084830Y0072800D01*
X0084932Y0073024D01*
X0085040Y0073244D01*
X0085153Y0073462D01*
X0085271Y0073677D01*
X0085395Y0073889D01*
X0085523Y0074098D01*
X0085657Y0074304D01*
X0085796Y0074506D01*
X0085940Y0074705D01*
X0086089Y0074900D01*
X0086242Y0075092D01*
X0086400Y0075280D01*
X0086562Y0075464D01*
X0086730Y0075643D01*
X0086901Y0075819D01*
X0087077Y0075990D01*
X0087256Y0076158D01*
X0087440Y0076320D01*
X0087628Y0076478D01*
X0087820Y0076631D01*
X0088015Y0076780D01*
X0088214Y0076924D01*
X0088416Y0077063D01*
X0088622Y0077197D01*
X0088831Y0077325D01*
X0089043Y0077449D01*
X0089258Y0077567D01*
X0089476Y0077680D01*
X0089696Y0077788D01*
X0089920Y0077890D01*
X0090145Y0077987D01*
X0090373Y0078078D01*
X0090603Y0078163D01*
X0090835Y0078243D01*
X0091069Y0078317D01*
X0091305Y0078386D01*
X0091542Y0078448D01*
X0091781Y0078505D01*
X0092021Y0078556D01*
X0092262Y0078601D01*
X0092505Y0078640D01*
X0092748Y0078673D01*
X0092992Y0078700D01*
X0093236Y0078721D01*
X0093481Y0078736D01*
X0093727Y0078745D01*
X0093972Y0078748D01*
X0094217Y0078745D01*
X0094463Y0078736D01*
X0094708Y0078721D01*
X0094952Y0078700D01*
X0095196Y0078673D01*
X0095439Y0078640D01*
X0095682Y0078601D01*
X0095923Y0078556D01*
X0096163Y0078505D01*
X0096402Y0078448D01*
X0096639Y0078386D01*
X0096875Y0078317D01*
X0097109Y0078243D01*
X0097341Y0078163D01*
X0097571Y0078078D01*
X0097799Y0077987D01*
X0098024Y0077890D01*
X0098248Y0077788D01*
X0098468Y0077680D01*
X0098686Y0077567D01*
X0098901Y0077449D01*
X0099113Y0077325D01*
X0099322Y0077197D01*
X0099528Y0077063D01*
X0099730Y0076924D01*
X0099929Y0076780D01*
X0100124Y0076631D01*
X0100316Y0076478D01*
X0100504Y0076320D01*
X0100688Y0076158D01*
X0100867Y0075990D01*
X0101043Y0075819D01*
X0101214Y0075643D01*
X0101382Y0075464D01*
X0101544Y0075280D01*
X0101702Y0075092D01*
X0101855Y0074900D01*
X0102004Y0074705D01*
X0102148Y0074506D01*
X0102287Y0074304D01*
X0102421Y0074098D01*
X0102549Y0073889D01*
X0102673Y0073677D01*
X0102791Y0073462D01*
X0102904Y0073244D01*
X0103012Y0073024D01*
X0103114Y0072800D01*
X0103211Y0072575D01*
X0103302Y0072347D01*
X0103387Y0072117D01*
X0103467Y0071885D01*
X0103541Y0071651D01*
X0103610Y0071415D01*
X0103672Y0071178D01*
X0103729Y0070939D01*
X0103780Y0070699D01*
X0103825Y0070458D01*
X0103864Y0070215D01*
X0103897Y0069972D01*
X0103924Y0069728D01*
X0103945Y0069484D01*
X0103960Y0069239D01*
X0103969Y0068993D01*
X0103972Y0068748D01*
X0103969Y0068503D01*
X0103960Y0068257D01*
X0103945Y0068012D01*
X0103924Y0067768D01*
X0103897Y0067524D01*
X0103864Y0067281D01*
X0103825Y0067038D01*
X0103780Y0066797D01*
X0103729Y0066557D01*
X0103672Y0066318D01*
X0103610Y0066081D01*
X0103541Y0065845D01*
X0103467Y0065611D01*
X0103387Y0065379D01*
X0103302Y0065149D01*
X0103211Y0064921D01*
X0103114Y0064696D01*
X0103012Y0064472D01*
X0102904Y0064252D01*
X0102791Y0064034D01*
X0102673Y0063819D01*
X0102549Y0063607D01*
X0102421Y0063398D01*
X0102287Y0063192D01*
X0102148Y0062990D01*
X0102004Y0062791D01*
X0101855Y0062596D01*
X0101702Y0062404D01*
X0101544Y0062216D01*
X0101382Y0062032D01*
X0101214Y0061853D01*
X0101043Y0061677D01*
X0100867Y0061506D01*
X0100688Y0061338D01*
X0100504Y0061176D01*
X0100316Y0061018D01*
X0100124Y0060865D01*
X0099929Y0060716D01*
X0099730Y0060572D01*
X0099528Y0060433D01*
X0099322Y0060299D01*
X0099113Y0060171D01*
X0098901Y0060047D01*
X0098686Y0059929D01*
X0098468Y0059816D01*
X0098248Y0059708D01*
X0098024Y0059606D01*
X0097799Y0059509D01*
X0097571Y0059418D01*
X0097341Y0059333D01*
X0097109Y0059253D01*
X0096875Y0059179D01*
X0096639Y0059110D01*
X0096402Y0059048D01*
X0096163Y0058991D01*
X0095923Y0058940D01*
X0095682Y0058895D01*
X0095439Y0058856D01*
X0095196Y0058823D01*
X0094952Y0058796D01*
X0094708Y0058775D01*
X0094463Y0058760D01*
X0094217Y0058751D01*
X0093972Y0058748D01*
X0093727Y0058751D01*
X0093481Y0058760D01*
X0093236Y0058775D01*
X0092992Y0058796D01*
X0092748Y0058823D01*
X0092505Y0058856D01*
X0092262Y0058895D01*
X0092021Y0058940D01*
X0091781Y0058991D01*
X0091542Y0059048D01*
X0091305Y0059110D01*
X0091069Y0059179D01*
X0090835Y0059253D01*
X0090603Y0059333D01*
X0090373Y0059418D01*
X0090145Y0059509D01*
X0089920Y0059606D01*
X0089696Y0059708D01*
X0089476Y0059816D01*
X0089258Y0059929D01*
X0089043Y0060047D01*
X0088831Y0060171D01*
X0088622Y0060299D01*
X0088416Y0060433D01*
X0088214Y0060572D01*
X0088015Y0060716D01*
X0087820Y0060865D01*
X0087628Y0061018D01*
X0087440Y0061176D01*
X0087256Y0061338D01*
X0087077Y0061506D01*
X0086901Y0061677D01*
X0086730Y0061853D01*
X0086562Y0062032D01*
X0086400Y0062216D01*
X0086242Y0062404D01*
X0086089Y0062596D01*
X0085940Y0062791D01*
X0085796Y0062990D01*
X0085657Y0063192D01*
X0085523Y0063398D01*
X0085395Y0063607D01*
X0085271Y0063819D01*
X0085153Y0064034D01*
X0085040Y0064252D01*
X0084932Y0064472D01*
X0084830Y0064696D01*
X0084733Y0064921D01*
X0084642Y0065149D01*
X0084557Y0065379D01*
X0084477Y0065611D01*
X0084403Y0065845D01*
X0084334Y0066081D01*
X0084272Y0066318D01*
X0084215Y0066557D01*
X0084164Y0066797D01*
X0084119Y0067038D01*
X0084080Y0067281D01*
X0084047Y0067524D01*
X0084020Y0067768D01*
X0083999Y0068012D01*
X0083984Y0068257D01*
X0083975Y0068503D01*
X0083972Y0068748D01*
D13*
X0121492Y0072038D03*
X0146202Y0072038D03*
X0156142Y0068678D03*
X0148302Y0064128D03*
X0158802Y0060698D03*
X0155302Y0058738D03*
X0149352Y0059438D03*
X0147602Y0058948D03*
X0136962Y0058528D03*
X0135212Y0057688D03*
X0170212Y0062588D03*
X0179942Y0066648D03*
X0176302Y0074278D03*
X0174342Y0078548D03*
X0170212Y0079528D03*
D14*
X0152607Y0060208D03*
X0147497Y0057758D03*
X0146657Y0060208D03*
X0143997Y0060208D03*
X0138607Y0060208D03*
X0131047Y0060068D03*
D15*
X0135212Y0057758D03*
X0136962Y0058668D03*
X0142282Y0058668D03*
X0149912Y0059858D03*
X0153832Y0060068D03*
X0154672Y0064618D03*
X0154672Y0064758D03*
X0154672Y0065318D03*
X0154672Y0065458D03*
X0154672Y0066018D03*
X0154672Y0066158D03*
X0154672Y0066718D03*
X0154672Y0068258D03*
X0154672Y0068818D03*
X0154672Y0068958D03*
X0154672Y0069518D03*
X0152292Y0066858D03*
X0149842Y0066508D03*
X0148582Y0066508D03*
X0148582Y0065668D03*
X0146692Y0066718D03*
X0144382Y0066858D03*
X0144312Y0066508D03*
X0144312Y0066368D03*
X0144312Y0065808D03*
X0144312Y0065668D03*
X0144312Y0065108D03*
X0144312Y0064968D03*
X0144312Y0064408D03*
X0142982Y0063358D03*
X0138992Y0065458D03*
X0138992Y0065668D03*
X0142632Y0067208D03*
X0159222Y0067208D03*
X0159222Y0067068D03*
X0159222Y0066858D03*
X0159222Y0066718D03*
X0159222Y0066508D03*
X0173642Y0064058D03*
X0174412Y0063708D03*
X0177212Y0068958D03*
X0176372Y0077568D03*
X0152782Y0073018D03*
X0150612Y0073018D03*
X0150612Y0074768D03*
X0148722Y0074558D03*
X0146832Y0075118D03*
X0145012Y0074908D03*
X0145222Y0073508D03*
X0138712Y0074768D03*
X0137032Y0073158D03*
X0137032Y0073018D03*
X0125832Y0073018D03*
X0124012Y0072808D03*
X0124012Y0072668D03*
X0124012Y0074558D03*
X0122332Y0074768D03*
X0115962Y0074558D03*
X0114282Y0074068D03*
X0114282Y0072808D03*
X0112322Y0074068D03*
D16*
X0115927Y0072038D03*
X0118307Y0072038D03*
X0120057Y0072038D03*
X0123977Y0072038D03*
X0129577Y0072038D03*
X0136857Y0074978D03*
X0148687Y0072038D03*
X0167867Y0070988D03*
X0167937Y0071198D03*
X0176477Y0073928D03*
X0174377Y0078688D03*
X0170317Y0079598D03*
X0176407Y0068188D03*
X0180047Y0066578D03*
X0176967Y0063498D03*
X0159607Y0058738D03*
X0159537Y0058878D03*
X0159537Y0058948D03*
X0159327Y0059578D03*
X0159257Y0059788D03*
X0159187Y0059928D03*
X0159187Y0059998D03*
X0158417Y0059998D03*
X0158347Y0059788D03*
X0158277Y0059648D03*
X0158277Y0059578D03*
X0158067Y0058948D03*
X0158067Y0058878D03*
X0157997Y0058738D03*
X0157927Y0058598D03*
X0156737Y0058598D03*
X0156737Y0058738D03*
X0156737Y0058878D03*
X0156737Y0058948D03*
X0156737Y0059088D03*
X0156737Y0059228D03*
X0156737Y0059298D03*
X0156737Y0059438D03*
X0156737Y0059578D03*
X0156737Y0059648D03*
X0156737Y0059788D03*
X0156737Y0059928D03*
X0156737Y0059998D03*
X0156737Y0060138D03*
X0156107Y0060138D03*
X0156037Y0059928D03*
X0155967Y0059788D03*
X0155897Y0059648D03*
X0155197Y0059648D03*
X0155197Y0059578D03*
X0155197Y0059928D03*
X0155197Y0059998D03*
X0155197Y0060138D03*
X0155197Y0060278D03*
X0155197Y0060628D03*
X0155197Y0060698D03*
X0155197Y0060838D03*
X0154357Y0059788D03*
X0154357Y0059088D03*
X0152607Y0059088D03*
X0152607Y0058948D03*
X0152607Y0058878D03*
X0152607Y0058738D03*
X0152607Y0058598D03*
X0152607Y0059228D03*
X0152607Y0059298D03*
X0152607Y0059438D03*
X0152607Y0059578D03*
X0152607Y0059648D03*
X0152607Y0059788D03*
X0152607Y0059928D03*
X0152607Y0059998D03*
X0152607Y0060138D03*
X0152607Y0060628D03*
X0152607Y0060698D03*
X0152607Y0060978D03*
X0150367Y0060348D03*
X0150367Y0060278D03*
X0150297Y0060488D03*
X0149247Y0059298D03*
X0149247Y0059228D03*
X0149247Y0059088D03*
X0148617Y0059228D03*
X0148617Y0059298D03*
X0148617Y0059438D03*
X0148617Y0059578D03*
X0148547Y0059648D03*
X0147497Y0059648D03*
X0147497Y0059578D03*
X0147497Y0059438D03*
X0147497Y0059298D03*
X0147497Y0059228D03*
X0147497Y0059088D03*
X0147497Y0058598D03*
X0147497Y0058528D03*
X0147497Y0058388D03*
X0147497Y0058248D03*
X0147497Y0058178D03*
X0147497Y0058038D03*
X0147497Y0057898D03*
X0147497Y0057828D03*
X0146727Y0059298D03*
X0146727Y0059438D03*
X0146727Y0059578D03*
X0146727Y0059998D03*
X0147497Y0059788D03*
X0144837Y0059578D03*
X0144837Y0059438D03*
X0144837Y0059298D03*
X0144837Y0058878D03*
X0144837Y0058738D03*
X0144837Y0058598D03*
X0143997Y0058598D03*
X0143997Y0058738D03*
X0143997Y0058878D03*
X0143997Y0058948D03*
X0143997Y0059088D03*
X0143997Y0059228D03*
X0143997Y0059298D03*
X0143997Y0059438D03*
X0143997Y0059578D03*
X0143437Y0060138D03*
X0142877Y0059088D03*
X0144837Y0059998D03*
X0144837Y0060628D03*
X0144837Y0060978D03*
X0140567Y0060138D03*
X0140497Y0060488D03*
X0139307Y0060348D03*
X0139237Y0060138D03*
X0139307Y0059998D03*
X0138607Y0059578D03*
X0138607Y0059438D03*
X0138607Y0059298D03*
X0138607Y0059228D03*
X0138607Y0059088D03*
X0138607Y0058948D03*
X0138607Y0058878D03*
X0138607Y0058738D03*
X0138607Y0058598D03*
X0137487Y0059088D03*
X0137487Y0059228D03*
X0137487Y0059578D03*
X0137487Y0059648D03*
X0138047Y0060138D03*
X0136437Y0059788D03*
X0136367Y0059648D03*
X0136367Y0059578D03*
X0136367Y0059438D03*
X0136367Y0059298D03*
X0136367Y0059228D03*
X0136367Y0059088D03*
X0135667Y0058948D03*
X0135667Y0059438D03*
X0134757Y0059788D03*
X0133917Y0059438D03*
X0133917Y0059298D03*
X0133917Y0059228D03*
X0133917Y0059088D03*
X0133917Y0058948D03*
X0133917Y0058878D03*
X0133917Y0058738D03*
X0133917Y0058598D03*
X0134547Y0058178D03*
X0135807Y0058178D03*
X0132867Y0058948D03*
X0132867Y0059088D03*
X0131887Y0058948D03*
X0131747Y0058528D03*
X0131887Y0059578D03*
X0131887Y0059648D03*
X0130977Y0059648D03*
X0133357Y0060138D03*
X0140567Y0058738D03*
X0151767Y0058948D03*
X0155967Y0065178D03*
D17*
X0157262Y0064128D03*
X0158942Y0065598D03*
X0158802Y0068328D03*
X0152992Y0067978D03*
X0146552Y0066998D03*
X0145012Y0067978D03*
X0148302Y0064478D03*
X0149842Y0060628D03*
X0147952Y0059998D03*
X0142352Y0058878D03*
X0140042Y0059438D03*
X0135212Y0058738D03*
X0135212Y0057828D03*
X0132342Y0059298D03*
X0166292Y0070428D03*
X0166362Y0070498D03*
X0156702Y0072598D03*
X0156702Y0072738D03*
X0150262Y0072388D03*
X0150262Y0072248D03*
X0141092Y0074698D03*
X0140042Y0075328D03*
X0140042Y0075398D03*
X0131992Y0072598D03*
X0114142Y0072738D03*
X0170002Y0062798D03*
X0174762Y0063498D03*
X0176442Y0063848D03*
X0171612Y0066648D03*
X0177562Y0069378D03*
X0179662Y0069448D03*
X0175742Y0074978D03*
X0176302Y0077988D03*
D18*
X0140427Y0063148D03*
X0136927Y0058878D03*
X0135177Y0057898D03*
X0149877Y0058738D03*
X0112077Y0070988D03*
D19*
X0120127Y0075818D03*
X0149667Y0068118D03*
X0149387Y0060558D03*
X0150367Y0060418D03*
X0149247Y0059158D03*
X0149317Y0059018D03*
X0148617Y0059158D03*
X0148617Y0059368D03*
X0148617Y0059508D03*
X0148547Y0059718D03*
X0147497Y0059718D03*
X0147497Y0059508D03*
X0147497Y0059368D03*
X0147497Y0059158D03*
X0147497Y0059018D03*
X0147497Y0058458D03*
X0147497Y0058318D03*
X0147497Y0058108D03*
X0147497Y0057968D03*
X0146727Y0059158D03*
X0146727Y0059718D03*
X0146727Y0059858D03*
X0144837Y0059858D03*
X0144837Y0059718D03*
X0144837Y0060068D03*
X0144837Y0059158D03*
X0144837Y0059018D03*
X0143997Y0059018D03*
X0143997Y0059158D03*
X0143997Y0059368D03*
X0143997Y0059508D03*
X0143997Y0058808D03*
X0143997Y0058668D03*
X0142877Y0059158D03*
X0142877Y0059718D03*
X0141897Y0059858D03*
X0140567Y0059858D03*
X0140567Y0060418D03*
X0139237Y0060208D03*
X0139237Y0060068D03*
X0139307Y0059858D03*
X0138607Y0059508D03*
X0138607Y0059368D03*
X0138607Y0059158D03*
X0138607Y0059018D03*
X0138607Y0058808D03*
X0138607Y0058668D03*
X0137487Y0059158D03*
X0137487Y0059368D03*
X0137487Y0059508D03*
X0136367Y0059508D03*
X0136367Y0059368D03*
X0136367Y0059158D03*
X0136437Y0059018D03*
X0135807Y0058318D03*
X0135667Y0059858D03*
X0133917Y0059508D03*
X0133917Y0059368D03*
X0133917Y0059158D03*
X0133917Y0059018D03*
X0133917Y0058808D03*
X0133917Y0058668D03*
X0132867Y0059018D03*
X0132867Y0059158D03*
X0131887Y0059158D03*
X0131887Y0059018D03*
X0131887Y0059718D03*
X0130977Y0059718D03*
X0128947Y0059718D03*
X0140567Y0059018D03*
X0151767Y0059018D03*
X0152607Y0059018D03*
X0152607Y0059158D03*
X0152607Y0059368D03*
X0152607Y0059508D03*
X0152607Y0059718D03*
X0152607Y0059858D03*
X0152607Y0060068D03*
X0153377Y0059858D03*
X0154287Y0059858D03*
X0154427Y0059158D03*
X0154357Y0059018D03*
X0155197Y0059718D03*
X0155197Y0059858D03*
X0155197Y0060208D03*
X0155197Y0060418D03*
X0155197Y0060558D03*
X0156107Y0060068D03*
X0155827Y0059508D03*
X0155757Y0059368D03*
X0156737Y0059368D03*
X0156737Y0059508D03*
X0156737Y0059718D03*
X0156737Y0059858D03*
X0156737Y0060068D03*
X0156737Y0059158D03*
X0156737Y0059018D03*
X0156737Y0058808D03*
X0156737Y0058668D03*
X0157997Y0058668D03*
X0157997Y0058808D03*
X0158067Y0059018D03*
X0158347Y0059718D03*
X0158417Y0060068D03*
X0158487Y0060208D03*
X0159117Y0060208D03*
X0159257Y0059718D03*
X0159537Y0058808D03*
X0159607Y0058668D03*
X0152607Y0058668D03*
X0152607Y0058808D03*
X0152607Y0060908D03*
X0179697Y0069868D03*
D20*
X0165977Y0069658D03*
X0158697Y0065318D03*
X0152957Y0067908D03*
X0145047Y0067908D03*
X0137277Y0073508D03*
X0131957Y0073018D03*
X0137837Y0075818D03*
X0113267Y0075818D03*
X0139937Y0060558D03*
X0139937Y0059718D03*
X0142387Y0059368D03*
X0135177Y0057968D03*
X0175007Y0063358D03*
X0176267Y0078268D03*
X0175777Y0078968D03*
D21*
X0176267Y0078198D03*
X0169897Y0079248D03*
X0166537Y0071198D03*
X0166047Y0069798D03*
X0165977Y0069728D03*
X0167867Y0069098D03*
X0167867Y0069028D03*
X0165487Y0066998D03*
X0177807Y0069728D03*
X0158767Y0059438D03*
X0150157Y0064338D03*
X0140007Y0060698D03*
X0139937Y0060628D03*
X0139937Y0059648D03*
X0140007Y0059578D03*
X0143437Y0059788D03*
X0135177Y0058038D03*
X0132237Y0058738D03*
X0137697Y0067978D03*
X0127407Y0072178D03*
X0131957Y0072948D03*
X0138957Y0074838D03*
D22*
X0141232Y0075818D03*
X0152782Y0074908D03*
X0167902Y0070918D03*
X0176442Y0068258D03*
X0170982Y0066858D03*
X0174832Y0062518D03*
X0158802Y0060908D03*
X0156632Y0060908D03*
X0156002Y0059858D03*
X0155932Y0059718D03*
X0152642Y0060768D03*
X0150332Y0060208D03*
X0149282Y0059368D03*
X0148582Y0059018D03*
X0146692Y0059018D03*
X0145712Y0059018D03*
X0143402Y0060068D03*
X0142842Y0059018D03*
X0139342Y0060418D03*
X0138012Y0060068D03*
X0137452Y0059718D03*
X0137452Y0059018D03*
X0136402Y0059718D03*
X0135772Y0058108D03*
X0134582Y0058108D03*
X0129962Y0059718D03*
X0141582Y0065318D03*
X0150822Y0067068D03*
X0144802Y0060908D03*
X0144802Y0060768D03*
X0176442Y0074068D03*
X0174342Y0078618D03*
X0118272Y0075818D03*
D23*
X0128142Y0074838D03*
X0154392Y0069798D03*
X0176582Y0073788D03*
X0180012Y0075538D03*
X0179732Y0069938D03*
X0159082Y0060348D03*
X0159082Y0060278D03*
X0158522Y0060278D03*
X0158522Y0060348D03*
X0158382Y0059928D03*
X0159292Y0059648D03*
X0159642Y0058598D03*
X0155162Y0059788D03*
X0155162Y0060348D03*
X0155162Y0060488D03*
X0154392Y0059648D03*
X0153342Y0059648D03*
X0153342Y0059788D03*
X0151592Y0058528D03*
X0150472Y0058948D03*
X0146692Y0059088D03*
X0146692Y0059228D03*
X0146692Y0059648D03*
X0146692Y0059788D03*
X0146692Y0059928D03*
X0146692Y0060138D03*
X0145642Y0060138D03*
X0145642Y0059998D03*
X0145642Y0059928D03*
X0145642Y0059788D03*
X0145642Y0059648D03*
X0145642Y0059578D03*
X0145642Y0059438D03*
X0145642Y0059298D03*
X0145642Y0059228D03*
X0145642Y0059088D03*
X0144032Y0060138D03*
X0142912Y0059648D03*
X0141862Y0059788D03*
X0141792Y0059648D03*
X0140532Y0059788D03*
X0140532Y0059928D03*
X0140532Y0059998D03*
X0140532Y0060278D03*
X0140532Y0060348D03*
X0140532Y0059228D03*
X0140532Y0059088D03*
X0140532Y0058948D03*
X0140532Y0058878D03*
X0140532Y0058598D03*
X0138642Y0060138D03*
X0137522Y0059438D03*
X0137522Y0059298D03*
X0135772Y0058388D03*
X0135842Y0058248D03*
X0134512Y0058248D03*
X0134722Y0059578D03*
X0134722Y0059648D03*
X0131012Y0059578D03*
X0131012Y0059438D03*
X0131012Y0059298D03*
X0131012Y0059228D03*
X0131012Y0059088D03*
X0131012Y0058948D03*
X0131012Y0058878D03*
X0131012Y0058738D03*
X0131012Y0058598D03*
X0129962Y0058598D03*
X0129962Y0058738D03*
X0129962Y0058878D03*
X0129962Y0058948D03*
X0129962Y0059088D03*
X0129962Y0059228D03*
X0129962Y0059298D03*
X0129962Y0059438D03*
X0129962Y0059578D03*
X0129962Y0059648D03*
X0128912Y0059648D03*
X0128912Y0059578D03*
X0128912Y0059438D03*
X0128912Y0059298D03*
X0128912Y0059228D03*
X0128912Y0059088D03*
X0128912Y0058948D03*
X0128912Y0058878D03*
X0128912Y0058738D03*
X0128912Y0058598D03*
D24*
X0128912Y0058668D03*
X0128912Y0058808D03*
X0128912Y0059018D03*
X0128912Y0059158D03*
X0128912Y0059368D03*
X0128912Y0059508D03*
X0129962Y0059508D03*
X0129962Y0059368D03*
X0129962Y0059158D03*
X0129962Y0059018D03*
X0129962Y0058808D03*
X0129962Y0058668D03*
X0131012Y0058668D03*
X0131012Y0058808D03*
X0131012Y0059018D03*
X0131012Y0059158D03*
X0131012Y0059368D03*
X0131012Y0059508D03*
X0133322Y0060208D03*
X0134722Y0059718D03*
X0134722Y0059508D03*
X0135632Y0059018D03*
X0134512Y0058318D03*
X0138012Y0060208D03*
X0138642Y0060068D03*
X0140532Y0060068D03*
X0140532Y0060208D03*
X0140532Y0059158D03*
X0140532Y0058808D03*
X0140532Y0058668D03*
X0141862Y0059718D03*
X0144032Y0060068D03*
X0145642Y0060068D03*
X0145642Y0060208D03*
X0145642Y0059858D03*
X0145642Y0059718D03*
X0145642Y0059508D03*
X0145642Y0059368D03*
X0145642Y0059158D03*
X0146692Y0059368D03*
X0146692Y0059508D03*
X0146692Y0060068D03*
X0152642Y0060558D03*
X0153342Y0059718D03*
X0154392Y0059718D03*
X0155162Y0059508D03*
X0155162Y0059368D03*
X0155162Y0060068D03*
X0155162Y0060768D03*
X0155162Y0060908D03*
X0158382Y0059858D03*
X0159222Y0059858D03*
X0152922Y0068118D03*
X0167972Y0071268D03*
X0176512Y0073858D03*
X0137662Y0068118D03*
X0120092Y0077708D03*
D25*
X0134302Y0072038D03*
X0139062Y0072878D03*
X0141232Y0072038D03*
X0142632Y0072878D03*
X0154322Y0072038D03*
X0159012Y0072038D03*
X0146692Y0067978D03*
X0144802Y0060838D03*
X0144802Y0060698D03*
X0143962Y0059648D03*
X0142772Y0058948D03*
X0139272Y0059928D03*
X0139272Y0060278D03*
X0138572Y0059648D03*
X0137382Y0058948D03*
X0136472Y0058948D03*
X0135632Y0058878D03*
X0134792Y0059438D03*
X0133882Y0059578D03*
X0133882Y0059648D03*
X0134582Y0058388D03*
X0132552Y0058528D03*
X0131712Y0058598D03*
X0131922Y0059788D03*
X0128982Y0059788D03*
X0148232Y0058528D03*
X0148582Y0059088D03*
X0148512Y0059788D03*
X0149772Y0060978D03*
X0152642Y0060838D03*
X0155862Y0059578D03*
X0156072Y0059998D03*
X0165242Y0066578D03*
X0170912Y0066928D03*
X0176442Y0073998D03*
D26*
X0170422Y0075958D03*
X0170422Y0076308D03*
X0170282Y0076308D03*
X0169722Y0076308D03*
X0169582Y0076308D03*
X0168322Y0075818D03*
X0151872Y0075958D03*
X0151732Y0075958D03*
X0144032Y0075958D03*
X0139972Y0075958D03*
X0139832Y0075958D03*
X0137872Y0075958D03*
X0137732Y0075958D03*
X0127022Y0075958D03*
X0126882Y0075958D03*
X0116732Y0075958D03*
X0113372Y0075958D03*
X0113232Y0075958D03*
X0145572Y0067068D03*
X0149282Y0068118D03*
X0151032Y0066858D03*
X0155722Y0065318D03*
X0156982Y0065108D03*
X0157122Y0065108D03*
X0170072Y0062518D03*
X0172032Y0066718D03*
X0153832Y0058458D03*
X0146482Y0058458D03*
X0137032Y0058458D03*
X0132972Y0059718D03*
D27*
X0132552Y0058458D03*
X0131712Y0058458D03*
X0136892Y0058458D03*
X0142212Y0058458D03*
X0142352Y0058458D03*
X0146342Y0058458D03*
X0148162Y0058458D03*
X0149702Y0058458D03*
X0151592Y0058458D03*
X0153692Y0058458D03*
X0149142Y0060418D03*
X0142002Y0065318D03*
X0145292Y0068118D03*
X0150402Y0067068D03*
X0155792Y0068468D03*
X0156842Y0065108D03*
X0165102Y0066368D03*
X0166012Y0066718D03*
X0172942Y0064058D03*
X0172242Y0075608D03*
X0170142Y0076308D03*
X0170002Y0076308D03*
X0169862Y0076308D03*
X0151592Y0075958D03*
X0151452Y0075958D03*
X0151312Y0075958D03*
X0147952Y0074558D03*
X0143892Y0075958D03*
X0143752Y0075958D03*
X0143612Y0075958D03*
X0139692Y0075958D03*
X0138012Y0075958D03*
X0137592Y0075958D03*
X0138362Y0072808D03*
X0127162Y0075958D03*
X0126742Y0075958D03*
X0126602Y0075958D03*
X0123312Y0074558D03*
X0119742Y0075818D03*
X0117152Y0074908D03*
X0116942Y0074908D03*
X0116942Y0075958D03*
X0116592Y0075958D03*
X0116452Y0075958D03*
X0113512Y0075958D03*
X0113092Y0075958D03*
D28*
X0128247Y0074768D03*
X0152957Y0074768D03*
X0168077Y0071758D03*
X0175987Y0067908D03*
X0176757Y0073368D03*
X0170457Y0079668D03*
X0157437Y0064058D03*
X0157087Y0064058D03*
X0149947Y0058458D03*
X0135177Y0059018D03*
D29*
X0135142Y0058458D03*
X0132202Y0058808D03*
X0140462Y0067208D03*
X0131992Y0073158D03*
X0138362Y0074418D03*
X0133952Y0077218D03*
X0129962Y0077218D03*
X0156702Y0073158D03*
X0156702Y0073018D03*
X0166502Y0071268D03*
X0167902Y0068958D03*
X0165452Y0067208D03*
X0165452Y0067068D03*
X0177912Y0069868D03*
X0158802Y0059368D03*
D30*
X0159677Y0058528D03*
X0156737Y0058528D03*
X0152607Y0058528D03*
X0152607Y0060488D03*
X0145677Y0058528D03*
X0144837Y0058528D03*
X0143997Y0058528D03*
X0144837Y0060488D03*
X0138607Y0058528D03*
X0135247Y0060278D03*
X0133917Y0058528D03*
X0155897Y0068538D03*
X0168077Y0071688D03*
X0176687Y0073438D03*
X0176757Y0073298D03*
X0179767Y0070078D03*
X0170527Y0067138D03*
X0177037Y0063428D03*
X0170457Y0062448D03*
X0174377Y0078898D03*
D31*
X0180082Y0075678D03*
X0178682Y0075398D03*
X0167972Y0075748D03*
X0159082Y0077428D03*
X0158522Y0077428D03*
X0155022Y0077428D03*
X0154882Y0077428D03*
X0151872Y0074978D03*
X0151732Y0074978D03*
X0152082Y0071898D03*
X0152222Y0071898D03*
X0150332Y0071898D03*
X0149072Y0072038D03*
X0141022Y0075888D03*
X0134022Y0077428D03*
X0133882Y0077428D03*
X0130172Y0077428D03*
X0130032Y0077428D03*
X0127722Y0075888D03*
X0127022Y0074978D03*
X0128282Y0074698D03*
X0124782Y0072948D03*
X0127232Y0071898D03*
X0127372Y0071898D03*
X0137872Y0071898D03*
X0139832Y0067978D03*
X0139972Y0067978D03*
X0140532Y0067978D03*
X0140672Y0067978D03*
X0141582Y0067278D03*
X0141582Y0064898D03*
X0141022Y0064898D03*
X0141932Y0063988D03*
X0144032Y0064198D03*
X0144172Y0064198D03*
X0146482Y0064198D03*
X0146832Y0064198D03*
X0146972Y0064198D03*
X0149632Y0066578D03*
X0149772Y0066578D03*
X0154532Y0064198D03*
X0154882Y0064198D03*
X0140182Y0060978D03*
X0137172Y0060278D03*
X0140322Y0058528D03*
X0132622Y0060278D03*
X0131432Y0058948D03*
X0137732Y0067278D03*
X0159432Y0058528D03*
X0174832Y0062448D03*
X0172732Y0066648D03*
X0168182Y0072178D03*
X0120022Y0076378D03*
X0111622Y0074978D03*
X0111482Y0074978D03*
X0113582Y0071828D03*
X0113372Y0070078D03*
X0113232Y0070078D03*
X0113022Y0070078D03*
D32*
X0123662Y0077638D03*
X0142492Y0072948D03*
X0148372Y0077638D03*
X0165102Y0075678D03*
X0174342Y0078828D03*
X0176652Y0073578D03*
X0168042Y0071548D03*
X0168042Y0071478D03*
X0176092Y0067978D03*
X0157122Y0069728D03*
X0155792Y0065248D03*
X0144802Y0061048D03*
X0142282Y0060278D03*
X0140602Y0058528D03*
X0136892Y0060278D03*
X0131012Y0058528D03*
X0129962Y0058528D03*
X0128982Y0058528D03*
X0129192Y0060278D03*
X0130242Y0060278D03*
X0149212Y0060488D03*
X0153762Y0060278D03*
X0157962Y0058528D03*
D33*
X0158452Y0060138D03*
X0159152Y0060138D03*
X0155302Y0058528D03*
X0151802Y0059088D03*
X0151802Y0059228D03*
X0151802Y0059298D03*
X0151802Y0059438D03*
X0151802Y0059578D03*
X0151802Y0059648D03*
X0151802Y0059788D03*
X0151802Y0059928D03*
X0151802Y0059998D03*
X0151802Y0060138D03*
X0151802Y0060278D03*
X0151802Y0060348D03*
X0151802Y0060488D03*
X0151802Y0060628D03*
X0151802Y0060698D03*
X0151802Y0060838D03*
X0151802Y0060978D03*
X0144802Y0060138D03*
X0144802Y0059928D03*
X0144802Y0059788D03*
X0144802Y0059648D03*
X0144802Y0059228D03*
X0144802Y0059088D03*
X0144802Y0058948D03*
X0135702Y0059578D03*
X0135702Y0059648D03*
X0135702Y0059788D03*
X0131852Y0059088D03*
X0167902Y0071128D03*
X0152852Y0074838D03*
D34*
X0156667Y0072038D03*
X0167797Y0070428D03*
X0167867Y0070498D03*
X0176757Y0068538D03*
X0179697Y0069728D03*
X0176267Y0074348D03*
X0176757Y0076448D03*
X0176687Y0076588D03*
X0176617Y0076728D03*
X0176617Y0076798D03*
X0176547Y0076938D03*
X0174307Y0078478D03*
X0139867Y0075888D03*
X0136997Y0075048D03*
X0131467Y0073298D03*
X0131957Y0072038D03*
X0156597Y0060698D03*
X0158767Y0060628D03*
X0155337Y0058878D03*
X0153797Y0058528D03*
X0142247Y0058528D03*
X0139447Y0060488D03*
X0132587Y0058598D03*
X0174937Y0062588D03*
D35*
X0174272Y0063778D03*
X0174062Y0063848D03*
X0173782Y0063988D03*
X0171192Y0066788D03*
X0167832Y0070078D03*
X0159082Y0072178D03*
X0159012Y0072248D03*
X0159012Y0072388D03*
X0159012Y0072528D03*
X0159082Y0072598D03*
X0159082Y0072738D03*
X0159082Y0072878D03*
X0159012Y0072948D03*
X0159012Y0073088D03*
X0159012Y0073228D03*
X0159082Y0073298D03*
X0159082Y0073438D03*
X0159082Y0073578D03*
X0159012Y0073648D03*
X0159012Y0073788D03*
X0159012Y0073928D03*
X0159082Y0073998D03*
X0159082Y0074138D03*
X0159082Y0074278D03*
X0159012Y0074348D03*
X0159012Y0074488D03*
X0159012Y0074628D03*
X0159082Y0074698D03*
X0159082Y0074838D03*
X0159082Y0074978D03*
X0159012Y0075048D03*
X0159012Y0075188D03*
X0159012Y0075328D03*
X0159082Y0075398D03*
X0159082Y0075538D03*
X0159012Y0075748D03*
X0159012Y0075888D03*
X0159012Y0076028D03*
X0159082Y0076238D03*
X0157892Y0075888D03*
X0157822Y0075678D03*
X0157822Y0075538D03*
X0157752Y0075398D03*
X0157752Y0075328D03*
X0157682Y0075188D03*
X0157612Y0074978D03*
X0157612Y0074838D03*
X0157542Y0074698D03*
X0157542Y0074628D03*
X0157472Y0074488D03*
X0157402Y0074278D03*
X0157402Y0074138D03*
X0157332Y0073998D03*
X0157332Y0073928D03*
X0155932Y0074348D03*
X0155862Y0074628D03*
X0155792Y0074838D03*
X0155722Y0075048D03*
X0155652Y0075328D03*
X0154322Y0075328D03*
X0154322Y0075398D03*
X0154322Y0075538D03*
X0154322Y0075678D03*
X0154322Y0075748D03*
X0154322Y0075888D03*
X0154322Y0076028D03*
X0154322Y0076098D03*
X0154322Y0076238D03*
X0154322Y0075188D03*
X0154322Y0075048D03*
X0154322Y0074978D03*
X0154322Y0074838D03*
X0154322Y0074698D03*
X0154322Y0074628D03*
X0154322Y0074488D03*
X0154322Y0074348D03*
X0154322Y0074278D03*
X0154322Y0074138D03*
X0154322Y0073998D03*
X0154322Y0073928D03*
X0154322Y0073788D03*
X0154322Y0073648D03*
X0154322Y0073578D03*
X0154322Y0073438D03*
X0154322Y0073298D03*
X0154322Y0073228D03*
X0154322Y0073088D03*
X0154322Y0072948D03*
X0154322Y0072878D03*
X0154322Y0072738D03*
X0154322Y0072598D03*
X0154322Y0072528D03*
X0154322Y0072388D03*
X0154322Y0072248D03*
X0154322Y0072178D03*
X0150262Y0072038D03*
X0142772Y0074488D03*
X0142772Y0074628D03*
X0142842Y0074838D03*
X0134302Y0074838D03*
X0134302Y0074698D03*
X0134302Y0074628D03*
X0134302Y0074488D03*
X0134302Y0074348D03*
X0134302Y0074278D03*
X0134302Y0074138D03*
X0134302Y0073998D03*
X0134302Y0073928D03*
X0134302Y0073788D03*
X0134302Y0073648D03*
X0134302Y0073578D03*
X0134302Y0073438D03*
X0134302Y0073298D03*
X0134302Y0073228D03*
X0134302Y0073088D03*
X0134302Y0072948D03*
X0134302Y0072878D03*
X0134302Y0072738D03*
X0134302Y0072598D03*
X0134302Y0072528D03*
X0134302Y0072388D03*
X0134302Y0072248D03*
X0134302Y0072178D03*
X0132552Y0073788D03*
X0132622Y0073998D03*
X0132692Y0074278D03*
X0132692Y0074348D03*
X0132762Y0074488D03*
X0132762Y0074628D03*
X0132832Y0074698D03*
X0132832Y0074838D03*
X0132902Y0074978D03*
X0132902Y0075048D03*
X0132972Y0075188D03*
X0133042Y0075328D03*
X0133042Y0075398D03*
X0133042Y0075538D03*
X0133112Y0075678D03*
X0133112Y0075748D03*
X0134302Y0075748D03*
X0134302Y0075678D03*
X0134302Y0075538D03*
X0134302Y0075398D03*
X0134302Y0075328D03*
X0134302Y0075188D03*
X0134302Y0075048D03*
X0134302Y0074978D03*
X0134302Y0075888D03*
X0134302Y0076028D03*
X0134302Y0076098D03*
X0131012Y0075048D03*
X0131082Y0074838D03*
X0130872Y0075538D03*
X0130802Y0075748D03*
X0129612Y0075748D03*
X0129612Y0075678D03*
X0129612Y0075538D03*
X0129612Y0075398D03*
X0129612Y0075328D03*
X0129612Y0075188D03*
X0129612Y0075048D03*
X0129612Y0074978D03*
X0129612Y0074838D03*
X0129612Y0074698D03*
X0129612Y0074628D03*
X0129612Y0074488D03*
X0129612Y0074348D03*
X0129612Y0074278D03*
X0129612Y0074138D03*
X0129612Y0073998D03*
X0129612Y0073928D03*
X0129612Y0073788D03*
X0129612Y0073648D03*
X0129612Y0073578D03*
X0129612Y0073438D03*
X0129612Y0073298D03*
X0129612Y0073228D03*
X0129612Y0073088D03*
X0129612Y0072948D03*
X0129612Y0072878D03*
X0129612Y0072738D03*
X0129612Y0072598D03*
X0129612Y0072528D03*
X0129612Y0072388D03*
X0129612Y0072248D03*
X0129612Y0072178D03*
X0124012Y0072598D03*
X0120092Y0076588D03*
X0114422Y0074698D03*
X0114422Y0074628D03*
X0114422Y0074488D03*
X0114422Y0074348D03*
X0114282Y0073088D03*
X0114352Y0072948D03*
X0114492Y0071828D03*
X0114562Y0071688D03*
X0114632Y0071548D03*
X0114632Y0071478D03*
X0114632Y0071338D03*
X0111762Y0071338D03*
X0111762Y0071478D03*
X0111762Y0071548D03*
X0112182Y0074348D03*
X0112182Y0074488D03*
X0112182Y0074628D03*
X0112182Y0074698D03*
X0112252Y0074838D03*
X0129612Y0075888D03*
X0129612Y0076028D03*
X0129612Y0076098D03*
X0129612Y0076238D03*
X0154672Y0068188D03*
X0154672Y0068048D03*
X0154672Y0067628D03*
X0148582Y0065598D03*
X0148232Y0064198D03*
X0142982Y0063778D03*
X0142982Y0063638D03*
X0142982Y0063428D03*
X0142702Y0065178D03*
X0142772Y0066438D03*
X0142772Y0066648D03*
X0142772Y0066788D03*
X0142772Y0066928D03*
X0142772Y0066998D03*
X0140602Y0066998D03*
X0140602Y0066928D03*
X0140532Y0066788D03*
X0140532Y0066648D03*
X0140602Y0066578D03*
X0140602Y0066438D03*
X0136612Y0066578D03*
X0136612Y0066648D03*
X0136612Y0066788D03*
X0136612Y0066928D03*
X0140112Y0063638D03*
X0149562Y0059578D03*
X0149912Y0058528D03*
X0153832Y0060138D03*
X0155442Y0059228D03*
X0156492Y0060278D03*
X0156492Y0060348D03*
X0136962Y0058598D03*
X0135352Y0059088D03*
X0177142Y0068888D03*
X0177072Y0075888D03*
X0176442Y0077288D03*
X0176372Y0077428D03*
X0176372Y0077498D03*
X0175182Y0079388D03*
D36*
X0174937Y0079528D03*
X0168287Y0076238D03*
X0165207Y0075538D03*
X0176407Y0074138D03*
X0167867Y0070848D03*
X0167867Y0070778D03*
X0176547Y0068328D03*
X0176617Y0068398D03*
X0179697Y0069798D03*
X0158767Y0060838D03*
X0155267Y0058598D03*
X0154287Y0058948D03*
X0151627Y0058598D03*
X0150297Y0060138D03*
X0149387Y0058948D03*
X0148477Y0058948D03*
X0146587Y0058948D03*
X0146377Y0058528D03*
X0139377Y0059788D03*
X0132727Y0059228D03*
X0131957Y0059228D03*
X0130907Y0059788D03*
X0136437Y0065038D03*
X0120127Y0076448D03*
D37*
X0116662Y0075748D03*
X0126112Y0074978D03*
X0131992Y0072878D03*
X0144802Y0072878D03*
X0156702Y0072878D03*
X0156702Y0072948D03*
X0166502Y0071128D03*
X0166082Y0069938D03*
X0167832Y0069238D03*
X0165522Y0066928D03*
X0158802Y0065388D03*
X0149702Y0068048D03*
X0148862Y0067138D03*
X0142492Y0064898D03*
X0140392Y0063988D03*
X0142702Y0063148D03*
X0135072Y0059998D03*
X0135072Y0059928D03*
X0135142Y0058528D03*
X0148022Y0058878D03*
X0149842Y0058878D03*
X0153902Y0059228D03*
X0153902Y0059298D03*
X0153902Y0059438D03*
X0153902Y0059578D03*
X0174902Y0063428D03*
X0177702Y0069588D03*
X0179732Y0069378D03*
X0114352Y0070988D03*
X0113302Y0070148D03*
D38*
X0114597Y0071198D03*
X0111797Y0071198D03*
X0111797Y0071688D03*
X0118307Y0072178D03*
X0118307Y0072248D03*
X0118307Y0072388D03*
X0118307Y0072528D03*
X0118307Y0072598D03*
X0118307Y0072738D03*
X0118307Y0072878D03*
X0118307Y0072948D03*
X0118307Y0073088D03*
X0118307Y0073228D03*
X0118307Y0073298D03*
X0118307Y0073438D03*
X0118307Y0073578D03*
X0118307Y0073648D03*
X0118307Y0073788D03*
X0118307Y0073928D03*
X0118307Y0073998D03*
X0118307Y0074138D03*
X0118307Y0074278D03*
X0118307Y0074348D03*
X0118307Y0074488D03*
X0124047Y0074698D03*
X0124047Y0074838D03*
X0124047Y0074978D03*
X0124047Y0075398D03*
X0124047Y0075538D03*
X0124047Y0075678D03*
X0124047Y0076098D03*
X0124047Y0076238D03*
X0124047Y0076378D03*
X0124047Y0076798D03*
X0124047Y0076938D03*
X0124047Y0077078D03*
X0124047Y0073438D03*
X0124047Y0073298D03*
X0124047Y0072878D03*
X0124047Y0072738D03*
X0124047Y0072178D03*
X0136997Y0073088D03*
X0148757Y0073088D03*
X0148757Y0072948D03*
X0148757Y0072878D03*
X0148757Y0072738D03*
X0148757Y0072598D03*
X0148757Y0072528D03*
X0148757Y0072388D03*
X0148757Y0072248D03*
X0148757Y0072178D03*
X0148757Y0073228D03*
X0148757Y0073298D03*
X0148757Y0073438D03*
X0148757Y0073578D03*
X0148757Y0074628D03*
X0148757Y0074698D03*
X0148757Y0074838D03*
X0148757Y0074978D03*
X0148757Y0075048D03*
X0148757Y0075188D03*
X0148757Y0075328D03*
X0148757Y0075398D03*
X0148757Y0075538D03*
X0148757Y0075678D03*
X0148757Y0075748D03*
X0148757Y0075888D03*
X0148757Y0076028D03*
X0148757Y0076098D03*
X0148757Y0076238D03*
X0148757Y0076378D03*
X0148757Y0076448D03*
X0148757Y0076588D03*
X0148757Y0076728D03*
X0148757Y0076798D03*
X0148757Y0076938D03*
X0148757Y0077078D03*
X0148757Y0077148D03*
X0148757Y0077288D03*
X0148757Y0077428D03*
X0157647Y0075048D03*
X0159047Y0075678D03*
X0159047Y0076098D03*
X0152747Y0073228D03*
X0167797Y0069938D03*
X0154707Y0067978D03*
X0154707Y0067838D03*
X0154707Y0067698D03*
X0152957Y0068048D03*
X0152257Y0066788D03*
X0152257Y0066648D03*
X0152257Y0066578D03*
X0152257Y0066438D03*
X0152257Y0066298D03*
X0152257Y0066228D03*
X0152257Y0066088D03*
X0152257Y0065948D03*
X0152257Y0065878D03*
X0152257Y0065738D03*
X0152257Y0065598D03*
X0152257Y0065528D03*
X0152257Y0065388D03*
X0152257Y0065248D03*
X0152257Y0065178D03*
X0152257Y0065038D03*
X0152257Y0064898D03*
X0152257Y0064828D03*
X0152257Y0064688D03*
X0152257Y0064548D03*
X0152257Y0064478D03*
X0152257Y0064338D03*
X0148547Y0065248D03*
X0148547Y0065388D03*
X0148547Y0065528D03*
X0144347Y0065598D03*
X0144347Y0065738D03*
X0144347Y0065878D03*
X0144347Y0066298D03*
X0144347Y0066438D03*
X0144347Y0066578D03*
X0144347Y0065178D03*
X0144347Y0065038D03*
X0144347Y0064898D03*
X0144347Y0064478D03*
X0144347Y0064338D03*
X0142947Y0063848D03*
X0140147Y0063778D03*
X0140147Y0063498D03*
X0140147Y0063428D03*
X0138957Y0066788D03*
X0140707Y0067138D03*
X0142807Y0066578D03*
X0145047Y0068048D03*
X0136647Y0066998D03*
X0142247Y0058598D03*
X0153797Y0058598D03*
X0176057Y0074628D03*
D39*
X0175917Y0074838D03*
X0176337Y0077778D03*
X0175427Y0079248D03*
X0170037Y0079388D03*
X0152677Y0072878D03*
X0152117Y0072038D03*
X0147217Y0073578D03*
X0147147Y0073438D03*
X0147077Y0073298D03*
X0147007Y0073228D03*
X0147147Y0074628D03*
X0147007Y0074838D03*
X0146937Y0074978D03*
X0146867Y0075048D03*
X0146657Y0075328D03*
X0146587Y0075398D03*
X0146517Y0075538D03*
X0146447Y0075678D03*
X0144977Y0074978D03*
X0145117Y0073228D03*
X0145047Y0073088D03*
X0143017Y0075048D03*
X0141197Y0074488D03*
X0138607Y0075048D03*
X0137067Y0073298D03*
X0137067Y0072878D03*
X0131957Y0072248D03*
X0125937Y0074838D03*
X0122437Y0074628D03*
X0122297Y0074838D03*
X0122157Y0074978D03*
X0122157Y0075048D03*
X0122017Y0075188D03*
X0121947Y0075328D03*
X0121877Y0075398D03*
X0121807Y0075538D03*
X0121667Y0075678D03*
X0120127Y0076728D03*
X0120127Y0076798D03*
X0118237Y0074698D03*
X0114247Y0075048D03*
X0113337Y0075888D03*
X0122297Y0073228D03*
X0122437Y0073438D03*
X0122507Y0073578D03*
X0114527Y0071128D03*
X0137697Y0068048D03*
X0140707Y0066228D03*
X0138957Y0065738D03*
X0142667Y0066228D03*
X0144347Y0066928D03*
X0144417Y0066998D03*
X0146657Y0066788D03*
X0148687Y0066998D03*
X0141687Y0068048D03*
X0159047Y0067978D03*
X0159117Y0067838D03*
X0159117Y0067698D03*
X0159187Y0067488D03*
X0159187Y0066298D03*
X0159187Y0066228D03*
X0159117Y0066088D03*
X0159117Y0065948D03*
X0167797Y0069728D03*
X0167797Y0069798D03*
X0177317Y0069098D03*
X0174517Y0063638D03*
X0149807Y0059788D03*
X0149947Y0058598D03*
X0147917Y0060138D03*
X0140217Y0059298D03*
D40*
X0145782Y0058948D03*
X0148232Y0058598D03*
X0156632Y0060838D03*
X0167832Y0070638D03*
D41*
X0156177Y0073228D03*
X0156177Y0073438D03*
X0165277Y0066648D03*
X0151627Y0058878D03*
X0151627Y0058738D03*
X0146377Y0058598D03*
X0130277Y0060138D03*
X0129927Y0059788D03*
X0118377Y0075748D03*
X0120127Y0077638D03*
X0176827Y0076378D03*
D42*
X0174797Y0079598D03*
X0176197Y0068048D03*
X0152607Y0061048D03*
X0147847Y0060278D03*
X0145607Y0058598D03*
X0132447Y0059578D03*
X0132307Y0060278D03*
X0131047Y0060138D03*
X0150857Y0066998D03*
D43*
X0148267Y0064548D03*
X0147987Y0059928D03*
X0147987Y0058738D03*
X0146167Y0058878D03*
X0142387Y0059228D03*
X0142387Y0059298D03*
X0142387Y0059438D03*
X0142387Y0059578D03*
X0135107Y0058598D03*
X0158767Y0068398D03*
X0165557Y0066788D03*
X0166187Y0070078D03*
X0166187Y0070148D03*
X0166257Y0070288D03*
X0166397Y0070638D03*
X0166397Y0070778D03*
X0166397Y0070848D03*
X0166467Y0070988D03*
X0175707Y0075048D03*
X0176267Y0078128D03*
X0175707Y0079038D03*
X0174167Y0078198D03*
X0151697Y0075888D03*
X0150857Y0074978D03*
X0138467Y0074488D03*
X0131957Y0072738D03*
X0125517Y0072388D03*
D44*
X0125552Y0071968D03*
X0150262Y0071968D03*
X0158802Y0060768D03*
X0155302Y0058668D03*
X0151592Y0058668D03*
X0150192Y0060068D03*
X0136542Y0059858D03*
X0134652Y0059858D03*
D45*
X0135317Y0058808D03*
X0136927Y0060068D03*
X0140147Y0060908D03*
X0132237Y0059508D03*
X0138887Y0065318D03*
X0136787Y0067208D03*
X0142667Y0064968D03*
X0146657Y0066858D03*
X0150717Y0065668D03*
X0148267Y0064268D03*
X0154637Y0066858D03*
X0159047Y0067908D03*
X0159117Y0067768D03*
X0159187Y0067558D03*
X0159187Y0067418D03*
X0159187Y0066368D03*
X0159187Y0066158D03*
X0167797Y0069658D03*
X0156667Y0072318D03*
X0152677Y0073508D03*
X0150227Y0072108D03*
X0146237Y0072108D03*
X0145117Y0073158D03*
X0143787Y0071968D03*
X0141197Y0074418D03*
X0146447Y0075608D03*
X0146587Y0075468D03*
X0146727Y0075258D03*
X0146937Y0074908D03*
X0147077Y0074768D03*
X0147217Y0074558D03*
X0131957Y0072318D03*
X0127967Y0073508D03*
X0125517Y0072108D03*
X0122367Y0073368D03*
X0122507Y0074558D03*
X0122227Y0074908D03*
X0122087Y0075118D03*
X0122017Y0075258D03*
X0121807Y0075468D03*
X0121737Y0075608D03*
X0115997Y0074768D03*
X0120127Y0077358D03*
X0121527Y0072108D03*
X0111937Y0071058D03*
X0149737Y0059718D03*
X0153797Y0058668D03*
X0177387Y0069168D03*
X0179697Y0069518D03*
X0176337Y0077708D03*
D46*
X0175602Y0079108D03*
X0168742Y0076308D03*
X0156702Y0072668D03*
X0150262Y0072318D03*
X0166362Y0070568D03*
X0138712Y0065108D03*
X0135142Y0058668D03*
X0147952Y0058668D03*
X0149912Y0058668D03*
X0131992Y0072668D03*
X0125552Y0072318D03*
X0116102Y0074908D03*
D47*
X0144522Y0067068D03*
X0150122Y0064268D03*
X0152432Y0067068D03*
X0166222Y0070218D03*
X0167832Y0069308D03*
X0153832Y0058808D03*
X0146132Y0058668D03*
D48*
X0144802Y0058668D03*
X0144802Y0058808D03*
X0144802Y0059368D03*
X0144802Y0059508D03*
X0144802Y0060558D03*
X0143402Y0060208D03*
X0135702Y0059718D03*
X0135702Y0059508D03*
X0133952Y0060068D03*
X0151802Y0060068D03*
X0151802Y0060208D03*
X0151802Y0060418D03*
X0151802Y0060558D03*
X0151802Y0060768D03*
X0151802Y0060908D03*
X0151802Y0059858D03*
X0151802Y0059718D03*
X0151802Y0059508D03*
X0151802Y0059368D03*
X0151802Y0059158D03*
X0159152Y0060068D03*
X0159502Y0059018D03*
X0156002Y0068608D03*
X0167902Y0071058D03*
X0176302Y0068118D03*
X0141652Y0068118D03*
D49*
X0146482Y0067068D03*
X0158662Y0068468D03*
X0165522Y0066858D03*
X0166082Y0069868D03*
X0166502Y0071058D03*
X0167832Y0069168D03*
X0156702Y0072808D03*
X0143892Y0075818D03*
X0141022Y0074768D03*
X0133952Y0077358D03*
X0129962Y0077358D03*
X0118062Y0074908D03*
X0154672Y0077358D03*
X0158732Y0077358D03*
X0175602Y0075118D03*
X0177562Y0075468D03*
X0177772Y0069658D03*
X0175252Y0062868D03*
X0169932Y0062868D03*
X0158802Y0059508D03*
X0153902Y0059508D03*
X0153902Y0059368D03*
X0148022Y0058808D03*
X0142352Y0059508D03*
X0132202Y0058668D03*
D50*
X0132272Y0059438D03*
X0135212Y0059298D03*
X0136962Y0058738D03*
X0142352Y0059998D03*
X0148232Y0064338D03*
X0150122Y0064198D03*
X0150682Y0065038D03*
X0150612Y0065738D03*
X0152362Y0066998D03*
X0154532Y0066928D03*
X0159012Y0068048D03*
X0159082Y0065878D03*
X0159012Y0065738D03*
X0167832Y0069588D03*
X0156702Y0072388D03*
X0150612Y0072948D03*
X0150262Y0072178D03*
X0146902Y0073088D03*
X0146832Y0072948D03*
X0146832Y0072878D03*
X0146692Y0072738D03*
X0146622Y0072598D03*
X0146552Y0072528D03*
X0146482Y0072388D03*
X0146342Y0072248D03*
X0146762Y0075188D03*
X0144872Y0075048D03*
X0150682Y0074838D03*
X0138642Y0074628D03*
X0131992Y0072388D03*
X0127932Y0072878D03*
X0127372Y0072038D03*
X0125902Y0072948D03*
X0125552Y0072178D03*
X0122332Y0073298D03*
X0122192Y0073088D03*
X0122122Y0072948D03*
X0122052Y0072878D03*
X0121982Y0072738D03*
X0121912Y0072598D03*
X0121842Y0072528D03*
X0121632Y0072248D03*
X0121562Y0072178D03*
X0122402Y0074698D03*
X0116032Y0074838D03*
X0114212Y0073998D03*
X0112392Y0073998D03*
X0120092Y0077288D03*
X0142562Y0067278D03*
X0146622Y0066928D03*
X0138852Y0065248D03*
X0138782Y0065178D03*
X0153832Y0059998D03*
X0153832Y0058738D03*
X0176512Y0063778D03*
X0176302Y0077848D03*
D51*
X0177422Y0075538D03*
X0165522Y0075398D03*
X0167832Y0069378D03*
X0158872Y0065528D03*
X0154532Y0066998D03*
X0138572Y0067278D03*
X0137172Y0073438D03*
X0118132Y0074838D03*
X0146132Y0058738D03*
X0153832Y0058878D03*
X0177632Y0069448D03*
D52*
X0177457Y0069238D03*
X0167797Y0069448D03*
X0158907Y0068188D03*
X0156667Y0072528D03*
X0152607Y0073578D03*
X0146307Y0072178D03*
X0144907Y0072948D03*
X0141127Y0074628D03*
X0140007Y0075538D03*
X0131957Y0072528D03*
X0127897Y0073578D03*
X0125517Y0072248D03*
X0121737Y0072388D03*
X0120127Y0076938D03*
X0120127Y0077078D03*
X0120127Y0077148D03*
X0126917Y0075888D03*
X0136927Y0067278D03*
X0140077Y0060838D03*
X0142317Y0059928D03*
X0142317Y0058738D03*
X0136927Y0059928D03*
X0136927Y0059998D03*
X0135037Y0060138D03*
X0133427Y0059788D03*
X0149807Y0060698D03*
X0153867Y0059928D03*
X0175217Y0062798D03*
X0175497Y0079178D03*
D53*
X0176687Y0076658D03*
X0176757Y0076518D03*
X0148617Y0077568D03*
X0146447Y0075818D03*
X0121737Y0075818D03*
X0150157Y0060558D03*
X0149457Y0059508D03*
X0153797Y0060208D03*
X0155337Y0058808D03*
X0156597Y0060768D03*
X0142317Y0060208D03*
D54*
X0136927Y0060208D03*
X0151627Y0058808D03*
X0156177Y0073368D03*
X0165277Y0075468D03*
X0175077Y0079458D03*
X0176827Y0076308D03*
D55*
X0154427Y0067068D03*
X0149877Y0058808D03*
D56*
X0146167Y0058808D03*
X0140007Y0059508D03*
X0140007Y0060768D03*
X0141687Y0062308D03*
X0135037Y0060068D03*
X0158837Y0065458D03*
X0157087Y0069658D03*
X0152117Y0072108D03*
X0166117Y0070008D03*
X0166257Y0070358D03*
X0166397Y0070708D03*
X0166467Y0070918D03*
X0177667Y0069518D03*
X0176337Y0063918D03*
X0176267Y0078058D03*
X0131957Y0072808D03*
X0127407Y0072108D03*
X0114107Y0075118D03*
D57*
X0116627Y0075818D03*
X0126007Y0074908D03*
X0137137Y0073368D03*
X0137207Y0072808D03*
X0138607Y0074558D03*
X0140007Y0075468D03*
X0144977Y0073018D03*
X0146517Y0072458D03*
X0150717Y0074908D03*
X0158907Y0068258D03*
X0159047Y0065808D03*
X0158977Y0065668D03*
X0148617Y0065108D03*
X0148267Y0064408D03*
X0147917Y0060068D03*
X0142317Y0058808D03*
X0140077Y0059368D03*
X0136927Y0058808D03*
X0135247Y0059368D03*
X0132307Y0059368D03*
X0177527Y0069308D03*
X0169967Y0079318D03*
D58*
X0169827Y0079178D03*
X0175987Y0078828D03*
X0176267Y0078338D03*
X0177667Y0075398D03*
X0166537Y0071478D03*
X0166537Y0071338D03*
X0167867Y0068888D03*
X0165417Y0067278D03*
X0165487Y0067138D03*
X0158627Y0065248D03*
X0158767Y0059228D03*
X0132237Y0058878D03*
X0143787Y0072038D03*
X0140917Y0074838D03*
X0137417Y0073578D03*
X0133917Y0076938D03*
X0133917Y0077078D03*
X0177877Y0069798D03*
D59*
X0176932Y0068678D03*
X0167832Y0070288D03*
X0157122Y0073228D03*
X0156142Y0073578D03*
X0156142Y0073648D03*
X0156072Y0073788D03*
X0156002Y0074138D03*
X0154532Y0069728D03*
X0150682Y0067138D03*
X0150122Y0064128D03*
X0156562Y0060628D03*
X0158802Y0060488D03*
X0155372Y0058948D03*
X0129262Y0060138D03*
X0131432Y0073438D03*
X0131432Y0073578D03*
X0131362Y0073788D03*
X0130732Y0076028D03*
X0141302Y0075748D03*
X0141372Y0075678D03*
X0118412Y0075678D03*
X0118412Y0075538D03*
X0176162Y0074488D03*
X0177002Y0076028D03*
X0176862Y0076238D03*
X0176512Y0077078D03*
D60*
X0176792Y0073228D03*
X0168182Y0072038D03*
X0168112Y0071828D03*
X0175882Y0067838D03*
X0180152Y0066438D03*
X0165102Y0066438D03*
X0150962Y0066928D03*
X0151662Y0061048D03*
X0153202Y0058948D03*
X0143332Y0060278D03*
X0137942Y0060278D03*
X0133252Y0060278D03*
X0136682Y0074838D03*
D61*
X0149527Y0072948D03*
X0137977Y0065738D03*
X0136927Y0065738D03*
X0136227Y0065178D03*
X0151277Y0058948D03*
X0176827Y0073088D03*
D62*
X0179767Y0070148D03*
X0170387Y0067278D03*
X0174657Y0062448D03*
X0154707Y0064198D03*
X0152187Y0064198D03*
X0150087Y0067138D03*
X0146657Y0064198D03*
X0141337Y0063988D03*
X0138187Y0065738D03*
X0137767Y0065738D03*
X0137557Y0065738D03*
X0137347Y0065738D03*
X0137137Y0065738D03*
X0136717Y0065738D03*
X0136507Y0065738D03*
X0136297Y0065738D03*
X0141687Y0058948D03*
X0168147Y0071898D03*
X0165067Y0075748D03*
X0113267Y0071828D03*
D63*
X0118412Y0075608D03*
X0120162Y0076518D03*
X0130662Y0076308D03*
X0131362Y0073718D03*
X0131432Y0073508D03*
X0131432Y0073368D03*
X0132482Y0073508D03*
X0138922Y0072808D03*
X0146762Y0067908D03*
X0156142Y0073508D03*
X0156072Y0073858D03*
X0155372Y0076308D03*
X0167832Y0070358D03*
X0176862Y0068608D03*
X0176232Y0074418D03*
X0176932Y0076168D03*
X0176582Y0076868D03*
X0176512Y0077008D03*
X0158802Y0060558D03*
X0156562Y0060558D03*
X0155372Y0059018D03*
D64*
X0150542Y0059018D03*
X0147532Y0065108D03*
X0168182Y0071968D03*
X0168182Y0072108D03*
X0168042Y0076168D03*
X0176792Y0073158D03*
X0180082Y0075608D03*
X0170422Y0067208D03*
X0139272Y0073018D03*
D65*
X0137802Y0075748D03*
X0152152Y0072248D03*
X0156702Y0073298D03*
X0165802Y0069448D03*
X0167902Y0068748D03*
X0165452Y0067348D03*
X0158802Y0059088D03*
D66*
X0156527Y0060488D03*
X0155407Y0059088D03*
X0150087Y0059998D03*
X0142317Y0060138D03*
X0146797Y0067628D03*
X0146797Y0067698D03*
X0146797Y0067838D03*
X0156037Y0073928D03*
X0156037Y0073998D03*
X0155967Y0074278D03*
X0155897Y0074488D03*
X0155827Y0074698D03*
X0155757Y0074978D03*
X0155687Y0075188D03*
X0155617Y0075398D03*
X0155617Y0075538D03*
X0155547Y0075678D03*
X0155547Y0075748D03*
X0155477Y0075888D03*
X0155477Y0076028D03*
X0155407Y0076098D03*
X0155407Y0076238D03*
X0157857Y0075748D03*
X0157927Y0076028D03*
X0157927Y0076098D03*
X0157997Y0076238D03*
X0152607Y0074978D03*
X0157227Y0073648D03*
X0157227Y0073578D03*
X0157227Y0073438D03*
X0157297Y0073788D03*
X0167797Y0070148D03*
X0176967Y0068748D03*
X0176757Y0063638D03*
X0179837Y0075398D03*
X0176967Y0076098D03*
X0176477Y0077148D03*
X0148687Y0077498D03*
X0142807Y0074698D03*
X0141337Y0075328D03*
X0141337Y0075398D03*
X0141337Y0075538D03*
X0133217Y0076028D03*
X0133217Y0076098D03*
X0133147Y0075888D03*
X0130977Y0075188D03*
X0130907Y0075328D03*
X0130907Y0075398D03*
X0130837Y0075678D03*
X0130767Y0075888D03*
X0130697Y0076098D03*
X0130697Y0076238D03*
X0131047Y0074978D03*
X0131117Y0074698D03*
X0131117Y0074628D03*
X0131187Y0074488D03*
X0131187Y0074348D03*
X0131257Y0074278D03*
X0131257Y0074138D03*
X0131327Y0073998D03*
X0131327Y0073928D03*
X0131397Y0073648D03*
X0132447Y0073438D03*
X0132447Y0073298D03*
X0132517Y0073578D03*
X0132517Y0073648D03*
X0132587Y0073928D03*
X0132657Y0074138D03*
X0127897Y0074978D03*
X0123977Y0077498D03*
X0118377Y0075398D03*
X0118377Y0075328D03*
D67*
X0118202Y0075888D03*
X0118062Y0075888D03*
X0120162Y0076378D03*
X0123942Y0077638D03*
X0129752Y0077428D03*
X0129892Y0077428D03*
X0130312Y0077428D03*
X0133742Y0077428D03*
X0134162Y0077428D03*
X0134302Y0077428D03*
X0139902Y0074838D03*
X0141162Y0075888D03*
X0139342Y0073088D03*
X0138152Y0071898D03*
X0138012Y0071898D03*
X0143612Y0071898D03*
X0143752Y0071898D03*
X0143892Y0071898D03*
X0150192Y0071898D03*
X0151942Y0071898D03*
X0152992Y0074698D03*
X0152012Y0074978D03*
X0154462Y0077428D03*
X0154602Y0077428D03*
X0154742Y0077428D03*
X0158312Y0077428D03*
X0158662Y0077428D03*
X0158802Y0077428D03*
X0158942Y0077428D03*
X0166362Y0075398D03*
X0166502Y0075398D03*
X0168812Y0075888D03*
X0168812Y0076238D03*
X0171192Y0076238D03*
X0171962Y0075538D03*
X0176862Y0072948D03*
X0164052Y0069098D03*
X0157542Y0069728D03*
X0157402Y0069728D03*
X0156842Y0069728D03*
X0156702Y0069728D03*
X0157192Y0068678D03*
X0149912Y0066578D03*
X0146692Y0068048D03*
X0146552Y0068048D03*
X0146412Y0068048D03*
X0141792Y0067278D03*
X0140392Y0067978D03*
X0140252Y0067978D03*
X0140112Y0067978D03*
X0140042Y0067138D03*
X0141162Y0064898D03*
X0141302Y0064898D03*
X0141442Y0064898D03*
X0141512Y0063988D03*
X0141652Y0063988D03*
X0141792Y0063988D03*
X0141792Y0063148D03*
X0141302Y0063148D03*
X0141512Y0062238D03*
X0141652Y0062238D03*
X0141792Y0062238D03*
X0140042Y0060978D03*
X0139902Y0060978D03*
X0138152Y0060278D03*
X0135002Y0060278D03*
X0143542Y0060278D03*
X0148162Y0060278D03*
X0150612Y0059088D03*
X0154042Y0060278D03*
X0154392Y0064198D03*
X0152502Y0064198D03*
X0152362Y0064198D03*
X0152012Y0064198D03*
X0144592Y0064198D03*
X0144452Y0064198D03*
X0144312Y0064198D03*
X0129962Y0072038D03*
X0127512Y0071898D03*
X0125692Y0071898D03*
X0125552Y0071898D03*
X0125412Y0071898D03*
X0120442Y0072038D03*
X0113442Y0071828D03*
X0113302Y0072738D03*
X0113162Y0072738D03*
X0111342Y0074978D03*
X0127162Y0074978D03*
X0127302Y0074978D03*
X0148652Y0077638D03*
X0172452Y0066648D03*
X0172592Y0066648D03*
D68*
X0167902Y0068818D03*
X0158802Y0059158D03*
D69*
X0158767Y0060418D03*
X0156527Y0060418D03*
X0155407Y0059158D03*
X0147917Y0060208D03*
X0132377Y0060208D03*
X0130277Y0060068D03*
X0129227Y0060068D03*
X0140567Y0066718D03*
X0146797Y0067558D03*
X0146797Y0067768D03*
X0152117Y0071968D03*
X0154357Y0072108D03*
X0156107Y0073718D03*
X0156037Y0074068D03*
X0155967Y0074208D03*
X0155897Y0074418D03*
X0155897Y0074558D03*
X0155827Y0074768D03*
X0155757Y0074908D03*
X0155687Y0075258D03*
X0155617Y0075468D03*
X0155547Y0075608D03*
X0155477Y0075958D03*
X0155407Y0076168D03*
X0157927Y0076168D03*
X0157997Y0076308D03*
X0157927Y0075958D03*
X0159047Y0075608D03*
X0159047Y0076308D03*
X0157297Y0073858D03*
X0157227Y0073508D03*
X0157157Y0073368D03*
X0159047Y0072108D03*
X0167797Y0070218D03*
X0176127Y0074558D03*
X0176477Y0077218D03*
X0179697Y0069658D03*
X0170177Y0062658D03*
X0141337Y0075468D03*
X0141337Y0075608D03*
X0139937Y0075818D03*
X0133217Y0076168D03*
X0133147Y0075818D03*
X0130977Y0075118D03*
X0131047Y0074908D03*
X0131187Y0074418D03*
X0131257Y0074208D03*
X0131257Y0074068D03*
X0131327Y0073858D03*
X0132447Y0073368D03*
X0132587Y0073858D03*
X0130837Y0075608D03*
X0130767Y0075818D03*
X0130767Y0075958D03*
X0130697Y0076168D03*
X0120127Y0077568D03*
X0118377Y0075468D03*
X0127407Y0071968D03*
D70*
X0124047Y0072318D03*
X0124047Y0072458D03*
X0124047Y0073018D03*
X0124047Y0073158D03*
X0124047Y0075118D03*
X0124047Y0075258D03*
X0124047Y0075818D03*
X0124047Y0075958D03*
X0124047Y0076518D03*
X0124047Y0076658D03*
X0124047Y0077218D03*
X0124047Y0077358D03*
X0118307Y0074558D03*
X0118307Y0074418D03*
X0118307Y0074208D03*
X0118307Y0074068D03*
X0118307Y0073858D03*
X0118307Y0073718D03*
X0118307Y0073508D03*
X0118307Y0073368D03*
X0118307Y0073158D03*
X0118307Y0073018D03*
X0118307Y0072808D03*
X0118307Y0072668D03*
X0118307Y0072458D03*
X0118307Y0072318D03*
X0114597Y0071268D03*
X0111797Y0071268D03*
X0111797Y0071618D03*
X0114247Y0073158D03*
X0131957Y0072108D03*
X0138957Y0066858D03*
X0144347Y0066718D03*
X0144347Y0066158D03*
X0144347Y0066018D03*
X0144347Y0065458D03*
X0144347Y0065318D03*
X0144347Y0064758D03*
X0144347Y0064618D03*
X0152257Y0064618D03*
X0152257Y0064758D03*
X0152257Y0064968D03*
X0152257Y0065108D03*
X0152257Y0065318D03*
X0152257Y0065458D03*
X0152257Y0065668D03*
X0152257Y0065808D03*
X0152257Y0066018D03*
X0152257Y0066158D03*
X0152257Y0066368D03*
X0152257Y0066508D03*
X0152257Y0066718D03*
X0154707Y0068118D03*
X0152257Y0064408D03*
X0156457Y0060208D03*
X0165347Y0066718D03*
X0167797Y0069868D03*
X0167797Y0070008D03*
X0152747Y0073368D03*
X0148757Y0073368D03*
X0148757Y0073508D03*
X0148757Y0073158D03*
X0148757Y0073018D03*
X0148757Y0072808D03*
X0148757Y0072668D03*
X0148757Y0072458D03*
X0148757Y0072318D03*
X0148757Y0074768D03*
X0148757Y0074908D03*
X0148757Y0075118D03*
X0148757Y0075258D03*
X0148757Y0075468D03*
X0148757Y0075608D03*
X0148757Y0075818D03*
X0148757Y0075958D03*
X0148757Y0076168D03*
X0148757Y0076308D03*
X0148757Y0076518D03*
X0148757Y0076658D03*
X0148757Y0076868D03*
X0148757Y0077008D03*
X0148757Y0077218D03*
X0148757Y0077358D03*
X0135247Y0059158D03*
D71*
X0135212Y0059228D03*
X0132412Y0060138D03*
X0138292Y0059998D03*
X0138292Y0059928D03*
X0143682Y0059928D03*
X0143682Y0059998D03*
X0149772Y0060838D03*
X0155512Y0059438D03*
X0154672Y0064338D03*
X0154672Y0064478D03*
X0154672Y0064898D03*
X0154672Y0065038D03*
X0154672Y0065178D03*
X0154672Y0065598D03*
X0154672Y0065738D03*
X0154672Y0065878D03*
X0154672Y0066298D03*
X0154672Y0066438D03*
X0154672Y0066578D03*
X0154672Y0068398D03*
X0154672Y0068538D03*
X0154672Y0068678D03*
X0154672Y0069098D03*
X0154672Y0069238D03*
X0154672Y0069378D03*
X0152292Y0066928D03*
X0148582Y0066788D03*
X0148582Y0066648D03*
X0148582Y0065178D03*
X0144312Y0065248D03*
X0144312Y0065388D03*
X0144312Y0065528D03*
X0144312Y0065948D03*
X0144312Y0066088D03*
X0144312Y0066228D03*
X0144312Y0066648D03*
X0144312Y0066788D03*
X0144312Y0064828D03*
X0144312Y0064688D03*
X0144312Y0064548D03*
X0142912Y0063288D03*
X0140182Y0063848D03*
X0138922Y0065388D03*
X0138992Y0065528D03*
X0138992Y0065598D03*
X0138922Y0066928D03*
X0138782Y0067138D03*
X0137592Y0064128D03*
X0159222Y0066438D03*
X0159222Y0066578D03*
X0159222Y0066648D03*
X0159222Y0066788D03*
X0159222Y0066928D03*
X0159222Y0066998D03*
X0159222Y0067138D03*
X0159222Y0067278D03*
X0159222Y0067348D03*
X0170072Y0062728D03*
X0175112Y0062728D03*
X0177282Y0069028D03*
X0179662Y0069588D03*
X0177282Y0075678D03*
X0177212Y0075748D03*
X0176372Y0077638D03*
X0174272Y0078338D03*
X0152782Y0073298D03*
X0152712Y0073438D03*
X0152782Y0073088D03*
X0152712Y0072948D03*
X0150612Y0073578D03*
X0150612Y0074348D03*
X0150612Y0074628D03*
X0150612Y0074698D03*
X0147112Y0074698D03*
X0146412Y0075748D03*
X0145082Y0074838D03*
X0143892Y0075888D03*
X0142912Y0074978D03*
X0141232Y0074348D03*
X0141232Y0074278D03*
X0139972Y0075678D03*
X0138712Y0074698D03*
X0137872Y0075888D03*
X0137032Y0073228D03*
X0137032Y0072948D03*
X0131992Y0072178D03*
X0124012Y0072528D03*
X0124012Y0072948D03*
X0124012Y0073578D03*
X0118272Y0074628D03*
X0115962Y0074628D03*
X0115962Y0074698D03*
X0120092Y0077428D03*
X0111832Y0071128D03*
D72*
X0112112Y0075048D03*
X0129962Y0077288D03*
X0133952Y0077288D03*
X0133952Y0077148D03*
X0131992Y0073088D03*
X0141652Y0067978D03*
X0138572Y0065038D03*
X0137592Y0064198D03*
X0138012Y0059788D03*
X0158802Y0059298D03*
X0169862Y0062938D03*
X0176232Y0063988D03*
X0158592Y0068538D03*
X0152152Y0072178D03*
X0156702Y0073088D03*
X0158662Y0077148D03*
X0158662Y0077288D03*
X0154672Y0077288D03*
X0174132Y0078128D03*
X0175882Y0078898D03*
X0175532Y0075188D03*
D73*
X0175987Y0074698D03*
X0157437Y0074348D03*
X0151837Y0074348D03*
X0150577Y0074488D03*
X0150577Y0073438D03*
X0150577Y0073298D03*
X0150577Y0073228D03*
X0150577Y0073088D03*
X0145187Y0073438D03*
X0145187Y0074488D03*
X0145187Y0074628D03*
X0145117Y0074698D03*
X0141267Y0074138D03*
X0141267Y0073998D03*
X0141267Y0073928D03*
X0141267Y0073788D03*
X0141267Y0073648D03*
X0141267Y0073578D03*
X0141267Y0073438D03*
X0141267Y0073298D03*
X0141267Y0073228D03*
X0141267Y0073088D03*
X0141267Y0072948D03*
X0141267Y0072878D03*
X0141267Y0072738D03*
X0141267Y0072598D03*
X0141267Y0072528D03*
X0141267Y0072388D03*
X0141267Y0072248D03*
X0141267Y0072178D03*
X0139937Y0075748D03*
X0128037Y0073298D03*
X0128037Y0073228D03*
X0128037Y0073088D03*
X0127127Y0074348D03*
X0125867Y0074348D03*
X0125867Y0074488D03*
X0125867Y0074628D03*
X0125867Y0073438D03*
X0125867Y0073298D03*
X0125867Y0073228D03*
X0125867Y0073088D03*
X0125517Y0072038D03*
X0123977Y0072248D03*
X0123977Y0072388D03*
X0123977Y0073088D03*
X0123977Y0073228D03*
X0123977Y0074628D03*
X0123977Y0075048D03*
X0123977Y0075188D03*
X0123977Y0075328D03*
X0123977Y0075748D03*
X0123977Y0075888D03*
X0123977Y0076028D03*
X0123977Y0076448D03*
X0123977Y0076588D03*
X0123977Y0076728D03*
X0123977Y0077148D03*
X0123977Y0077288D03*
X0123977Y0077428D03*
X0120127Y0077498D03*
X0120127Y0075748D03*
X0120127Y0075678D03*
X0120127Y0075538D03*
X0120127Y0075398D03*
X0120127Y0075328D03*
X0120127Y0075188D03*
X0120127Y0075048D03*
X0120127Y0074978D03*
X0120127Y0074838D03*
X0120127Y0074698D03*
X0120127Y0074628D03*
X0120127Y0074488D03*
X0120127Y0074348D03*
X0120127Y0074278D03*
X0120127Y0074138D03*
X0120127Y0073998D03*
X0120127Y0073928D03*
X0120127Y0073788D03*
X0120127Y0073648D03*
X0120127Y0073578D03*
X0120127Y0073438D03*
X0120127Y0073298D03*
X0120127Y0073228D03*
X0120127Y0073088D03*
X0120127Y0072948D03*
X0120127Y0072878D03*
X0120127Y0072738D03*
X0120127Y0072598D03*
X0120127Y0072528D03*
X0120127Y0072388D03*
X0120127Y0072248D03*
X0120127Y0072178D03*
X0115927Y0072178D03*
X0115927Y0072248D03*
X0115927Y0072388D03*
X0115927Y0072528D03*
X0115927Y0072598D03*
X0115927Y0072738D03*
X0115927Y0072878D03*
X0115927Y0072948D03*
X0115927Y0073088D03*
X0115927Y0073228D03*
X0115927Y0073298D03*
X0115927Y0073438D03*
X0115927Y0073578D03*
X0115927Y0073648D03*
X0115927Y0073788D03*
X0115927Y0073928D03*
X0115927Y0073998D03*
X0115927Y0074138D03*
X0115927Y0074278D03*
X0115927Y0074348D03*
X0115927Y0074488D03*
X0114387Y0074278D03*
X0114317Y0074138D03*
X0114387Y0074838D03*
X0114317Y0074978D03*
X0112287Y0074978D03*
X0112217Y0074278D03*
X0112287Y0074138D03*
X0114317Y0072878D03*
X0116627Y0075888D03*
X0136717Y0067138D03*
X0138887Y0066998D03*
X0139027Y0066648D03*
X0139027Y0066578D03*
X0140637Y0066298D03*
X0142667Y0065248D03*
X0142737Y0065038D03*
X0142877Y0063988D03*
X0143017Y0063498D03*
X0146727Y0064338D03*
X0146727Y0064478D03*
X0146727Y0064548D03*
X0146727Y0064688D03*
X0146727Y0064828D03*
X0146727Y0064898D03*
X0146727Y0065038D03*
X0146727Y0065178D03*
X0146727Y0065248D03*
X0146727Y0065388D03*
X0146727Y0065528D03*
X0146727Y0065598D03*
X0146727Y0065738D03*
X0146727Y0065878D03*
X0146727Y0065948D03*
X0146727Y0066088D03*
X0146727Y0066228D03*
X0146727Y0066298D03*
X0146727Y0066438D03*
X0146727Y0066578D03*
X0146727Y0066648D03*
X0148617Y0066578D03*
X0148617Y0065738D03*
X0150787Y0065388D03*
X0150787Y0065248D03*
X0154637Y0065248D03*
X0154637Y0065388D03*
X0154637Y0065528D03*
X0154637Y0065948D03*
X0154637Y0066088D03*
X0154637Y0066228D03*
X0154637Y0066648D03*
X0154637Y0068328D03*
X0154637Y0068748D03*
X0154637Y0068888D03*
X0154637Y0069028D03*
X0154637Y0069448D03*
X0154637Y0069588D03*
X0154637Y0064828D03*
X0154637Y0064688D03*
X0154637Y0064548D03*
X0155477Y0059298D03*
X0150017Y0059928D03*
X0149667Y0059648D03*
X0136927Y0060138D03*
D74*
X0138537Y0059718D03*
X0133847Y0059718D03*
X0130277Y0060208D03*
X0129227Y0060208D03*
X0143927Y0059718D03*
X0147567Y0059858D03*
X0167867Y0070708D03*
X0176337Y0074208D03*
X0179977Y0075468D03*
X0128037Y0074908D03*
D75*
X0123872Y0077568D03*
X0113232Y0073158D03*
X0148372Y0059858D03*
X0176932Y0063568D03*
X0176722Y0068468D03*
X0167832Y0070568D03*
D76*
X0166537Y0071408D03*
X0165837Y0069518D03*
X0158487Y0068608D03*
X0158627Y0076868D03*
X0158627Y0077008D03*
X0133917Y0077008D03*
X0143367Y0059858D03*
D77*
X0137942Y0059858D03*
X0132692Y0060068D03*
X0150122Y0064408D03*
X0166572Y0071618D03*
X0175462Y0075258D03*
X0176232Y0078408D03*
X0154742Y0076868D03*
X0133882Y0076868D03*
X0133882Y0076658D03*
X0130032Y0076868D03*
X0177982Y0070008D03*
D78*
X0149702Y0067768D03*
X0132902Y0059858D03*
X0126952Y0075608D03*
D79*
X0123312Y0073858D03*
X0138012Y0072318D03*
X0143892Y0075468D03*
X0148022Y0073858D03*
X0175672Y0064408D03*
X0129962Y0059858D03*
D80*
X0132902Y0059928D03*
X0141652Y0062448D03*
X0137732Y0067698D03*
X0138012Y0072248D03*
X0137872Y0075398D03*
X0143892Y0075538D03*
X0148092Y0074138D03*
X0148092Y0073998D03*
X0151732Y0075678D03*
X0166572Y0072178D03*
X0165312Y0068538D03*
X0165312Y0068398D03*
X0168042Y0068048D03*
X0178402Y0070778D03*
X0178542Y0071898D03*
X0123382Y0074138D03*
X0123312Y0073928D03*
D81*
X0123242Y0074488D03*
X0137942Y0075188D03*
X0138012Y0072388D03*
X0148022Y0073788D03*
X0148022Y0074348D03*
X0151312Y0074278D03*
X0157192Y0069448D03*
X0165312Y0068748D03*
X0168112Y0067838D03*
X0166572Y0072248D03*
X0178612Y0072178D03*
X0129962Y0059928D03*
D82*
X0132937Y0059998D03*
X0149737Y0067838D03*
X0143787Y0072248D03*
X0140567Y0075048D03*
X0140567Y0075188D03*
X0126987Y0075678D03*
X0123277Y0074348D03*
X0123277Y0073788D03*
X0113267Y0070288D03*
X0165277Y0068678D03*
X0165417Y0069098D03*
X0168077Y0067978D03*
X0175777Y0064338D03*
X0179837Y0069098D03*
X0178577Y0072038D03*
D83*
X0148057Y0073928D03*
X0148057Y0074278D03*
X0137907Y0075328D03*
X0123347Y0074278D03*
X0123347Y0073998D03*
X0129997Y0059998D03*
D84*
X0142352Y0060068D03*
X0150752Y0065108D03*
X0138852Y0067068D03*
X0145152Y0073368D03*
X0125902Y0074768D03*
X0175952Y0074768D03*
X0176652Y0063708D03*
D85*
X0170737Y0066998D03*
X0167937Y0071338D03*
X0176617Y0073648D03*
X0139167Y0072948D03*
X0133917Y0060138D03*
D86*
X0133917Y0060208D03*
X0144837Y0060208D03*
X0165137Y0066508D03*
X0170387Y0062518D03*
X0144977Y0068118D03*
X0165137Y0075608D03*
X0176617Y0073718D03*
X0174377Y0078758D03*
D87*
X0174202Y0078268D03*
X0176302Y0077918D03*
X0177352Y0075608D03*
X0175812Y0074908D03*
X0167832Y0069518D03*
X0158942Y0068118D03*
X0159152Y0066018D03*
X0148722Y0067068D03*
X0142562Y0066158D03*
X0140812Y0066158D03*
X0138712Y0067208D03*
X0140252Y0063918D03*
X0140322Y0063218D03*
X0142842Y0063218D03*
X0149772Y0060768D03*
X0135002Y0060208D03*
X0114492Y0071058D03*
X0111902Y0071758D03*
X0118202Y0074768D03*
X0120092Y0076868D03*
X0120092Y0077008D03*
X0120092Y0077218D03*
X0122472Y0073508D03*
X0122262Y0073158D03*
X0122192Y0073018D03*
X0122052Y0072808D03*
X0121912Y0072668D03*
X0121772Y0072458D03*
X0121702Y0072318D03*
X0131992Y0072458D03*
X0138082Y0071968D03*
X0141162Y0074558D03*
X0139972Y0075608D03*
X0146902Y0073018D03*
X0146972Y0073158D03*
X0147112Y0073368D03*
X0147182Y0073508D03*
X0146762Y0072808D03*
X0146622Y0072668D03*
X0146412Y0072318D03*
X0156702Y0072458D03*
X0174622Y0063568D03*
D88*
X0170632Y0067068D03*
X0180082Y0066508D03*
X0179732Y0070008D03*
X0176652Y0073508D03*
X0168042Y0071618D03*
X0167972Y0071408D03*
X0136752Y0074908D03*
X0136332Y0065108D03*
X0131012Y0060208D03*
D89*
X0140112Y0063568D03*
X0140112Y0063708D03*
X0142912Y0063918D03*
X0142982Y0063708D03*
X0142702Y0065108D03*
X0142632Y0065318D03*
X0142772Y0066508D03*
X0142842Y0066718D03*
X0142772Y0066858D03*
X0140602Y0066858D03*
X0138992Y0066718D03*
X0136682Y0067068D03*
X0136612Y0066858D03*
X0136612Y0066718D03*
X0144312Y0064268D03*
X0146692Y0064268D03*
X0148582Y0065318D03*
X0148582Y0065458D03*
X0152222Y0064268D03*
X0154672Y0064268D03*
X0156212Y0065108D03*
X0154672Y0067768D03*
X0154672Y0067908D03*
X0154602Y0069658D03*
X0154322Y0072318D03*
X0154322Y0072458D03*
X0154322Y0072668D03*
X0154322Y0072808D03*
X0154322Y0073018D03*
X0154322Y0073158D03*
X0154322Y0073368D03*
X0154322Y0073508D03*
X0154322Y0073718D03*
X0154322Y0073858D03*
X0154322Y0074068D03*
X0154322Y0074208D03*
X0154322Y0074418D03*
X0154322Y0074558D03*
X0154322Y0074768D03*
X0154322Y0074908D03*
X0154322Y0075118D03*
X0154322Y0075258D03*
X0154322Y0075468D03*
X0154322Y0075608D03*
X0154322Y0075818D03*
X0154322Y0075958D03*
X0154322Y0076168D03*
X0154322Y0076308D03*
X0155512Y0075818D03*
X0155722Y0075118D03*
X0157472Y0074558D03*
X0157472Y0074418D03*
X0157402Y0074208D03*
X0157332Y0074068D03*
X0157262Y0073718D03*
X0157542Y0074768D03*
X0157612Y0074908D03*
X0157682Y0075118D03*
X0157752Y0075258D03*
X0157752Y0075468D03*
X0157822Y0075608D03*
X0157892Y0075818D03*
X0159012Y0075468D03*
X0159082Y0075258D03*
X0159082Y0075118D03*
X0159012Y0074908D03*
X0159012Y0074768D03*
X0159082Y0074558D03*
X0159082Y0074418D03*
X0159012Y0074208D03*
X0159012Y0074068D03*
X0159082Y0073858D03*
X0159082Y0073718D03*
X0159012Y0073508D03*
X0159012Y0073368D03*
X0159082Y0073158D03*
X0159082Y0073018D03*
X0159012Y0072808D03*
X0159012Y0072668D03*
X0159082Y0072458D03*
X0159082Y0072318D03*
X0148722Y0072108D03*
X0142772Y0074418D03*
X0142772Y0074558D03*
X0142842Y0074768D03*
X0134302Y0074768D03*
X0134302Y0074908D03*
X0134302Y0075118D03*
X0134302Y0075258D03*
X0134302Y0075468D03*
X0134302Y0075608D03*
X0134302Y0075818D03*
X0134302Y0075958D03*
X0134302Y0076168D03*
X0133182Y0075958D03*
X0133112Y0075608D03*
X0133042Y0075468D03*
X0132972Y0075258D03*
X0132972Y0075118D03*
X0132902Y0074908D03*
X0132832Y0074768D03*
X0132762Y0074558D03*
X0132762Y0074418D03*
X0132692Y0074208D03*
X0132622Y0074068D03*
X0132552Y0073718D03*
X0131152Y0074558D03*
X0131082Y0074768D03*
X0130942Y0075258D03*
X0130872Y0075468D03*
X0129612Y0075468D03*
X0129612Y0075608D03*
X0129612Y0075818D03*
X0129612Y0075958D03*
X0129612Y0076168D03*
X0129612Y0076308D03*
X0129612Y0075258D03*
X0129612Y0075118D03*
X0129612Y0074908D03*
X0129612Y0074768D03*
X0129612Y0074558D03*
X0129612Y0074418D03*
X0129612Y0074208D03*
X0129612Y0074068D03*
X0129612Y0073858D03*
X0129612Y0073718D03*
X0129612Y0073508D03*
X0129612Y0073368D03*
X0129612Y0073158D03*
X0129612Y0073018D03*
X0129612Y0072808D03*
X0129612Y0072668D03*
X0129612Y0072458D03*
X0129612Y0072318D03*
X0129612Y0072108D03*
X0134302Y0072108D03*
X0134302Y0072318D03*
X0134302Y0072458D03*
X0134302Y0072668D03*
X0134302Y0072808D03*
X0134302Y0073018D03*
X0134302Y0073158D03*
X0134302Y0073368D03*
X0134302Y0073508D03*
X0134302Y0073718D03*
X0134302Y0073858D03*
X0134302Y0074068D03*
X0134302Y0074208D03*
X0134302Y0074418D03*
X0134302Y0074558D03*
X0124012Y0073508D03*
X0124012Y0072108D03*
X0120092Y0072108D03*
X0118342Y0072108D03*
X0114632Y0071618D03*
X0114632Y0071408D03*
X0111762Y0071408D03*
X0112182Y0074418D03*
X0112182Y0074558D03*
X0112182Y0074768D03*
X0114352Y0074908D03*
X0114422Y0074768D03*
X0114422Y0074558D03*
X0114422Y0074418D03*
X0149772Y0060908D03*
X0173992Y0063918D03*
X0175042Y0062658D03*
X0179802Y0066718D03*
X0177072Y0068818D03*
X0177072Y0075958D03*
X0176442Y0077358D03*
X0174272Y0078408D03*
X0170142Y0079458D03*
X0159082Y0075958D03*
X0159082Y0075818D03*
X0159012Y0076168D03*
D90*
X0143892Y0075678D03*
X0137662Y0073788D03*
X0152992Y0067698D03*
X0152992Y0067628D03*
X0165592Y0069238D03*
X0141652Y0062378D03*
X0113652Y0073228D03*
D91*
X0113267Y0070358D03*
X0126917Y0075468D03*
X0149387Y0066368D03*
X0141687Y0065808D03*
X0141617Y0062518D03*
X0157297Y0064408D03*
X0168217Y0067558D03*
X0178717Y0072458D03*
D92*
X0178787Y0072598D03*
X0179767Y0068888D03*
X0166537Y0072528D03*
X0175497Y0064548D03*
X0157367Y0064478D03*
X0141687Y0065948D03*
X0141617Y0062588D03*
X0113407Y0072598D03*
X0113337Y0073788D03*
X0126917Y0075328D03*
D93*
X0126882Y0073858D03*
X0112882Y0075608D03*
X0143962Y0075118D03*
X0151592Y0073858D03*
X0143892Y0072668D03*
X0168322Y0067208D03*
X0169302Y0066158D03*
X0141652Y0062658D03*
D94*
X0141617Y0062728D03*
X0141337Y0067628D03*
X0166467Y0072738D03*
X0178997Y0072878D03*
X0179487Y0068538D03*
X0168777Y0066578D03*
X0168427Y0066998D03*
D95*
X0169827Y0065598D03*
X0169897Y0065528D03*
X0175217Y0064828D03*
X0157507Y0064828D03*
X0153517Y0067278D03*
X0145537Y0067278D03*
X0145537Y0067138D03*
X0137837Y0066438D03*
X0137837Y0066228D03*
X0137837Y0066088D03*
X0137837Y0065948D03*
X0137907Y0065878D03*
X0141617Y0062798D03*
X0144067Y0073648D03*
X0144067Y0073788D03*
X0143997Y0074348D03*
X0112987Y0075328D03*
D96*
X0141407Y0067418D03*
X0145537Y0067208D03*
X0153447Y0067208D03*
X0153517Y0067418D03*
X0157507Y0068818D03*
X0144067Y0073718D03*
X0144067Y0073858D03*
X0169897Y0078268D03*
X0141617Y0062868D03*
D97*
X0145047Y0067838D03*
X0131957Y0073228D03*
X0129997Y0077078D03*
X0129997Y0077148D03*
X0154707Y0077148D03*
X0154707Y0077078D03*
X0158697Y0077078D03*
X0165907Y0069588D03*
X0175147Y0063288D03*
X0175357Y0062938D03*
D98*
X0175147Y0064898D03*
X0178717Y0074978D03*
X0178647Y0075188D03*
X0141407Y0067348D03*
X0141617Y0062938D03*
D99*
X0152992Y0067768D03*
X0166572Y0071758D03*
X0158592Y0076518D03*
X0154812Y0076518D03*
X0169792Y0079108D03*
X0173992Y0078058D03*
X0176232Y0078618D03*
X0133812Y0076308D03*
X0169792Y0063008D03*
X0175392Y0063008D03*
D100*
X0149352Y0064618D03*
X0141512Y0064058D03*
X0141582Y0063008D03*
X0126602Y0072458D03*
X0178752Y0074908D03*
X0178822Y0074768D03*
X0178892Y0074558D03*
X0179172Y0073018D03*
D101*
X0175287Y0075398D03*
X0176267Y0078548D03*
X0152117Y0072388D03*
X0145047Y0067698D03*
X0142037Y0065388D03*
X0137697Y0067838D03*
X0127407Y0072388D03*
X0138187Y0074278D03*
X0137837Y0075678D03*
X0116697Y0075538D03*
X0165347Y0067838D03*
X0167937Y0068538D03*
X0176057Y0064128D03*
X0175357Y0063148D03*
X0175427Y0063078D03*
X0169757Y0063078D03*
X0178157Y0070288D03*
D102*
X0178997Y0074278D03*
X0178927Y0074348D03*
X0178927Y0074488D03*
X0178857Y0074628D03*
X0170037Y0078128D03*
X0151347Y0072528D03*
X0149387Y0064688D03*
X0141617Y0063078D03*
X0126637Y0072528D03*
X0126637Y0072598D03*
X0170037Y0063988D03*
D103*
X0169687Y0063148D03*
X0165277Y0068328D03*
X0178367Y0070638D03*
X0178437Y0071338D03*
X0178507Y0071688D03*
X0178507Y0071828D03*
X0143787Y0072178D03*
X0137557Y0064338D03*
X0113337Y0073438D03*
D104*
X0112217Y0075118D03*
X0116697Y0075608D03*
X0126987Y0075818D03*
X0130067Y0076518D03*
X0130067Y0076658D03*
X0133847Y0076518D03*
X0127407Y0072318D03*
X0137697Y0067908D03*
X0145047Y0067768D03*
X0152117Y0072318D03*
X0151697Y0075818D03*
X0154777Y0076658D03*
X0158627Y0076658D03*
X0176057Y0078758D03*
X0167937Y0068608D03*
X0165417Y0067558D03*
X0165417Y0067418D03*
X0176127Y0064058D03*
X0175217Y0063218D03*
D105*
X0169687Y0063218D03*
X0168077Y0067908D03*
X0165277Y0068468D03*
X0165277Y0068608D03*
X0178577Y0072108D03*
X0141687Y0065668D03*
X0137627Y0064408D03*
X0140567Y0074908D03*
X0140567Y0075118D03*
X0140567Y0075258D03*
D106*
X0147987Y0074488D03*
X0147987Y0073648D03*
X0157227Y0069378D03*
X0165277Y0068888D03*
X0168147Y0067698D03*
X0169617Y0063288D03*
X0157297Y0064338D03*
X0141897Y0064828D03*
X0141687Y0065738D03*
X0137627Y0064478D03*
X0137697Y0067628D03*
X0123207Y0073648D03*
X0113337Y0073578D03*
X0178647Y0072248D03*
D107*
X0159152Y0067628D03*
X0154602Y0066788D03*
X0150752Y0065598D03*
X0150752Y0065528D03*
X0150752Y0065178D03*
X0148652Y0066928D03*
X0142702Y0067138D03*
X0142702Y0066298D03*
X0140252Y0063288D03*
X0156702Y0072178D03*
X0156702Y0072248D03*
X0145152Y0073298D03*
X0128002Y0073438D03*
X0128002Y0072948D03*
X0125902Y0073578D03*
X0125902Y0074698D03*
X0121702Y0075748D03*
D108*
X0149632Y0067558D03*
X0169582Y0063358D03*
X0169582Y0078758D03*
D109*
X0175287Y0079318D03*
X0177177Y0075818D03*
X0156667Y0072108D03*
X0152817Y0073158D03*
X0150577Y0073158D03*
X0150577Y0073368D03*
X0150577Y0073508D03*
X0150577Y0074418D03*
X0150577Y0074558D03*
X0145187Y0074558D03*
X0145187Y0074418D03*
X0145117Y0074768D03*
X0142877Y0074908D03*
X0141267Y0074208D03*
X0141267Y0074068D03*
X0141267Y0073858D03*
X0141267Y0073718D03*
X0141267Y0073508D03*
X0141267Y0073368D03*
X0141267Y0073158D03*
X0141267Y0073018D03*
X0141267Y0072808D03*
X0141267Y0072668D03*
X0141267Y0072458D03*
X0141267Y0072318D03*
X0141267Y0072108D03*
X0138677Y0074908D03*
X0128037Y0073368D03*
X0128037Y0073158D03*
X0128037Y0073018D03*
X0125867Y0073158D03*
X0125867Y0073368D03*
X0125867Y0073508D03*
X0125867Y0074418D03*
X0125867Y0074558D03*
X0123977Y0074768D03*
X0123977Y0074908D03*
X0123977Y0075468D03*
X0123977Y0075608D03*
X0123977Y0076168D03*
X0123977Y0076308D03*
X0123977Y0076868D03*
X0123977Y0077008D03*
X0120127Y0076658D03*
X0120127Y0075608D03*
X0120127Y0075468D03*
X0120127Y0075258D03*
X0120127Y0075118D03*
X0120127Y0074908D03*
X0120127Y0074768D03*
X0120127Y0074558D03*
X0120127Y0074418D03*
X0120127Y0074208D03*
X0120127Y0074068D03*
X0120127Y0073858D03*
X0120127Y0073718D03*
X0120127Y0073508D03*
X0120127Y0073368D03*
X0120127Y0073158D03*
X0120127Y0073018D03*
X0120127Y0072808D03*
X0120127Y0072668D03*
X0120127Y0072458D03*
X0120127Y0072318D03*
X0123977Y0073368D03*
X0115927Y0073368D03*
X0115927Y0073508D03*
X0115927Y0073718D03*
X0115927Y0073858D03*
X0115927Y0074068D03*
X0115927Y0074208D03*
X0115927Y0074418D03*
X0115927Y0073158D03*
X0115927Y0073018D03*
X0115927Y0072808D03*
X0115927Y0072668D03*
X0115927Y0072458D03*
X0115927Y0072318D03*
X0115927Y0072108D03*
X0114527Y0071758D03*
X0114317Y0073018D03*
X0114387Y0074208D03*
X0112217Y0074208D03*
X0112287Y0074908D03*
X0140637Y0067068D03*
X0140567Y0066508D03*
X0140637Y0066368D03*
X0142737Y0066368D03*
X0142737Y0067068D03*
X0146727Y0066508D03*
X0146727Y0066368D03*
X0146727Y0066158D03*
X0146727Y0066018D03*
X0146727Y0065808D03*
X0146727Y0065668D03*
X0146727Y0065458D03*
X0146727Y0065318D03*
X0146727Y0065108D03*
X0146727Y0064968D03*
X0146727Y0064758D03*
X0146727Y0064618D03*
X0146727Y0064408D03*
X0143017Y0063568D03*
X0140217Y0063358D03*
X0148617Y0066718D03*
X0148617Y0066858D03*
X0150787Y0065458D03*
X0150787Y0065318D03*
X0154637Y0065108D03*
X0154637Y0064968D03*
X0154637Y0064408D03*
X0154637Y0065668D03*
X0154637Y0065808D03*
X0154637Y0066368D03*
X0154637Y0066508D03*
X0154637Y0068468D03*
X0154637Y0068608D03*
X0154637Y0069168D03*
X0154637Y0069308D03*
X0171367Y0066718D03*
D110*
X0168322Y0067278D03*
X0168252Y0067348D03*
X0169512Y0063428D03*
X0179662Y0068748D03*
X0157332Y0069238D03*
X0149632Y0067348D03*
X0149632Y0067278D03*
X0149492Y0066228D03*
X0137732Y0067348D03*
X0137662Y0064688D03*
X0143892Y0072528D03*
X0151522Y0073998D03*
X0151592Y0075048D03*
X0151592Y0075188D03*
X0143962Y0075188D03*
X0126882Y0075188D03*
X0126882Y0075048D03*
X0126812Y0073998D03*
X0113232Y0070428D03*
D111*
X0113057Y0072248D03*
X0113197Y0072388D03*
X0141407Y0064338D03*
X0141547Y0064548D03*
X0149597Y0065948D03*
X0168357Y0067138D03*
X0169407Y0066088D03*
X0169547Y0063498D03*
D112*
X0169582Y0063568D03*
X0169442Y0066018D03*
X0169022Y0066368D03*
X0168882Y0066508D03*
X0149632Y0065808D03*
X0137732Y0064968D03*
X0143962Y0072808D03*
X0169722Y0078408D03*
D113*
X0169652Y0078478D03*
X0157402Y0069028D03*
X0157402Y0064688D03*
X0168952Y0066438D03*
X0169652Y0063638D03*
X0141302Y0067698D03*
X0112952Y0075538D03*
D114*
X0117187Y0075258D03*
X0113057Y0072108D03*
X0113267Y0070568D03*
X0157437Y0068958D03*
X0169617Y0065808D03*
X0169687Y0063708D03*
X0175287Y0064758D03*
X0179417Y0068468D03*
X0174447Y0075958D03*
X0170107Y0075818D03*
D115*
X0169792Y0078338D03*
X0157472Y0068888D03*
X0153482Y0067488D03*
X0153482Y0067348D03*
X0145572Y0067348D03*
X0145572Y0067488D03*
X0141372Y0067488D03*
X0144102Y0073578D03*
X0168462Y0066928D03*
X0169722Y0065738D03*
X0169792Y0063778D03*
X0179382Y0068398D03*
X0117152Y0074978D03*
X0117152Y0075048D03*
X0117152Y0075188D03*
X0112952Y0075398D03*
X0113232Y0070638D03*
D116*
X0113092Y0072038D03*
X0141442Y0064198D03*
X0157542Y0068748D03*
X0168462Y0066788D03*
X0168602Y0066648D03*
X0169862Y0063848D03*
X0179312Y0068328D03*
D117*
X0169967Y0065458D03*
X0169967Y0063918D03*
X0157507Y0064968D03*
X0178647Y0075118D03*
D118*
X0179137Y0073718D03*
X0170177Y0064058D03*
X0149387Y0064968D03*
X0126637Y0072668D03*
X0126637Y0072808D03*
D119*
X0171122Y0064128D03*
X0177632Y0066998D03*
D120*
X0178577Y0075328D03*
X0141477Y0064128D03*
D121*
X0145047Y0067628D03*
X0138047Y0074138D03*
X0165347Y0068048D03*
X0165347Y0067978D03*
X0168007Y0068328D03*
X0175917Y0064198D03*
X0178297Y0070498D03*
D122*
X0171052Y0064198D03*
D123*
X0165382Y0067628D03*
X0165382Y0067698D03*
X0158312Y0068678D03*
X0157122Y0069588D03*
X0149702Y0067978D03*
X0148442Y0065038D03*
X0150122Y0064548D03*
X0150122Y0064478D03*
X0157262Y0064198D03*
X0179732Y0069238D03*
X0166572Y0071688D03*
X0158592Y0076378D03*
X0154812Y0076378D03*
X0154812Y0076448D03*
X0133812Y0076378D03*
X0133812Y0076238D03*
X0130102Y0076378D03*
X0130102Y0076448D03*
D124*
X0123347Y0074068D03*
X0113407Y0073368D03*
X0157157Y0069518D03*
X0165487Y0069168D03*
X0168007Y0068118D03*
X0175847Y0064268D03*
X0157227Y0064268D03*
X0178507Y0071758D03*
X0169687Y0078968D03*
D125*
X0173257Y0076308D03*
X0174587Y0065808D03*
X0171017Y0064268D03*
D126*
X0169792Y0065668D03*
X0168462Y0066858D03*
X0157472Y0064758D03*
X0153552Y0067558D03*
X0145572Y0067418D03*
X0141372Y0067558D03*
X0137872Y0065808D03*
X0141442Y0064268D03*
X0117152Y0075118D03*
D127*
X0138117Y0072108D03*
X0137557Y0064268D03*
X0165347Y0067768D03*
X0165697Y0069308D03*
X0167937Y0068468D03*
X0178157Y0070218D03*
D128*
X0170947Y0064338D03*
D129*
X0170877Y0064408D03*
X0178017Y0067208D03*
X0166817Y0074208D03*
D130*
X0169547Y0078618D03*
X0179557Y0068608D03*
X0168357Y0067068D03*
X0141407Y0064408D03*
D131*
X0149702Y0067698D03*
X0165312Y0069028D03*
X0168182Y0067628D03*
X0175602Y0064478D03*
X0178682Y0072388D03*
X0151662Y0075538D03*
X0126952Y0075538D03*
X0113302Y0073648D03*
D132*
X0170807Y0064478D03*
X0174657Y0065598D03*
D133*
X0175322Y0064688D03*
X0169582Y0065878D03*
X0169512Y0065948D03*
X0169232Y0066228D03*
X0141512Y0064478D03*
X0169582Y0078548D03*
D134*
X0166607Y0073928D03*
X0166537Y0073788D03*
X0174727Y0065528D03*
X0170737Y0064548D03*
D135*
X0157367Y0064548D03*
X0141687Y0064688D03*
X0141687Y0066088D03*
X0141267Y0067838D03*
X0143927Y0072598D03*
X0151557Y0073928D03*
X0169547Y0078688D03*
X0126847Y0073928D03*
X0113337Y0072528D03*
X0112847Y0075678D03*
D136*
X0126917Y0075398D03*
X0137977Y0072598D03*
X0137977Y0072528D03*
X0143857Y0072388D03*
X0143927Y0075328D03*
X0143927Y0075398D03*
X0149667Y0067628D03*
X0141687Y0065878D03*
X0137627Y0064548D03*
X0166537Y0072388D03*
X0174797Y0075748D03*
X0169617Y0078828D03*
X0179837Y0069028D03*
D137*
X0175427Y0064618D03*
X0157367Y0069168D03*
X0149597Y0067208D03*
X0149597Y0066018D03*
X0141687Y0066018D03*
X0137697Y0064758D03*
D138*
X0170667Y0064618D03*
X0174727Y0065458D03*
D139*
X0157437Y0064618D03*
X0141617Y0064618D03*
X0141267Y0067768D03*
X0151627Y0073718D03*
X0126917Y0073718D03*
X0113267Y0072458D03*
X0113127Y0072318D03*
X0178927Y0072808D03*
D140*
X0179802Y0068958D03*
X0157262Y0069308D03*
X0137942Y0072668D03*
X0137662Y0064618D03*
X0113302Y0073718D03*
D141*
X0166362Y0073438D03*
X0169442Y0075538D03*
X0173642Y0076238D03*
X0170632Y0064688D03*
D142*
X0170562Y0064758D03*
X0178472Y0067558D03*
D143*
X0179137Y0068118D03*
X0175077Y0064968D03*
X0170107Y0065318D03*
X0151347Y0072458D03*
X0149387Y0064758D03*
X0178927Y0074418D03*
X0178997Y0074208D03*
X0113197Y0070918D03*
D144*
X0113302Y0073858D03*
X0126882Y0075118D03*
X0149632Y0067418D03*
X0149562Y0066158D03*
X0141792Y0064758D03*
X0151592Y0075118D03*
X0178822Y0072668D03*
X0179732Y0068818D03*
D145*
X0170492Y0064828D03*
D146*
X0170142Y0065248D03*
X0151382Y0072598D03*
X0151382Y0072738D03*
X0149352Y0064828D03*
X0126672Y0072738D03*
X0179032Y0073998D03*
X0179032Y0074138D03*
X0179102Y0073788D03*
D147*
X0178892Y0072738D03*
X0179592Y0068678D03*
X0166502Y0072598D03*
X0174552Y0075888D03*
X0151592Y0073788D03*
X0149562Y0066088D03*
X0137732Y0064898D03*
X0137732Y0064828D03*
X0126882Y0073788D03*
X0113302Y0073928D03*
D148*
X0170457Y0064898D03*
X0174867Y0065248D03*
X0178647Y0067698D03*
D149*
X0179032Y0072948D03*
X0174272Y0076028D03*
X0169932Y0078198D03*
X0144032Y0074278D03*
X0144032Y0074138D03*
X0144032Y0073998D03*
X0144032Y0073928D03*
X0137872Y0066298D03*
X0153482Y0067138D03*
X0157472Y0064898D03*
X0113022Y0075188D03*
D150*
X0149387Y0064898D03*
X0179137Y0073578D03*
X0179137Y0073648D03*
X0179067Y0073928D03*
D151*
X0170387Y0064968D03*
D152*
X0175042Y0065038D03*
X0178962Y0067978D03*
X0179242Y0073228D03*
X0166292Y0072948D03*
D153*
X0170142Y0075748D03*
X0178822Y0067838D03*
X0170352Y0065038D03*
D154*
X0170072Y0065388D03*
X0179172Y0068188D03*
X0166432Y0072878D03*
X0178682Y0075048D03*
X0178752Y0074838D03*
X0178822Y0074698D03*
X0157542Y0065038D03*
X0139972Y0074978D03*
X0113092Y0071898D03*
X0113232Y0070848D03*
X0113232Y0070778D03*
D155*
X0175007Y0065108D03*
D156*
X0170282Y0065108D03*
X0179242Y0073158D03*
X0170212Y0078058D03*
D157*
X0143752Y0072108D03*
X0137592Y0073718D03*
X0116662Y0075468D03*
X0113302Y0070218D03*
X0158312Y0065108D03*
D158*
X0174937Y0065178D03*
D159*
X0170247Y0065178D03*
X0178997Y0068048D03*
X0179207Y0073088D03*
X0179207Y0073298D03*
X0179207Y0073438D03*
X0174097Y0076098D03*
D160*
X0175357Y0075328D03*
X0176267Y0078478D03*
X0176127Y0078688D03*
X0158627Y0076798D03*
X0158557Y0076588D03*
X0158557Y0076448D03*
X0154777Y0076588D03*
X0154777Y0076728D03*
X0150437Y0072878D03*
X0137487Y0073648D03*
X0133847Y0076448D03*
X0133847Y0076588D03*
X0130067Y0076588D03*
X0125727Y0072878D03*
X0158487Y0065178D03*
X0165417Y0067488D03*
X0165767Y0069378D03*
X0167937Y0068678D03*
X0178087Y0070078D03*
X0178087Y0070148D03*
D161*
X0174832Y0065318D03*
D162*
X0174797Y0065388D03*
X0166257Y0073298D03*
D163*
X0178402Y0071268D03*
X0178472Y0071408D03*
X0178472Y0071618D03*
X0178402Y0071058D03*
X0178402Y0070918D03*
X0178332Y0070568D03*
X0179802Y0069168D03*
X0165312Y0068258D03*
X0165312Y0068118D03*
X0149702Y0067908D03*
X0145082Y0067558D03*
X0141932Y0065458D03*
X0137732Y0067768D03*
X0137732Y0073858D03*
X0137942Y0074068D03*
X0143892Y0075608D03*
D164*
X0151732Y0075748D03*
X0137872Y0075538D03*
X0137872Y0073998D03*
X0137802Y0073928D03*
X0138082Y0072178D03*
X0127022Y0075748D03*
X0116662Y0075398D03*
X0116662Y0075328D03*
X0113512Y0073298D03*
X0141722Y0065598D03*
X0141792Y0065528D03*
X0165312Y0068188D03*
X0168042Y0068188D03*
X0166572Y0072038D03*
X0175112Y0075538D03*
X0170212Y0075888D03*
X0178472Y0071548D03*
X0178472Y0071478D03*
X0178402Y0071198D03*
X0178402Y0071128D03*
X0178402Y0070988D03*
X0178402Y0070848D03*
D165*
X0166712Y0074068D03*
X0174622Y0065668D03*
D166*
X0174622Y0065738D03*
X0166922Y0074348D03*
D167*
X0167202Y0074698D03*
X0175602Y0066648D03*
X0174552Y0065878D03*
D168*
X0169127Y0066298D03*
X0157367Y0069098D03*
X0151627Y0073648D03*
X0143927Y0072738D03*
X0149667Y0065878D03*
X0126917Y0073648D03*
X0112987Y0072178D03*
X0113267Y0070498D03*
D169*
X0167447Y0074978D03*
X0174517Y0065948D03*
D170*
X0174517Y0066018D03*
D171*
X0168532Y0066718D03*
X0166432Y0072808D03*
X0144032Y0074068D03*
X0144032Y0074208D03*
X0137872Y0066158D03*
X0137872Y0066018D03*
X0113232Y0070708D03*
X0113022Y0075258D03*
D172*
X0167727Y0075188D03*
X0174517Y0066088D03*
D173*
X0174517Y0066158D03*
X0167797Y0075258D03*
D174*
X0174482Y0066228D03*
D175*
X0174482Y0066298D03*
D176*
X0178752Y0072528D03*
X0151662Y0075398D03*
X0151452Y0074138D03*
X0137942Y0072738D03*
X0126742Y0074138D03*
X0149492Y0066298D03*
D177*
X0174482Y0066368D03*
D178*
X0178612Y0075258D03*
X0137802Y0066508D03*
X0137802Y0066368D03*
D179*
X0171647Y0077988D03*
X0171717Y0077848D03*
X0174517Y0066438D03*
D180*
X0149352Y0066438D03*
X0126602Y0074278D03*
X0169652Y0078898D03*
X0174902Y0075678D03*
D181*
X0171857Y0077358D03*
X0174517Y0066508D03*
D182*
X0174552Y0066578D03*
X0171962Y0076938D03*
D183*
X0175987Y0066718D03*
D184*
X0177177Y0066788D03*
D185*
X0177352Y0066858D03*
D186*
X0177492Y0066928D03*
D187*
X0177807Y0067068D03*
X0167237Y0074768D03*
D188*
X0177877Y0067138D03*
D189*
X0178122Y0067278D03*
X0166782Y0074138D03*
D190*
X0166572Y0071548D03*
X0158592Y0076728D03*
X0158662Y0076938D03*
X0154742Y0076938D03*
X0154742Y0076798D03*
X0143892Y0075748D03*
X0138292Y0074348D03*
X0133882Y0076728D03*
X0133882Y0076798D03*
X0130032Y0076798D03*
X0130032Y0076728D03*
X0130032Y0076938D03*
X0127372Y0072248D03*
X0138082Y0072038D03*
X0140532Y0067278D03*
X0152992Y0067838D03*
X0177982Y0069938D03*
X0116662Y0075678D03*
X0112182Y0071828D03*
D191*
X0178192Y0067348D03*
D192*
X0178332Y0067418D03*
X0166502Y0073718D03*
D193*
X0166537Y0072458D03*
X0168287Y0067418D03*
X0151487Y0074068D03*
X0143857Y0072458D03*
X0141197Y0067908D03*
X0137767Y0067418D03*
X0126917Y0075258D03*
D194*
X0178402Y0067488D03*
D195*
X0168182Y0067488D03*
X0149632Y0067488D03*
X0137732Y0067488D03*
D196*
X0137732Y0067558D03*
X0143822Y0072318D03*
X0151382Y0074208D03*
X0151662Y0075468D03*
X0166572Y0072318D03*
X0126672Y0074208D03*
D197*
X0166187Y0073088D03*
X0178577Y0067628D03*
D198*
X0178752Y0067768D03*
D199*
X0175777Y0067768D03*
X0176827Y0073018D03*
X0174377Y0078968D03*
X0174727Y0079668D03*
D200*
X0178647Y0072318D03*
X0168147Y0067768D03*
X0165277Y0068818D03*
X0165277Y0068958D03*
X0151697Y0075608D03*
X0147987Y0074418D03*
X0147987Y0073718D03*
X0137977Y0072458D03*
X0137907Y0075118D03*
X0123277Y0074418D03*
X0123277Y0073718D03*
X0113547Y0072668D03*
D201*
X0178892Y0067908D03*
D202*
X0168007Y0068258D03*
X0165347Y0067908D03*
X0166607Y0071968D03*
X0175217Y0075468D03*
X0137837Y0075608D03*
D203*
X0113127Y0071968D03*
X0179277Y0068258D03*
D204*
X0167972Y0068398D03*
X0166572Y0071828D03*
X0166572Y0071898D03*
X0169722Y0079038D03*
D205*
X0158697Y0077218D03*
X0154707Y0077218D03*
X0154707Y0077008D03*
X0129997Y0077008D03*
X0179697Y0069308D03*
D206*
X0178227Y0070358D03*
D207*
X0178227Y0070428D03*
D208*
X0178402Y0070708D03*
X0178542Y0071968D03*
X0175042Y0075608D03*
X0166572Y0072108D03*
X0148092Y0074068D03*
X0148092Y0074208D03*
X0137872Y0075468D03*
X0123312Y0074208D03*
X0113302Y0073508D03*
D209*
X0112952Y0075468D03*
X0166502Y0072668D03*
D210*
X0179032Y0074068D03*
X0179102Y0073858D03*
X0179172Y0073508D03*
X0151382Y0072808D03*
X0151382Y0072668D03*
D211*
X0166222Y0073018D03*
X0173922Y0076168D03*
D212*
X0142387Y0073018D03*
X0139447Y0074768D03*
D213*
X0166187Y0073158D03*
D214*
X0166222Y0073228D03*
D215*
X0179207Y0073368D03*
D216*
X0166327Y0073368D03*
D217*
X0166362Y0073508D03*
X0169722Y0075608D03*
D218*
X0166432Y0073648D03*
X0166432Y0073578D03*
D219*
X0166607Y0073858D03*
D220*
X0166677Y0073998D03*
D221*
X0174727Y0075818D03*
X0151627Y0075258D03*
X0143927Y0075258D03*
X0126777Y0074068D03*
D222*
X0138082Y0074208D03*
D223*
X0166887Y0074278D03*
D224*
X0166957Y0074418D03*
D225*
X0167027Y0074488D03*
D226*
X0167062Y0074558D03*
D227*
X0167132Y0074628D03*
D228*
X0167307Y0074838D03*
D229*
X0167412Y0074908D03*
D230*
X0167517Y0075048D03*
D231*
X0167622Y0075118D03*
D232*
X0137907Y0075258D03*
D233*
X0167902Y0075328D03*
D234*
X0151627Y0075328D03*
X0112777Y0075748D03*
D235*
X0168917Y0075398D03*
D236*
X0169197Y0075468D03*
D237*
X0169967Y0075678D03*
D238*
X0171962Y0076378D03*
D239*
X0171997Y0076448D03*
D240*
X0171962Y0076518D03*
D241*
X0171997Y0076588D03*
D242*
X0171962Y0076658D03*
D243*
X0171962Y0076728D03*
D244*
X0171962Y0076798D03*
D245*
X0171962Y0076868D03*
D246*
X0171962Y0077008D03*
D247*
X0171927Y0077078D03*
X0171927Y0077148D03*
D248*
X0171892Y0077218D03*
D249*
X0171892Y0077288D03*
D250*
X0171857Y0077428D03*
D251*
X0171822Y0077498D03*
D252*
X0171787Y0077568D03*
D253*
X0171787Y0077638D03*
D254*
X0171752Y0077708D03*
D255*
X0171752Y0077778D03*
D256*
X0171647Y0077918D03*
D257*
X0101833Y0070430D02*
X0101833Y0067384D01*
X0100310Y0067384D01*
X0099802Y0067892D01*
X0099802Y0068399D01*
X0100310Y0068907D01*
X0101833Y0068907D01*
X0101833Y0070430D02*
X0100310Y0070430D01*
X0099802Y0069922D01*
X0099802Y0069415D01*
X0100310Y0068907D01*
X0098570Y0068907D02*
X0098570Y0067892D01*
X0098062Y0067384D01*
X0097047Y0067384D01*
X0096539Y0067892D01*
X0096539Y0068907D01*
X0097047Y0069415D01*
X0098062Y0069415D01*
X0098570Y0068907D01*
X0095307Y0069415D02*
X0094292Y0069415D01*
X0094800Y0069922D02*
X0094800Y0067892D01*
X0094292Y0067384D01*
X0092625Y0067892D02*
X0092117Y0067384D01*
X0092625Y0067892D02*
X0092625Y0069922D01*
X0093132Y0069415D02*
X0092117Y0069415D01*
X0090957Y0068907D02*
X0090957Y0067892D01*
X0090450Y0067384D01*
X0089434Y0067384D01*
X0088927Y0067892D01*
X0088927Y0068907D01*
X0089434Y0069415D01*
X0090450Y0069415D01*
X0090957Y0068907D01*
X0087695Y0069415D02*
X0087695Y0067384D01*
X0086679Y0067384D02*
X0086679Y0068907D01*
X0086172Y0069415D01*
X0085664Y0068907D01*
X0085664Y0067384D01*
X0086679Y0068907D02*
X0087187Y0069415D01*
X0087695Y0069415D01*
D258*
X0052116Y0054887D02*
X0049313Y0054887D01*
X0050715Y0054887D02*
X0050715Y0050684D01*
X0027675Y0077534D02*
X0028376Y0078235D01*
X0027675Y0077534D02*
X0026274Y0077534D01*
X0025573Y0078235D01*
X0025573Y0078935D01*
X0026274Y0079636D01*
X0027675Y0079636D01*
X0028376Y0080336D01*
X0028376Y0081037D01*
X0027675Y0081738D01*
X0026274Y0081738D01*
X0025573Y0081037D01*
M02*
