G75*
%MOIN*%
%OFA0B0*%
%FSLAX25Y25*%
%IPPOS*%
%LPD*%
%AMOC8*
5,1,8,0,0,1.08239X$1,22.5*
%
%ADD10C,0.01600*%
%ADD11C,0.06337*%
%ADD12C,0.10000*%
%ADD13C,0.00600*%
D10*
X0023106Y0041189D02*
X0076256Y0041189D01*
X0073705Y0043789D02*
X0023106Y0043789D01*
X0022281Y0043854D01*
X0020712Y0044364D01*
X0019377Y0045334D01*
X0018407Y0046669D01*
X0017897Y0048238D01*
X0017832Y0049063D01*
X0017832Y0064531D01*
X0018497Y0063866D01*
X0018906Y0062878D01*
X0020248Y0061537D01*
X0022000Y0060811D01*
X0023897Y0060811D01*
X0025650Y0061537D01*
X0026261Y0062148D01*
X0325744Y0062148D01*
X0325780Y0062044D01*
X0325734Y0061909D01*
X0326027Y0061315D01*
X0326240Y0060688D01*
X0326368Y0060625D01*
X0326811Y0059726D01*
X0326783Y0059587D01*
X0327151Y0059036D01*
X0327444Y0058442D01*
X0327578Y0058396D01*
X0328135Y0057563D01*
X0328126Y0057422D01*
X0328563Y0056924D01*
X0328931Y0056373D01*
X0329070Y0056345D01*
X0329730Y0055592D01*
X0329740Y0055450D01*
X0330238Y0055013D01*
X0330675Y0054515D01*
X0330816Y0054506D01*
X0331569Y0053846D01*
X0331597Y0053706D01*
X0332148Y0053338D01*
X0332646Y0052901D01*
X0332788Y0052911D01*
X0333621Y0052354D01*
X0333666Y0052220D01*
X0334261Y0051927D01*
X0334811Y0051559D01*
X0334951Y0051586D01*
X0335849Y0051143D01*
X0335912Y0051016D01*
X0336539Y0050803D01*
X0337133Y0050510D01*
X0337268Y0050556D01*
X0338217Y0050234D01*
X0338295Y0050115D01*
X0338945Y0049986D01*
X0339573Y0049773D01*
X0339700Y0049836D01*
X0340682Y0049641D01*
X0340776Y0049534D01*
X0341437Y0049491D01*
X0342087Y0049361D01*
X0342205Y0049440D01*
X0343205Y0049375D01*
X0343311Y0049281D01*
X0343972Y0049324D01*
X0344633Y0049281D01*
X0344740Y0049375D01*
X0345740Y0049440D01*
X0345858Y0049361D01*
X0346508Y0049491D01*
X0347169Y0049534D01*
X0347262Y0049641D01*
X0348245Y0049836D01*
X0348372Y0049773D01*
X0349000Y0049986D01*
X0349649Y0050115D01*
X0349728Y0050234D01*
X0350677Y0050556D01*
X0350811Y0050510D01*
X0351406Y0050803D01*
X0352033Y0051016D01*
X0352096Y0051143D01*
X0352994Y0051586D01*
X0353133Y0051559D01*
X0353684Y0051927D01*
X0354278Y0052220D01*
X0354324Y0052354D01*
X0355157Y0052911D01*
X0355299Y0052901D01*
X0355797Y0053338D01*
X0356348Y0053706D01*
X0356375Y0053846D01*
X0357129Y0054506D01*
X0357270Y0054515D01*
X0357707Y0055013D01*
X0358205Y0055450D01*
X0358214Y0055592D01*
X0358875Y0056345D01*
X0359014Y0056373D01*
X0359382Y0056924D01*
X0359819Y0057422D01*
X0359810Y0057563D01*
X0360366Y0058396D01*
X0360501Y0058442D01*
X0360794Y0059036D01*
X0361162Y0059587D01*
X0361134Y0059726D01*
X0361577Y0060625D01*
X0361705Y0060688D01*
X0361918Y0061315D01*
X0362211Y0061909D01*
X0362165Y0062044D01*
X0362487Y0062992D01*
X0362605Y0063071D01*
X0362734Y0063721D01*
X0362947Y0064348D01*
X0362884Y0064476D01*
X0363080Y0065458D01*
X0363187Y0065552D01*
X0363230Y0066213D01*
X0363359Y0066863D01*
X0363280Y0066981D01*
X0363346Y0067980D01*
X0363440Y0068087D01*
X0363396Y0068748D01*
X0363440Y0069409D01*
X0363346Y0069516D01*
X0363280Y0070516D01*
X0363359Y0070634D01*
X0363230Y0071283D01*
X0363187Y0071944D01*
X0363080Y0072038D01*
X0362884Y0073021D01*
X0362947Y0073148D01*
X0362734Y0073775D01*
X0362605Y0074425D01*
X0362487Y0074504D01*
X0362165Y0075453D01*
X0362211Y0075587D01*
X0361918Y0076181D01*
X0361705Y0076809D01*
X0361577Y0076871D01*
X0361134Y0077770D01*
X0361162Y0077909D01*
X0360794Y0078460D01*
X0360501Y0079054D01*
X0360366Y0079100D01*
X0359810Y0079933D01*
X0359819Y0080074D01*
X0359382Y0080573D01*
X0359014Y0081123D01*
X0358875Y0081151D01*
X0358214Y0081904D01*
X0358205Y0082046D01*
X0357707Y0082483D01*
X0357270Y0082981D01*
X0357129Y0082990D01*
X0356375Y0083651D01*
X0356348Y0083790D01*
X0355797Y0084158D01*
X0355299Y0084595D01*
X0355157Y0084586D01*
X0354324Y0085142D01*
X0354278Y0085277D01*
X0353684Y0085570D01*
X0353133Y0085938D01*
X0352994Y0085910D01*
X0352096Y0086353D01*
X0352033Y0086480D01*
X0351406Y0086693D01*
X0350811Y0086986D01*
X0350677Y0086941D01*
X0349728Y0087263D01*
X0349649Y0087381D01*
X0349000Y0087510D01*
X0348372Y0087723D01*
X0348245Y0087660D01*
X0347262Y0087856D01*
X0347169Y0087962D01*
X0346508Y0088006D01*
X0345858Y0088135D01*
X0345740Y0088056D01*
X0344740Y0088122D01*
X0344633Y0088215D01*
X0343972Y0088172D01*
X0343311Y0088215D01*
X0343205Y0088122D01*
X0342205Y0088056D01*
X0342087Y0088135D01*
X0341437Y0088006D01*
X0340776Y0087962D01*
X0340682Y0087856D01*
X0339700Y0087660D01*
X0339573Y0087723D01*
X0338945Y0087510D01*
X0338295Y0087381D01*
X0338217Y0087263D01*
X0337268Y0086941D01*
X0337133Y0086986D01*
X0336539Y0086693D01*
X0335912Y0086480D01*
X0335849Y0086353D01*
X0334951Y0085910D01*
X0334811Y0085938D01*
X0334261Y0085570D01*
X0333666Y0085277D01*
X0333621Y0085142D01*
X0332788Y0084586D01*
X0332646Y0084595D01*
X0332148Y0084158D01*
X0331597Y0083790D01*
X0331569Y0083651D01*
X0330816Y0082990D01*
X0330675Y0082981D01*
X0330238Y0082483D01*
X0329740Y0082046D01*
X0329730Y0081904D01*
X0329070Y0081151D01*
X0328931Y0081123D01*
X0328563Y0080573D01*
X0328126Y0080074D01*
X0328135Y0079933D01*
X0327578Y0079100D01*
X0327444Y0079054D01*
X0327151Y0078460D01*
X0326783Y0077909D01*
X0326811Y0077770D01*
X0326368Y0076871D01*
X0326240Y0076809D01*
X0326027Y0076181D01*
X0325734Y0075587D01*
X0325780Y0075453D01*
X0325744Y0075348D01*
X0026261Y0075348D01*
X0025650Y0075959D01*
X0023897Y0076685D01*
X0022000Y0076685D01*
X0020248Y0075959D01*
X0018906Y0074618D01*
X0018497Y0073630D01*
X0017832Y0072965D01*
X0017832Y0088433D01*
X0017897Y0089258D01*
X0018407Y0090827D01*
X0019377Y0092162D01*
X0020712Y0093132D01*
X0022281Y0093642D01*
X0023106Y0093707D01*
X0073705Y0093707D01*
X0074906Y0089225D01*
X0077322Y0085041D01*
X0080738Y0081625D01*
X0084922Y0079210D01*
X0089588Y0077959D01*
X0272639Y0077959D01*
X0273117Y0078157D01*
X0275339Y0079078D01*
X0275339Y0079078D01*
X0279340Y0081751D01*
X0282742Y0085152D01*
X0285415Y0089153D01*
X0286275Y0091229D01*
X0286533Y0091853D01*
X0286533Y0105250D01*
X0288994Y0108369D01*
X0295663Y0115234D01*
X0303208Y0121124D01*
X0311488Y0125926D01*
X0320345Y0129552D01*
X0329616Y0131932D01*
X0339125Y0133023D01*
X0343910Y0133078D01*
X0343922Y0133078D01*
X0343937Y0133077D01*
X0348450Y0132849D01*
X0357377Y0131429D01*
X0366011Y0128753D01*
X0374176Y0124876D01*
X0381706Y0119876D01*
X0388449Y0113856D01*
X0394265Y0106937D01*
X0399038Y0099261D01*
X0402670Y0090983D01*
X0405087Y0082273D01*
X0406239Y0073308D01*
X0406329Y0068985D01*
X0406333Y0068748D01*
X0363396Y0068748D01*
X0363291Y0070347D02*
X0406301Y0070347D01*
X0406268Y0071945D02*
X0363186Y0071945D01*
X0362813Y0073544D02*
X0406209Y0073544D01*
X0406004Y0075142D02*
X0362270Y0075142D01*
X0361728Y0076741D02*
X0405798Y0076741D01*
X0405593Y0078339D02*
X0360875Y0078339D01*
X0359810Y0079938D02*
X0405387Y0079938D01*
X0405181Y0081536D02*
X0358537Y0081536D01*
X0356964Y0083135D02*
X0404848Y0083135D01*
X0404404Y0084733D02*
X0354936Y0084733D01*
X0352139Y0086332D02*
X0403961Y0086332D01*
X0403517Y0087930D02*
X0347197Y0087930D01*
X0340748Y0087930D02*
X0284598Y0087930D01*
X0283530Y0086332D02*
X0335806Y0086332D01*
X0333009Y0084733D02*
X0282322Y0084733D01*
X0282742Y0085152D02*
X0282742Y0085152D01*
X0280724Y0083135D02*
X0330981Y0083135D01*
X0329408Y0081536D02*
X0279019Y0081536D01*
X0279340Y0081751D02*
X0279340Y0081751D01*
X0276627Y0079938D02*
X0328135Y0079938D01*
X0327070Y0078339D02*
X0273557Y0078339D01*
X0272122Y0080559D02*
X0092004Y0080559D01*
X0088170Y0078339D02*
X0017832Y0078339D01*
X0017832Y0076741D02*
X0326217Y0076741D01*
X0283933Y0031347D02*
X0284980Y0029958D01*
X0286059Y0028595D01*
X0287171Y0027258D01*
X0288314Y0025949D01*
X0289489Y0024667D01*
X0290694Y0023413D01*
X0291929Y0022189D01*
X0293192Y0020995D01*
X0294484Y0019832D01*
X0295804Y0018700D01*
X0297150Y0017600D01*
X0298523Y0016532D01*
X0299920Y0015498D01*
X0301342Y0014498D01*
X0302788Y0013532D01*
X0304256Y0012601D01*
X0305747Y0011705D01*
X0307258Y0010846D01*
X0308790Y0010023D01*
X0310340Y0009237D01*
X0311910Y0008488D01*
X0313496Y0007778D01*
X0315100Y0007105D01*
X0316719Y0006472D01*
X0318353Y0005877D01*
X0320000Y0005322D01*
X0321661Y0004806D01*
X0323333Y0004331D01*
X0325016Y0003895D01*
X0326709Y0003500D01*
X0328412Y0003146D01*
X0330122Y0002833D01*
X0331839Y0002561D01*
X0333562Y0002331D01*
X0335291Y0002141D01*
X0337023Y0001993D01*
X0338758Y0001887D01*
X0340496Y0001823D01*
X0342234Y0001800D01*
X0343973Y0001819D01*
X0343910Y0004418D02*
X0343922Y0004419D01*
X0343937Y0004419D01*
X0348450Y0004648D01*
X0357377Y0006067D01*
X0366011Y0008743D01*
X0374176Y0012620D01*
X0381706Y0017620D01*
X0388449Y0023641D01*
X0394265Y0030559D01*
X0394265Y0030559D01*
X0399038Y0038236D01*
X0402670Y0046513D01*
X0405087Y0055223D01*
X0406239Y0064188D01*
X0406329Y0068511D01*
X0406333Y0068748D01*
X0406301Y0067150D02*
X0363291Y0067150D01*
X0363186Y0065551D02*
X0406268Y0065551D01*
X0406209Y0063953D02*
X0362813Y0063953D01*
X0362270Y0062354D02*
X0406004Y0062354D01*
X0405798Y0060756D02*
X0361728Y0060756D01*
X0360875Y0059157D02*
X0405593Y0059157D01*
X0405387Y0057559D02*
X0359810Y0057559D01*
X0358537Y0055960D02*
X0405182Y0055960D01*
X0404848Y0054362D02*
X0356964Y0054362D01*
X0354936Y0052763D02*
X0404404Y0052763D01*
X0403961Y0051164D02*
X0352139Y0051164D01*
X0347197Y0049566D02*
X0403517Y0049566D01*
X0403073Y0047967D02*
X0285570Y0047967D01*
X0285415Y0048343D02*
X0286335Y0046121D01*
X0286471Y0045794D01*
X0286533Y0045643D01*
X0286533Y0032246D01*
X0288994Y0029127D01*
X0295663Y0022262D01*
X0303208Y0016373D01*
X0311488Y0011570D01*
X0320345Y0007944D01*
X0329616Y0005564D01*
X0339125Y0004473D01*
X0343910Y0004418D01*
X0349457Y0004808D02*
X0336206Y0004808D01*
X0326336Y0006406D02*
X0358471Y0006406D01*
X0363629Y0008005D02*
X0320198Y0008005D01*
X0316293Y0009603D02*
X0367822Y0009603D01*
X0371189Y0011202D02*
X0312388Y0011202D01*
X0309367Y0012800D02*
X0374447Y0012800D01*
X0376855Y0014399D02*
X0306611Y0014399D01*
X0303855Y0015997D02*
X0379262Y0015997D01*
X0381670Y0017596D02*
X0301641Y0017596D01*
X0299593Y0019194D02*
X0383469Y0019194D01*
X0385259Y0020793D02*
X0297545Y0020793D01*
X0295538Y0022391D02*
X0387050Y0022391D01*
X0388742Y0023990D02*
X0293985Y0023990D01*
X0292432Y0025588D02*
X0390086Y0025588D01*
X0391430Y0027187D02*
X0290879Y0027187D01*
X0289326Y0028785D02*
X0392774Y0028785D01*
X0394118Y0030384D02*
X0288003Y0030384D01*
X0286741Y0031982D02*
X0395150Y0031982D01*
X0396144Y0033581D02*
X0286533Y0033581D01*
X0286533Y0035179D02*
X0397138Y0035179D01*
X0398132Y0036778D02*
X0286533Y0036778D01*
X0286533Y0038376D02*
X0399100Y0038376D01*
X0399801Y0039975D02*
X0286533Y0039975D01*
X0286533Y0041573D02*
X0400503Y0041573D01*
X0401204Y0043172D02*
X0286533Y0043172D01*
X0286533Y0044770D02*
X0401905Y0044770D01*
X0402607Y0046369D02*
X0286232Y0046369D01*
X0283933Y0045126D02*
X0283933Y0031347D01*
X0283933Y0045126D02*
X0283728Y0045603D01*
X0283513Y0046076D01*
X0283286Y0046543D01*
X0283048Y0047004D01*
X0282799Y0047460D01*
X0282539Y0047910D01*
X0282269Y0048354D01*
X0281988Y0048791D01*
X0281697Y0049221D01*
X0281395Y0049644D01*
X0281084Y0050060D01*
X0280763Y0050468D01*
X0280432Y0050868D01*
X0280092Y0051261D01*
X0279743Y0051645D01*
X0279384Y0052021D01*
X0279017Y0052388D01*
X0278641Y0052747D01*
X0278257Y0053096D01*
X0277864Y0053436D01*
X0277464Y0053767D01*
X0277056Y0054088D01*
X0276640Y0054399D01*
X0276217Y0054701D01*
X0275787Y0054992D01*
X0275350Y0055273D01*
X0274906Y0055543D01*
X0274456Y0055803D01*
X0274000Y0056052D01*
X0273539Y0056290D01*
X0273072Y0056517D01*
X0272599Y0056732D01*
X0272122Y0056937D01*
X0092004Y0056937D01*
X0089588Y0059537D02*
X0084922Y0058287D01*
X0080738Y0055871D01*
X0077322Y0052455D01*
X0077322Y0052455D01*
X0074906Y0048271D01*
X0073705Y0043789D01*
X0073968Y0044770D02*
X0020152Y0044770D01*
X0018625Y0046369D02*
X0032356Y0046369D01*
X0032611Y0046263D02*
X0030859Y0046989D01*
X0029517Y0048330D01*
X0028791Y0050083D01*
X0028791Y0051980D01*
X0029517Y0053733D01*
X0030859Y0055074D01*
X0032611Y0055800D01*
X0040845Y0055800D01*
X0042598Y0055074D01*
X0043939Y0053733D01*
X0044665Y0051980D01*
X0044665Y0050083D01*
X0043939Y0048330D01*
X0042598Y0046989D01*
X0040845Y0046263D01*
X0032611Y0046263D01*
X0029880Y0047967D02*
X0017985Y0047967D01*
X0015232Y0049063D02*
X0015232Y0088433D01*
X0017832Y0087930D02*
X0047689Y0087930D01*
X0047689Y0087485D02*
X0048415Y0085732D01*
X0049756Y0084391D01*
X0051509Y0083665D01*
X0059743Y0083665D01*
X0061496Y0084391D01*
X0062837Y0085732D01*
X0063563Y0087485D01*
X0063563Y0089382D01*
X0062837Y0091134D01*
X0061496Y0092476D01*
X0059743Y0093202D01*
X0051509Y0093202D01*
X0049756Y0092476D01*
X0048415Y0091134D01*
X0047689Y0089382D01*
X0047689Y0087485D01*
X0048167Y0086332D02*
X0017832Y0086332D01*
X0017832Y0084733D02*
X0049414Y0084733D01*
X0061838Y0084733D02*
X0077630Y0084733D01*
X0077322Y0085041D02*
X0077322Y0085041D01*
X0076577Y0086332D02*
X0063085Y0086332D01*
X0063563Y0087930D02*
X0075654Y0087930D01*
X0074906Y0089225D02*
X0074906Y0089225D01*
X0074825Y0089529D02*
X0063502Y0089529D01*
X0062840Y0091127D02*
X0074397Y0091127D01*
X0073968Y0092726D02*
X0060892Y0092726D01*
X0050360Y0092726D02*
X0020152Y0092726D01*
X0018625Y0091127D02*
X0048412Y0091127D01*
X0047750Y0089529D02*
X0017985Y0089529D01*
X0015232Y0088433D02*
X0015234Y0088623D01*
X0015241Y0088813D01*
X0015253Y0089003D01*
X0015269Y0089193D01*
X0015289Y0089382D01*
X0015315Y0089571D01*
X0015344Y0089759D01*
X0015379Y0089946D01*
X0015418Y0090132D01*
X0015461Y0090317D01*
X0015509Y0090502D01*
X0015561Y0090685D01*
X0015617Y0090866D01*
X0015678Y0091046D01*
X0015744Y0091225D01*
X0015813Y0091402D01*
X0015887Y0091578D01*
X0015965Y0091751D01*
X0016048Y0091923D01*
X0016134Y0092092D01*
X0016224Y0092260D01*
X0016319Y0092425D01*
X0016417Y0092588D01*
X0016520Y0092748D01*
X0016626Y0092906D01*
X0016736Y0093061D01*
X0016849Y0093214D01*
X0016967Y0093364D01*
X0017088Y0093510D01*
X0017212Y0093654D01*
X0017340Y0093795D01*
X0017471Y0093933D01*
X0017606Y0094068D01*
X0017744Y0094199D01*
X0017885Y0094327D01*
X0018029Y0094451D01*
X0018175Y0094572D01*
X0018325Y0094690D01*
X0018478Y0094803D01*
X0018633Y0094913D01*
X0018791Y0095019D01*
X0018951Y0095122D01*
X0019114Y0095220D01*
X0019279Y0095315D01*
X0019447Y0095405D01*
X0019616Y0095491D01*
X0019788Y0095574D01*
X0019961Y0095652D01*
X0020137Y0095726D01*
X0020314Y0095795D01*
X0020493Y0095861D01*
X0020673Y0095922D01*
X0020854Y0095978D01*
X0021037Y0096030D01*
X0021222Y0096078D01*
X0021407Y0096121D01*
X0021593Y0096160D01*
X0021780Y0096195D01*
X0021968Y0096224D01*
X0022157Y0096250D01*
X0022346Y0096270D01*
X0022536Y0096286D01*
X0022726Y0096298D01*
X0022916Y0096305D01*
X0023106Y0096307D01*
X0076256Y0096307D01*
X0076261Y0095926D01*
X0076274Y0095546D01*
X0076297Y0095166D01*
X0076330Y0094787D01*
X0076371Y0094409D01*
X0076421Y0094032D01*
X0076481Y0093656D01*
X0076549Y0093281D01*
X0076627Y0092909D01*
X0076714Y0092538D01*
X0076809Y0092170D01*
X0076914Y0091804D01*
X0077027Y0091441D01*
X0077149Y0091080D01*
X0077279Y0090723D01*
X0077419Y0090369D01*
X0077566Y0090018D01*
X0077723Y0089671D01*
X0077887Y0089328D01*
X0078060Y0088989D01*
X0078241Y0088654D01*
X0078430Y0088323D01*
X0078627Y0087998D01*
X0078831Y0087677D01*
X0079044Y0087361D01*
X0079264Y0087051D01*
X0079491Y0086745D01*
X0079726Y0086446D01*
X0079968Y0086152D01*
X0080216Y0085864D01*
X0080472Y0085582D01*
X0080735Y0085307D01*
X0081004Y0085038D01*
X0081279Y0084775D01*
X0081561Y0084519D01*
X0081849Y0084271D01*
X0082143Y0084029D01*
X0082442Y0083794D01*
X0082748Y0083567D01*
X0083058Y0083347D01*
X0083374Y0083134D01*
X0083695Y0082930D01*
X0084020Y0082733D01*
X0084351Y0082544D01*
X0084686Y0082363D01*
X0085025Y0082190D01*
X0085368Y0082026D01*
X0085715Y0081869D01*
X0086066Y0081722D01*
X0086420Y0081582D01*
X0086777Y0081452D01*
X0087138Y0081330D01*
X0087501Y0081217D01*
X0087867Y0081112D01*
X0088235Y0081017D01*
X0088606Y0080930D01*
X0088978Y0080852D01*
X0089353Y0080784D01*
X0089729Y0080724D01*
X0090106Y0080674D01*
X0090484Y0080633D01*
X0090863Y0080600D01*
X0091243Y0080577D01*
X0091623Y0080564D01*
X0092004Y0080559D01*
X0084922Y0079210D02*
X0084922Y0079210D01*
X0083661Y0079938D02*
X0017832Y0079938D01*
X0017832Y0081536D02*
X0080892Y0081536D01*
X0080738Y0081625D02*
X0080738Y0081625D01*
X0080738Y0081625D01*
X0079228Y0083135D02*
X0017832Y0083135D01*
X0017832Y0075142D02*
X0019431Y0075142D01*
X0018411Y0073544D02*
X0017832Y0073544D01*
X0017832Y0063953D02*
X0018411Y0063953D01*
X0017832Y0062354D02*
X0019431Y0062354D01*
X0017832Y0060756D02*
X0326217Y0060756D01*
X0327070Y0059157D02*
X0273557Y0059157D01*
X0273117Y0059339D02*
X0272639Y0059537D01*
X0089588Y0059537D01*
X0088170Y0059157D02*
X0017832Y0059157D01*
X0017832Y0057559D02*
X0083661Y0057559D01*
X0080892Y0055960D02*
X0017832Y0055960D01*
X0017832Y0054362D02*
X0030146Y0054362D01*
X0029116Y0052763D02*
X0017832Y0052763D01*
X0017832Y0051164D02*
X0028791Y0051164D01*
X0029006Y0049566D02*
X0017832Y0049566D01*
X0015232Y0049063D02*
X0015234Y0048873D01*
X0015241Y0048683D01*
X0015253Y0048493D01*
X0015269Y0048303D01*
X0015289Y0048114D01*
X0015315Y0047925D01*
X0015344Y0047737D01*
X0015379Y0047550D01*
X0015418Y0047364D01*
X0015461Y0047179D01*
X0015509Y0046994D01*
X0015561Y0046811D01*
X0015617Y0046630D01*
X0015678Y0046450D01*
X0015744Y0046271D01*
X0015813Y0046094D01*
X0015887Y0045918D01*
X0015965Y0045745D01*
X0016048Y0045573D01*
X0016134Y0045404D01*
X0016224Y0045236D01*
X0016319Y0045071D01*
X0016417Y0044908D01*
X0016520Y0044748D01*
X0016626Y0044590D01*
X0016736Y0044435D01*
X0016849Y0044282D01*
X0016967Y0044132D01*
X0017088Y0043986D01*
X0017212Y0043842D01*
X0017340Y0043701D01*
X0017471Y0043563D01*
X0017606Y0043428D01*
X0017744Y0043297D01*
X0017885Y0043169D01*
X0018029Y0043045D01*
X0018175Y0042924D01*
X0018325Y0042806D01*
X0018478Y0042693D01*
X0018633Y0042583D01*
X0018791Y0042477D01*
X0018951Y0042374D01*
X0019114Y0042276D01*
X0019279Y0042181D01*
X0019447Y0042091D01*
X0019616Y0042005D01*
X0019788Y0041922D01*
X0019961Y0041844D01*
X0020137Y0041770D01*
X0020314Y0041701D01*
X0020493Y0041635D01*
X0020673Y0041574D01*
X0020854Y0041518D01*
X0021037Y0041466D01*
X0021222Y0041418D01*
X0021407Y0041375D01*
X0021593Y0041336D01*
X0021780Y0041301D01*
X0021968Y0041272D01*
X0022157Y0041246D01*
X0022346Y0041226D01*
X0022536Y0041210D01*
X0022726Y0041198D01*
X0022916Y0041191D01*
X0023106Y0041189D01*
X0041101Y0046369D02*
X0074397Y0046369D01*
X0074825Y0047967D02*
X0043576Y0047967D01*
X0044451Y0049566D02*
X0075654Y0049566D01*
X0074906Y0048271D02*
X0074906Y0048271D01*
X0076577Y0051164D02*
X0044665Y0051164D01*
X0044341Y0052763D02*
X0077630Y0052763D01*
X0077322Y0052455D02*
X0077322Y0052455D01*
X0079228Y0054362D02*
X0043311Y0054362D01*
X0080738Y0055871D02*
X0080738Y0055871D01*
X0092004Y0056937D02*
X0091623Y0056932D01*
X0091243Y0056919D01*
X0090863Y0056896D01*
X0090484Y0056863D01*
X0090106Y0056822D01*
X0089729Y0056772D01*
X0089353Y0056712D01*
X0088978Y0056644D01*
X0088606Y0056566D01*
X0088235Y0056479D01*
X0087867Y0056384D01*
X0087501Y0056279D01*
X0087138Y0056166D01*
X0086777Y0056044D01*
X0086420Y0055914D01*
X0086066Y0055774D01*
X0085715Y0055627D01*
X0085368Y0055470D01*
X0085025Y0055306D01*
X0084686Y0055133D01*
X0084351Y0054952D01*
X0084020Y0054763D01*
X0083695Y0054566D01*
X0083374Y0054362D01*
X0083058Y0054149D01*
X0082748Y0053929D01*
X0082442Y0053702D01*
X0082143Y0053467D01*
X0081849Y0053225D01*
X0081561Y0052977D01*
X0081279Y0052721D01*
X0081004Y0052458D01*
X0080735Y0052189D01*
X0080472Y0051914D01*
X0080216Y0051632D01*
X0079968Y0051344D01*
X0079726Y0051050D01*
X0079491Y0050751D01*
X0079264Y0050445D01*
X0079044Y0050135D01*
X0078831Y0049819D01*
X0078627Y0049498D01*
X0078430Y0049173D01*
X0078241Y0048842D01*
X0078060Y0048507D01*
X0077887Y0048168D01*
X0077723Y0047825D01*
X0077566Y0047478D01*
X0077419Y0047127D01*
X0077279Y0046773D01*
X0077149Y0046416D01*
X0077027Y0046055D01*
X0076914Y0045692D01*
X0076809Y0045326D01*
X0076714Y0044958D01*
X0076627Y0044587D01*
X0076549Y0044215D01*
X0076481Y0043840D01*
X0076421Y0043464D01*
X0076371Y0043087D01*
X0076330Y0042709D01*
X0076297Y0042330D01*
X0076274Y0041950D01*
X0076261Y0041570D01*
X0076256Y0041189D01*
X0272122Y0080559D02*
X0272614Y0080770D01*
X0273101Y0080993D01*
X0273582Y0081228D01*
X0274058Y0081475D01*
X0274527Y0081733D01*
X0274990Y0082003D01*
X0275446Y0082284D01*
X0275895Y0082576D01*
X0276336Y0082879D01*
X0276771Y0083193D01*
X0277197Y0083517D01*
X0277615Y0083852D01*
X0278025Y0084197D01*
X0278426Y0084551D01*
X0278819Y0084916D01*
X0279202Y0085290D01*
X0279576Y0085673D01*
X0279941Y0086066D01*
X0280295Y0086467D01*
X0280640Y0086877D01*
X0280975Y0087295D01*
X0281299Y0087721D01*
X0281613Y0088156D01*
X0281916Y0088597D01*
X0282208Y0089046D01*
X0282489Y0089502D01*
X0282759Y0089965D01*
X0283017Y0090434D01*
X0283264Y0090910D01*
X0283499Y0091391D01*
X0283722Y0091878D01*
X0283933Y0092370D01*
X0283933Y0106150D01*
X0286741Y0105514D02*
X0395150Y0105514D01*
X0396144Y0103915D02*
X0286533Y0103915D01*
X0286533Y0102317D02*
X0397138Y0102317D01*
X0398132Y0100718D02*
X0286533Y0100718D01*
X0286533Y0099120D02*
X0399100Y0099120D01*
X0399801Y0097521D02*
X0286533Y0097521D01*
X0286533Y0095923D02*
X0400503Y0095923D01*
X0401204Y0094324D02*
X0286533Y0094324D01*
X0286533Y0092726D02*
X0401905Y0092726D01*
X0402607Y0091127D02*
X0286232Y0091127D01*
X0285570Y0089529D02*
X0403073Y0089529D01*
X0394118Y0107112D02*
X0288003Y0107112D01*
X0289326Y0108711D02*
X0392774Y0108711D01*
X0391430Y0110309D02*
X0290879Y0110309D01*
X0292432Y0111908D02*
X0390086Y0111908D01*
X0388742Y0113506D02*
X0293985Y0113506D01*
X0295538Y0115105D02*
X0387049Y0115105D01*
X0385259Y0116703D02*
X0297545Y0116703D01*
X0299593Y0118302D02*
X0383469Y0118302D01*
X0381670Y0119900D02*
X0301641Y0119900D01*
X0303855Y0121499D02*
X0379262Y0121499D01*
X0376855Y0123098D02*
X0306611Y0123098D01*
X0309367Y0124696D02*
X0374447Y0124696D01*
X0371189Y0126295D02*
X0312388Y0126295D01*
X0316293Y0127893D02*
X0367822Y0127893D01*
X0363628Y0129492D02*
X0320198Y0129492D01*
X0326336Y0131090D02*
X0358470Y0131090D01*
X0349457Y0132689D02*
X0336206Y0132689D01*
X0343972Y0135677D02*
X0345565Y0135634D01*
X0347157Y0135552D01*
X0348746Y0135432D01*
X0350332Y0135274D01*
X0351914Y0135077D01*
X0353490Y0134842D01*
X0355060Y0134570D01*
X0356624Y0134259D01*
X0358179Y0133911D01*
X0359725Y0133525D01*
X0361262Y0133102D01*
X0362788Y0132642D01*
X0364302Y0132145D01*
X0365804Y0131612D01*
X0367293Y0131042D01*
X0368767Y0130437D01*
X0370226Y0129796D01*
X0371670Y0129121D01*
X0373096Y0128410D01*
X0374506Y0127666D01*
X0375896Y0126887D01*
X0377268Y0126075D01*
X0378619Y0125231D01*
X0379950Y0124353D01*
X0381259Y0123444D01*
X0382546Y0122504D01*
X0383809Y0121533D01*
X0385049Y0120531D01*
X0386264Y0119500D01*
X0387454Y0118440D01*
X0388618Y0117351D01*
X0389755Y0116234D01*
X0390865Y0115091D01*
X0391947Y0113921D01*
X0393001Y0112725D01*
X0394025Y0111504D01*
X0395020Y0110258D01*
X0395984Y0108989D01*
X0396917Y0107697D01*
X0397819Y0106383D01*
X0398688Y0105047D01*
X0399525Y0103691D01*
X0400329Y0102315D01*
X0401100Y0100920D01*
X0401836Y0099507D01*
X0402539Y0098076D01*
X0403206Y0096629D01*
X0403839Y0095166D01*
X0404435Y0093688D01*
X0404996Y0092196D01*
X0405521Y0090691D01*
X0406009Y0089174D01*
X0406461Y0087645D01*
X0406875Y0086106D01*
X0407252Y0084558D01*
X0407591Y0083001D01*
X0407893Y0081436D01*
X0408157Y0079864D01*
X0408383Y0078286D01*
X0408570Y0076704D01*
X0408720Y0075117D01*
X0408831Y0073527D01*
X0408903Y0071935D01*
X0408937Y0070342D01*
X0408933Y0068748D01*
X0408937Y0067154D01*
X0408903Y0065561D01*
X0408831Y0063969D01*
X0408720Y0062379D01*
X0408570Y0060792D01*
X0408383Y0059210D01*
X0408157Y0057632D01*
X0407893Y0056060D01*
X0407591Y0054495D01*
X0407252Y0052938D01*
X0406875Y0051390D01*
X0406461Y0049851D01*
X0406009Y0048322D01*
X0405521Y0046805D01*
X0404996Y0045300D01*
X0404435Y0043808D01*
X0403839Y0042330D01*
X0403206Y0040867D01*
X0402539Y0039420D01*
X0401836Y0037989D01*
X0401100Y0036576D01*
X0400329Y0035181D01*
X0399525Y0033805D01*
X0398688Y0032449D01*
X0397819Y0031113D01*
X0396917Y0029799D01*
X0395984Y0028507D01*
X0395020Y0027238D01*
X0394025Y0025992D01*
X0393001Y0024771D01*
X0391947Y0023575D01*
X0390865Y0022405D01*
X0389755Y0021262D01*
X0388618Y0020145D01*
X0387454Y0019056D01*
X0386264Y0017996D01*
X0385049Y0016965D01*
X0383809Y0015963D01*
X0382546Y0014992D01*
X0381259Y0014052D01*
X0379950Y0013143D01*
X0378619Y0012265D01*
X0377268Y0011421D01*
X0375896Y0010609D01*
X0374506Y0009830D01*
X0373096Y0009086D01*
X0371670Y0008375D01*
X0370226Y0007700D01*
X0368767Y0007059D01*
X0367293Y0006454D01*
X0365804Y0005884D01*
X0364302Y0005351D01*
X0362788Y0004854D01*
X0361262Y0004394D01*
X0359725Y0003971D01*
X0358179Y0003585D01*
X0356624Y0003237D01*
X0355060Y0002926D01*
X0353490Y0002654D01*
X0351914Y0002419D01*
X0350332Y0002222D01*
X0348746Y0002064D01*
X0347157Y0001944D01*
X0345565Y0001862D01*
X0343972Y0001819D01*
X0285415Y0048343D02*
X0285415Y0048343D01*
X0282742Y0052344D01*
X0279340Y0055746D01*
X0279340Y0055746D01*
X0275339Y0058419D01*
X0273117Y0059339D01*
X0275339Y0058419D02*
X0275339Y0058419D01*
X0276627Y0057559D02*
X0328135Y0057559D01*
X0329408Y0055960D02*
X0279019Y0055960D01*
X0280724Y0054362D02*
X0330981Y0054362D01*
X0333009Y0052763D02*
X0282322Y0052763D01*
X0282742Y0052344D02*
X0282742Y0052344D01*
X0283530Y0051164D02*
X0335806Y0051164D01*
X0340748Y0049566D02*
X0284598Y0049566D01*
X0283933Y0106149D02*
X0284980Y0107538D01*
X0286059Y0108901D01*
X0287171Y0110238D01*
X0288314Y0111547D01*
X0289489Y0112829D01*
X0290694Y0114083D01*
X0291929Y0115307D01*
X0293192Y0116501D01*
X0294484Y0117664D01*
X0295804Y0118796D01*
X0297150Y0119896D01*
X0298523Y0120964D01*
X0299920Y0121998D01*
X0301342Y0122998D01*
X0302788Y0123964D01*
X0304256Y0124895D01*
X0305747Y0125791D01*
X0307258Y0126650D01*
X0308790Y0127473D01*
X0310340Y0128259D01*
X0311910Y0129008D01*
X0313496Y0129718D01*
X0315100Y0130391D01*
X0316719Y0131024D01*
X0318353Y0131619D01*
X0320000Y0132174D01*
X0321661Y0132690D01*
X0323333Y0133165D01*
X0325016Y0133601D01*
X0326709Y0133996D01*
X0328412Y0134350D01*
X0330122Y0134663D01*
X0331839Y0134935D01*
X0333562Y0135165D01*
X0335291Y0135355D01*
X0337023Y0135503D01*
X0338758Y0135609D01*
X0340496Y0135673D01*
X0342234Y0135696D01*
X0343973Y0135677D01*
D11*
X0058794Y0088433D02*
X0052457Y0088433D01*
X0022949Y0071917D02*
X0022949Y0065580D01*
X0033560Y0051032D02*
X0039897Y0051032D01*
D12*
X0022949Y0068748D02*
X0343972Y0068748D01*
D13*
X0326531Y0067551D02*
X0361414Y0067551D01*
X0361374Y0066953D02*
X0326570Y0066953D01*
X0326603Y0066461D02*
X0326453Y0068748D01*
X0361492Y0068748D01*
X0361342Y0066461D01*
X0360895Y0064214D01*
X0360159Y0062044D01*
X0359145Y0059988D01*
X0357872Y0058083D01*
X0356361Y0056360D01*
X0354638Y0054849D01*
X0352732Y0053576D01*
X0350677Y0052562D01*
X0348507Y0051825D01*
X0346259Y0051378D01*
X0343972Y0051228D01*
X0341686Y0051378D01*
X0339438Y0051825D01*
X0337268Y0052562D01*
X0335213Y0053576D01*
X0333307Y0054849D01*
X0331584Y0056360D01*
X0330073Y0058083D01*
X0328800Y0059988D01*
X0327786Y0062044D01*
X0327050Y0064214D01*
X0326603Y0066461D01*
X0326624Y0066354D02*
X0361321Y0066354D01*
X0361202Y0065756D02*
X0326743Y0065756D01*
X0326862Y0065157D02*
X0361083Y0065157D01*
X0360964Y0064559D02*
X0326981Y0064559D01*
X0327136Y0063960D02*
X0360809Y0063960D01*
X0360606Y0063362D02*
X0327339Y0063362D01*
X0327542Y0062763D02*
X0360403Y0062763D01*
X0360200Y0062164D02*
X0327745Y0062164D01*
X0328022Y0061566D02*
X0359923Y0061566D01*
X0359628Y0060967D02*
X0328317Y0060967D01*
X0328612Y0060369D02*
X0359333Y0060369D01*
X0358999Y0059770D02*
X0328946Y0059770D01*
X0329345Y0059172D02*
X0358599Y0059172D01*
X0358200Y0058573D02*
X0329745Y0058573D01*
X0330168Y0057975D02*
X0357777Y0057975D01*
X0357252Y0057376D02*
X0330693Y0057376D01*
X0331218Y0056778D02*
X0356727Y0056778D01*
X0356155Y0056179D02*
X0331790Y0056179D01*
X0332472Y0055581D02*
X0355473Y0055581D01*
X0354790Y0054982D02*
X0333155Y0054982D01*
X0334003Y0054384D02*
X0353942Y0054384D01*
X0353046Y0053785D02*
X0334899Y0053785D01*
X0336001Y0053187D02*
X0351944Y0053187D01*
X0350730Y0052588D02*
X0337215Y0052588D01*
X0338954Y0051990D02*
X0348991Y0051990D01*
X0346324Y0051391D02*
X0341620Y0051391D01*
X0326492Y0068150D02*
X0361453Y0068150D01*
X0361492Y0068748D02*
X0361342Y0071035D01*
X0360895Y0073283D01*
X0360159Y0075453D01*
X0359145Y0077508D01*
X0357872Y0079413D01*
X0356361Y0081136D01*
X0354638Y0082647D01*
X0352732Y0083921D01*
X0350677Y0084934D01*
X0348507Y0085671D01*
X0346259Y0086118D01*
X0343972Y0086268D01*
X0341686Y0086118D01*
X0339438Y0085671D01*
X0337268Y0084934D01*
X0335213Y0083921D01*
X0333307Y0082647D01*
X0331584Y0081136D01*
X0330073Y0079413D01*
X0328800Y0077508D01*
X0327786Y0075453D01*
X0327050Y0073283D01*
X0326603Y0071035D01*
X0326453Y0068748D01*
X0326492Y0069347D02*
X0361453Y0069347D01*
X0361414Y0069945D02*
X0326531Y0069945D01*
X0326570Y0070544D02*
X0361374Y0070544D01*
X0361321Y0071142D02*
X0326624Y0071142D01*
X0326743Y0071741D02*
X0361202Y0071741D01*
X0361083Y0072339D02*
X0326862Y0072339D01*
X0326981Y0072938D02*
X0360964Y0072938D01*
X0360809Y0073536D02*
X0327136Y0073536D01*
X0327339Y0074135D02*
X0360606Y0074135D01*
X0360403Y0074733D02*
X0327542Y0074733D01*
X0327745Y0075332D02*
X0360200Y0075332D01*
X0359923Y0075930D02*
X0328022Y0075930D01*
X0328317Y0076529D02*
X0359628Y0076529D01*
X0359333Y0077127D02*
X0328612Y0077127D01*
X0328945Y0077726D02*
X0358999Y0077726D01*
X0358599Y0078324D02*
X0329345Y0078324D01*
X0329745Y0078923D02*
X0358200Y0078923D01*
X0357777Y0079521D02*
X0330168Y0079521D01*
X0330693Y0080120D02*
X0357252Y0080120D01*
X0356727Y0080718D02*
X0331218Y0080718D01*
X0331790Y0081317D02*
X0356155Y0081317D01*
X0355472Y0081915D02*
X0332472Y0081915D01*
X0333155Y0082514D02*
X0354790Y0082514D01*
X0353942Y0083112D02*
X0334003Y0083112D01*
X0334899Y0083711D02*
X0353046Y0083711D01*
X0351944Y0084309D02*
X0336001Y0084309D01*
X0337215Y0084908D02*
X0350730Y0084908D01*
X0348991Y0085506D02*
X0338954Y0085506D01*
X0341620Y0086105D02*
X0346324Y0086105D01*
M02*
