G75*
%MOIN*%
%OFA0B0*%
%FSLAX25Y25*%
%IPPOS*%
%LPD*%
%AMOC8*
5,1,8,0,0,1.08239X$1,22.5*
%
%ADD10C,0.01600*%
D10*
X0023106Y0041189D02*
X0076256Y0041189D01*
X0076261Y0041570D01*
X0076274Y0041950D01*
X0076297Y0042330D01*
X0076330Y0042709D01*
X0076371Y0043087D01*
X0076421Y0043464D01*
X0076481Y0043840D01*
X0076549Y0044215D01*
X0076627Y0044587D01*
X0076714Y0044958D01*
X0076809Y0045326D01*
X0076914Y0045692D01*
X0077027Y0046055D01*
X0077149Y0046416D01*
X0077279Y0046773D01*
X0077419Y0047127D01*
X0077566Y0047478D01*
X0077723Y0047825D01*
X0077887Y0048168D01*
X0078060Y0048507D01*
X0078241Y0048842D01*
X0078430Y0049173D01*
X0078627Y0049498D01*
X0078831Y0049819D01*
X0079044Y0050135D01*
X0079264Y0050445D01*
X0079491Y0050751D01*
X0079726Y0051050D01*
X0079968Y0051344D01*
X0080216Y0051632D01*
X0080472Y0051914D01*
X0080735Y0052189D01*
X0081004Y0052458D01*
X0081279Y0052721D01*
X0081561Y0052977D01*
X0081849Y0053225D01*
X0082143Y0053467D01*
X0082442Y0053702D01*
X0082748Y0053929D01*
X0083058Y0054149D01*
X0083374Y0054362D01*
X0083695Y0054566D01*
X0084020Y0054763D01*
X0084351Y0054952D01*
X0084686Y0055133D01*
X0085025Y0055306D01*
X0085368Y0055470D01*
X0085715Y0055627D01*
X0086066Y0055774D01*
X0086420Y0055914D01*
X0086777Y0056044D01*
X0087138Y0056166D01*
X0087501Y0056279D01*
X0087867Y0056384D01*
X0088235Y0056479D01*
X0088606Y0056566D01*
X0088978Y0056644D01*
X0089353Y0056712D01*
X0089729Y0056772D01*
X0090106Y0056822D01*
X0090484Y0056863D01*
X0090863Y0056896D01*
X0091243Y0056919D01*
X0091623Y0056932D01*
X0092004Y0056937D01*
X0272122Y0056937D01*
X0283933Y0045126D02*
X0283933Y0031347D01*
X0283933Y0045126D02*
X0283728Y0045603D01*
X0283513Y0046076D01*
X0283286Y0046543D01*
X0283048Y0047004D01*
X0282799Y0047460D01*
X0282539Y0047910D01*
X0282269Y0048354D01*
X0281988Y0048791D01*
X0281697Y0049221D01*
X0281395Y0049644D01*
X0281084Y0050060D01*
X0280763Y0050468D01*
X0280432Y0050868D01*
X0280092Y0051261D01*
X0279743Y0051645D01*
X0279384Y0052021D01*
X0279017Y0052388D01*
X0278641Y0052747D01*
X0278257Y0053096D01*
X0277864Y0053436D01*
X0277464Y0053767D01*
X0277056Y0054088D01*
X0276640Y0054399D01*
X0276217Y0054701D01*
X0275787Y0054992D01*
X0275350Y0055273D01*
X0274906Y0055543D01*
X0274456Y0055803D01*
X0274000Y0056052D01*
X0273539Y0056290D01*
X0273072Y0056517D01*
X0272599Y0056732D01*
X0272122Y0056937D01*
X0272122Y0080559D02*
X0092004Y0080559D01*
X0091623Y0080564D01*
X0091243Y0080577D01*
X0090863Y0080600D01*
X0090484Y0080633D01*
X0090106Y0080674D01*
X0089729Y0080724D01*
X0089353Y0080784D01*
X0088978Y0080852D01*
X0088606Y0080930D01*
X0088235Y0081017D01*
X0087867Y0081112D01*
X0087501Y0081217D01*
X0087138Y0081330D01*
X0086777Y0081452D01*
X0086420Y0081582D01*
X0086066Y0081722D01*
X0085715Y0081869D01*
X0085368Y0082026D01*
X0085025Y0082190D01*
X0084686Y0082363D01*
X0084351Y0082544D01*
X0084020Y0082733D01*
X0083695Y0082930D01*
X0083374Y0083134D01*
X0083058Y0083347D01*
X0082748Y0083567D01*
X0082442Y0083794D01*
X0082143Y0084029D01*
X0081849Y0084271D01*
X0081561Y0084519D01*
X0081279Y0084775D01*
X0081004Y0085038D01*
X0080735Y0085307D01*
X0080472Y0085582D01*
X0080216Y0085864D01*
X0079968Y0086152D01*
X0079726Y0086446D01*
X0079491Y0086745D01*
X0079264Y0087051D01*
X0079044Y0087361D01*
X0078831Y0087677D01*
X0078627Y0087998D01*
X0078430Y0088323D01*
X0078241Y0088654D01*
X0078060Y0088989D01*
X0077887Y0089328D01*
X0077723Y0089671D01*
X0077566Y0090018D01*
X0077419Y0090369D01*
X0077279Y0090723D01*
X0077149Y0091080D01*
X0077027Y0091441D01*
X0076914Y0091804D01*
X0076809Y0092170D01*
X0076714Y0092538D01*
X0076627Y0092909D01*
X0076549Y0093281D01*
X0076481Y0093656D01*
X0076421Y0094032D01*
X0076371Y0094409D01*
X0076330Y0094787D01*
X0076297Y0095166D01*
X0076274Y0095546D01*
X0076261Y0095926D01*
X0076256Y0096307D01*
X0023106Y0096307D01*
X0022916Y0096305D01*
X0022726Y0096298D01*
X0022536Y0096286D01*
X0022346Y0096270D01*
X0022157Y0096250D01*
X0021968Y0096224D01*
X0021780Y0096195D01*
X0021593Y0096160D01*
X0021407Y0096121D01*
X0021222Y0096078D01*
X0021037Y0096030D01*
X0020854Y0095978D01*
X0020673Y0095922D01*
X0020493Y0095861D01*
X0020314Y0095795D01*
X0020137Y0095726D01*
X0019961Y0095652D01*
X0019788Y0095574D01*
X0019616Y0095491D01*
X0019447Y0095405D01*
X0019279Y0095315D01*
X0019114Y0095220D01*
X0018951Y0095122D01*
X0018791Y0095019D01*
X0018633Y0094913D01*
X0018478Y0094803D01*
X0018325Y0094690D01*
X0018175Y0094572D01*
X0018029Y0094451D01*
X0017885Y0094327D01*
X0017744Y0094199D01*
X0017606Y0094068D01*
X0017471Y0093933D01*
X0017340Y0093795D01*
X0017212Y0093654D01*
X0017088Y0093510D01*
X0016967Y0093364D01*
X0016849Y0093214D01*
X0016736Y0093061D01*
X0016626Y0092906D01*
X0016520Y0092748D01*
X0016417Y0092588D01*
X0016319Y0092425D01*
X0016224Y0092260D01*
X0016134Y0092092D01*
X0016048Y0091923D01*
X0015965Y0091751D01*
X0015887Y0091578D01*
X0015813Y0091402D01*
X0015744Y0091225D01*
X0015678Y0091046D01*
X0015617Y0090866D01*
X0015561Y0090685D01*
X0015509Y0090502D01*
X0015461Y0090317D01*
X0015418Y0090132D01*
X0015379Y0089946D01*
X0015344Y0089759D01*
X0015315Y0089571D01*
X0015289Y0089382D01*
X0015269Y0089193D01*
X0015253Y0089003D01*
X0015241Y0088813D01*
X0015234Y0088623D01*
X0015232Y0088433D01*
X0015232Y0049063D01*
X0015234Y0048873D01*
X0015241Y0048683D01*
X0015253Y0048493D01*
X0015269Y0048303D01*
X0015289Y0048114D01*
X0015315Y0047925D01*
X0015344Y0047737D01*
X0015379Y0047550D01*
X0015418Y0047364D01*
X0015461Y0047179D01*
X0015509Y0046994D01*
X0015561Y0046811D01*
X0015617Y0046630D01*
X0015678Y0046450D01*
X0015744Y0046271D01*
X0015813Y0046094D01*
X0015887Y0045918D01*
X0015965Y0045745D01*
X0016048Y0045573D01*
X0016134Y0045404D01*
X0016224Y0045236D01*
X0016319Y0045071D01*
X0016417Y0044908D01*
X0016520Y0044748D01*
X0016626Y0044590D01*
X0016736Y0044435D01*
X0016849Y0044282D01*
X0016967Y0044132D01*
X0017088Y0043986D01*
X0017212Y0043842D01*
X0017340Y0043701D01*
X0017471Y0043563D01*
X0017606Y0043428D01*
X0017744Y0043297D01*
X0017885Y0043169D01*
X0018029Y0043045D01*
X0018175Y0042924D01*
X0018325Y0042806D01*
X0018478Y0042693D01*
X0018633Y0042583D01*
X0018791Y0042477D01*
X0018951Y0042374D01*
X0019114Y0042276D01*
X0019279Y0042181D01*
X0019447Y0042091D01*
X0019616Y0042005D01*
X0019788Y0041922D01*
X0019961Y0041844D01*
X0020137Y0041770D01*
X0020314Y0041701D01*
X0020493Y0041635D01*
X0020673Y0041574D01*
X0020854Y0041518D01*
X0021037Y0041466D01*
X0021222Y0041418D01*
X0021407Y0041375D01*
X0021593Y0041336D01*
X0021780Y0041301D01*
X0021968Y0041272D01*
X0022157Y0041246D01*
X0022346Y0041226D01*
X0022536Y0041210D01*
X0022726Y0041198D01*
X0022916Y0041191D01*
X0023106Y0041189D01*
X0272122Y0080559D02*
X0272614Y0080770D01*
X0273101Y0080993D01*
X0273582Y0081228D01*
X0274058Y0081475D01*
X0274527Y0081733D01*
X0274990Y0082003D01*
X0275446Y0082284D01*
X0275895Y0082576D01*
X0276336Y0082879D01*
X0276771Y0083193D01*
X0277197Y0083517D01*
X0277615Y0083852D01*
X0278025Y0084197D01*
X0278426Y0084551D01*
X0278819Y0084916D01*
X0279202Y0085290D01*
X0279576Y0085673D01*
X0279941Y0086066D01*
X0280295Y0086467D01*
X0280640Y0086877D01*
X0280975Y0087295D01*
X0281299Y0087721D01*
X0281613Y0088156D01*
X0281916Y0088597D01*
X0282208Y0089046D01*
X0282489Y0089502D01*
X0282759Y0089965D01*
X0283017Y0090434D01*
X0283264Y0090910D01*
X0283499Y0091391D01*
X0283722Y0091878D01*
X0283933Y0092370D01*
X0283933Y0106150D01*
X0283933Y0031347D02*
X0284980Y0029958D01*
X0286059Y0028595D01*
X0287171Y0027258D01*
X0288314Y0025949D01*
X0289489Y0024667D01*
X0290694Y0023413D01*
X0291929Y0022189D01*
X0293192Y0020995D01*
X0294484Y0019832D01*
X0295804Y0018700D01*
X0297150Y0017600D01*
X0298523Y0016532D01*
X0299920Y0015498D01*
X0301342Y0014498D01*
X0302788Y0013532D01*
X0304256Y0012601D01*
X0305747Y0011705D01*
X0307258Y0010846D01*
X0308790Y0010023D01*
X0310340Y0009237D01*
X0311910Y0008488D01*
X0313496Y0007778D01*
X0315100Y0007105D01*
X0316719Y0006472D01*
X0318353Y0005877D01*
X0320000Y0005322D01*
X0321661Y0004806D01*
X0323333Y0004331D01*
X0325016Y0003895D01*
X0326709Y0003500D01*
X0328412Y0003146D01*
X0330122Y0002833D01*
X0331839Y0002561D01*
X0333562Y0002331D01*
X0335291Y0002141D01*
X0337023Y0001993D01*
X0338758Y0001887D01*
X0340496Y0001823D01*
X0342234Y0001800D01*
X0343973Y0001819D01*
X0283933Y0106149D02*
X0284980Y0107538D01*
X0286059Y0108901D01*
X0287171Y0110238D01*
X0288314Y0111547D01*
X0289489Y0112829D01*
X0290694Y0114083D01*
X0291929Y0115307D01*
X0293192Y0116501D01*
X0294484Y0117664D01*
X0295804Y0118796D01*
X0297150Y0119896D01*
X0298523Y0120964D01*
X0299920Y0121998D01*
X0301342Y0122998D01*
X0302788Y0123964D01*
X0304256Y0124895D01*
X0305747Y0125791D01*
X0307258Y0126650D01*
X0308790Y0127473D01*
X0310340Y0128259D01*
X0311910Y0129008D01*
X0313496Y0129718D01*
X0315100Y0130391D01*
X0316719Y0131024D01*
X0318353Y0131619D01*
X0320000Y0132174D01*
X0321661Y0132690D01*
X0323333Y0133165D01*
X0325016Y0133601D01*
X0326709Y0133996D01*
X0328412Y0134350D01*
X0330122Y0134663D01*
X0331839Y0134935D01*
X0333562Y0135165D01*
X0335291Y0135355D01*
X0337023Y0135503D01*
X0338758Y0135609D01*
X0340496Y0135673D01*
X0342234Y0135696D01*
X0343973Y0135677D01*
X0343972Y0135677D02*
X0345565Y0135634D01*
X0347157Y0135552D01*
X0348746Y0135432D01*
X0350332Y0135274D01*
X0351914Y0135077D01*
X0353490Y0134842D01*
X0355060Y0134570D01*
X0356624Y0134259D01*
X0358179Y0133911D01*
X0359725Y0133525D01*
X0361262Y0133102D01*
X0362788Y0132642D01*
X0364302Y0132145D01*
X0365804Y0131612D01*
X0367293Y0131042D01*
X0368767Y0130437D01*
X0370226Y0129796D01*
X0371670Y0129121D01*
X0373096Y0128410D01*
X0374506Y0127666D01*
X0375896Y0126887D01*
X0377268Y0126075D01*
X0378619Y0125231D01*
X0379950Y0124353D01*
X0381259Y0123444D01*
X0382546Y0122504D01*
X0383809Y0121533D01*
X0385049Y0120531D01*
X0386264Y0119500D01*
X0387454Y0118440D01*
X0388618Y0117351D01*
X0389755Y0116234D01*
X0390865Y0115091D01*
X0391947Y0113921D01*
X0393001Y0112725D01*
X0394025Y0111504D01*
X0395020Y0110258D01*
X0395984Y0108989D01*
X0396917Y0107697D01*
X0397819Y0106383D01*
X0398688Y0105047D01*
X0399525Y0103691D01*
X0400329Y0102315D01*
X0401100Y0100920D01*
X0401836Y0099507D01*
X0402539Y0098076D01*
X0403206Y0096629D01*
X0403839Y0095166D01*
X0404435Y0093688D01*
X0404996Y0092196D01*
X0405521Y0090691D01*
X0406009Y0089174D01*
X0406461Y0087645D01*
X0406875Y0086106D01*
X0407252Y0084558D01*
X0407591Y0083001D01*
X0407893Y0081436D01*
X0408157Y0079864D01*
X0408383Y0078286D01*
X0408570Y0076704D01*
X0408720Y0075117D01*
X0408831Y0073527D01*
X0408903Y0071935D01*
X0408937Y0070342D01*
X0408933Y0068748D01*
X0408937Y0067154D01*
X0408903Y0065561D01*
X0408831Y0063969D01*
X0408720Y0062379D01*
X0408570Y0060792D01*
X0408383Y0059210D01*
X0408157Y0057632D01*
X0407893Y0056060D01*
X0407591Y0054495D01*
X0407252Y0052938D01*
X0406875Y0051390D01*
X0406461Y0049851D01*
X0406009Y0048322D01*
X0405521Y0046805D01*
X0404996Y0045300D01*
X0404435Y0043808D01*
X0403839Y0042330D01*
X0403206Y0040867D01*
X0402539Y0039420D01*
X0401836Y0037989D01*
X0401100Y0036576D01*
X0400329Y0035181D01*
X0399525Y0033805D01*
X0398688Y0032449D01*
X0397819Y0031113D01*
X0396917Y0029799D01*
X0395984Y0028507D01*
X0395020Y0027238D01*
X0394025Y0025992D01*
X0393001Y0024771D01*
X0391947Y0023575D01*
X0390865Y0022405D01*
X0389755Y0021262D01*
X0388618Y0020145D01*
X0387454Y0019056D01*
X0386264Y0017996D01*
X0385049Y0016965D01*
X0383809Y0015963D01*
X0382546Y0014992D01*
X0381259Y0014052D01*
X0379950Y0013143D01*
X0378619Y0012265D01*
X0377268Y0011421D01*
X0375896Y0010609D01*
X0374506Y0009830D01*
X0373096Y0009086D01*
X0371670Y0008375D01*
X0370226Y0007700D01*
X0368767Y0007059D01*
X0367293Y0006454D01*
X0365804Y0005884D01*
X0364302Y0005351D01*
X0362788Y0004854D01*
X0361262Y0004394D01*
X0359725Y0003971D01*
X0358179Y0003585D01*
X0356624Y0003237D01*
X0355060Y0002926D01*
X0353490Y0002654D01*
X0351914Y0002419D01*
X0350332Y0002222D01*
X0348746Y0002064D01*
X0347157Y0001944D01*
X0345565Y0001862D01*
X0343972Y0001819D01*
M02*
